<svg width="150" height="75" viewBox="0 0 150 75" fill="none" xmlns="http://www.w3.org/2000/svg">
<g clip-path="url(#clip0_183_6965)" filter="url(#filter0_ign_183_6965)">
<path d="M63.1656 3.28981C70.4056 2.39071 81.096 3.27798 85.5453 10.2164C89.2924 16.0547 85.8419 28.1452 80.1516 31.6647C76.1624 34.1313 71.0775 34.2259 66.9188 32.274C65.1935 31.4636 63.5228 30.3338 62.5784 28.6421C61.6341 26.9563 61.6099 24.6198 62.9174 23.2179C63.771 22.301 65.1633 23.768 66.3013 22.4253C68.6198 19.6747 66.0228 16.0133 63.1838 16.6639C54.9934 18.5508 58.2562 28.5415 62.1244 32.4632C65.5144 35.8999 71.6041 39.2006 76.5619 38.059C81.9193 36.8286 85.2002 31.4754 91.4474 30.9135C96.1873 30.4876 101.163 32.2207 104.341 35.8585C105.582 37.2782 106.563 39.0645 106.521 40.9692C106.478 42.8739 105.128 44.8199 103.282 44.9974C101.436 45.1749 99.6499 42.9626 100.522 41.2827C101.248 41.0461 101.974 40.8095 102.707 40.5788C101.272 39.3484 98.8084 40.1115 97.9973 41.8446C97.1861 43.5719 97.8883 45.79 99.3472 46.9967C100.8 48.2034 102.828 48.4992 104.668 48.1502C108.24 47.4699 109.335 44.9323 111.702 42.6668C114.323 40.1588 117.259 39.2479 120.77 38.1773C123.833 37.2427 127.048 36.4737 130.196 37.0238C133.343 37.568 136.419 39.727 137.206 42.8975C137.508 44.116 137.466 45.3996 137.763 46.6181C138.695 50.463 143.453 52.7462 146.927 51.019C147.375 52.7817 145.832 54.5444 144.113 54.9881C142.393 55.4317 140.59 54.9467 138.864 54.5089C134.482 53.4028 130.014 52.6397 125.522 52.2198C123.718 52.0541 121.763 51.9773 120.238 52.9828C119.082 53.7459 118.361 55.0235 117.683 56.2539C116.309 58.7383 115.268 61.9324 113.44 64.05C108.603 69.6517 99.8799 68.9537 92.9729 66.5581C86.0659 64.1565 79.0923 60.4714 71.8826 61.6248C68.1294 62.2282 64.7153 64.1033 61.2648 65.7358C52.4449 69.9119 42.7533 72.6211 33.0617 71.8935C23.3701 71.1659 13.6906 66.6764 7.94583 58.6377C2.2011 50.599 1.12357 38.8752 6.54749 30.6059C11.9653 22.3306 24.1328 19.1246 32.1173 24.7972C35.5497 27.2402 38.1103 31.4932 37.3415 35.7047C36.5727 39.9163 31.4938 43.0691 27.9284 40.8391C25.2225 38.8634 27.3412 33.4333 30.6282 33.9184C28.8485 33.6522 26.5784 33.4984 25.3011 35.06C24.5626 35.9591 24.2297 37.1421 24.0239 38.3074C23.1764 43.0986 24.496 50.3624 30.6645 46.2869C32.3232 45.1926 33.6913 43.6488 35.4407 42.6964C37.0691 41.8151 38.9275 41.5016 40.7617 41.2886C42.7594 41.052 45.0173 40.9929 46.5065 42.377C48.1772 43.9208 48.1712 46.5708 48.044 48.8718C48.0198 49.345 47.9774 49.8537 47.6808 50.2145C47.3963 50.5576 46.9423 50.6937 46.5125 50.8061C45.5621 51.0604 44.5451 51.3088 43.6189 50.9894C42.6867 50.67 41.9542 49.5343 42.4022 48.6411C42.8259 48.5465 43.2436 48.4459 43.6674 48.3513C42.5656 47.5705 40.7799 48.3749 40.5862 49.7295C40.4348 50.8061 41.1431 51.8294 41.9664 52.5096C44.6783 54.7514 48.9339 54.4675 51.5914 52.1547C54.2488 49.8478 55.2598 45.8728 54.4304 42.4066C52.7294 35.2966 44.5693 32.1261 42.154 25.7259C40.6225 21.674 41.1128 16.6166 43.5342 13.0379C47.814 6.71467 55.738 4.2244 63.1838 3.30756L63.1656 3.28981Z" fill="#A7271D"/>
</g>
<defs>
<filter id="filter0_ign_183_6965" x="0" y="0" width="150" height="75" filterUnits="userSpaceOnUse" color-interpolation-filters="sRGB">
<feFlood flood-opacity="0" result="BackgroundImageFix"/>
<feBlend mode="normal" in="SourceGraphic" in2="BackgroundImageFix" result="shape"/>
<feColorMatrix in="SourceAlpha" type="matrix" values="0 0 0 0 0 0 0 0 0 0 0 0 0 0 0 0 0 0 127 0" result="hardAlpha"/>
<feOffset dx="3" dy="3"/>
<feGaussianBlur stdDeviation="3"/>
<feComposite in2="hardAlpha" operator="arithmetic" k2="-1" k3="1"/>
<feColorMatrix type="matrix" values="0 0 0 0 0 0 0 0 0 0 0 0 0 0 0 0 0 0 0.25 0"/>
<feBlend mode="normal" in2="shape" result="effect1_innerShadow_183_6965"/>
<feTurbulence type="fractalNoise" baseFrequency="0.2222222238779068 0.2222222238779068" numOctaves="3" seed="1056" />
<feDisplacementMap in="effect1_innerShadow_183_6965" scale="6" xChannelSelector="R" yChannelSelector="G" result="displacedImage" width="100%" height="100%" />
<feMerge result="effect2_texture_183_6965">
<feMergeNode in="displacedImage"/>
</feMerge>
<feTurbulence type="fractalNoise" baseFrequency="0.66666668653488159 0.66666668653488159" stitchTiles="stitch" numOctaves="3" result="noise" seed="7254" />
<feColorMatrix in="noise" type="luminanceToAlpha" result="alphaNoise" />
<feComponentTransfer in="alphaNoise" result="coloredNoise1">
<feFuncA type="discrete" tableValues="0 0 0 0 0 0 0 0 0 0 0 0 0 0 1 1 1 1 1 1 1 1 1 1 1 1 1 1 1 1 1 1 1 1 1 0 0 0 0 0 0 0 0 0 0 0 0 0 0 0 0 0 0 0 0 0 0 0 0 0 0 0 0 0 0 0 0 0 0 0 0 0 0 0 0 0 0 0 0 0 0 0 0 0 0 0 0 0 0 0 0 0 0 0 0 0 0 0 0 0 "/>
</feComponentTransfer>
<feComposite operator="in" in2="effect2_texture_183_6965" in="coloredNoise1" result="noise1Clipped" />
<feFlood flood-color="rgba(197, 117, 100, 0.4)" result="color1Flood" />
<feComposite operator="in" in2="noise1Clipped" in="color1Flood" result="color1" />
<feMerge result="effect3_noise_183_6965">
<feMergeNode in="effect2_texture_183_6965" />
<feMergeNode in="color1" />
</feMerge>
</filter>
<clipPath id="clip0_183_6965">
<rect width="144" height="69" fill="white" transform="matrix(-1 0 0 1 147 3)"/>
</clipPath>
</defs>
</svg>
