<svg width="144" height="69" viewBox="0 0 144 69" fill="none" xmlns="http://www.w3.org/2000/svg">
<g clip-path="url(#clip0_183_6965)" filter="url(#filter0_n_183_6965)">
<path d="M60.1656 0.289842C67.4056 -0.609258 78.096 0.278012 82.5453 7.21646C86.2924 13.0547 82.8419 25.1452 77.1516 28.6647C73.1624 31.1313 68.0775 31.226 63.9188 29.274C62.1935 28.4636 60.5228 27.3338 59.5784 25.6421C58.6341 23.9563 58.6099 21.6198 59.9174 20.2179C60.771 19.3011 62.1633 20.768 63.3013 19.4253C65.6198 16.6748 63.0228 13.0133 60.1838 13.664C51.9934 15.5509 55.2562 25.5415 59.1244 29.4633C62.5144 32.9 68.6041 36.2006 73.5619 35.059C78.9193 33.8286 82.2002 28.4754 88.4474 27.9135C93.1873 27.4876 98.1632 29.2207 101.341 32.8586C102.582 34.2782 103.563 36.0646 103.521 37.9692C103.478 39.8739 102.128 41.82 100.282 41.9974C98.4356 42.1749 96.6499 39.9626 97.5216 38.2827C98.248 38.0461 98.9744 37.8095 99.7069 37.5788C98.2722 36.3485 95.8084 37.1115 94.9973 38.8447C94.1861 40.5719 94.8883 42.7901 96.3472 43.9967C97.8 45.2034 99.8279 45.4992 101.668 45.1502C105.24 44.47 106.335 41.9324 108.702 39.6669C111.323 37.1589 114.259 36.2479 117.77 35.1773C120.833 34.2427 124.048 33.4737 127.196 34.0238C130.343 34.568 133.419 36.727 134.206 39.8976C134.508 41.1161 134.466 42.3997 134.763 43.6182C135.695 47.463 140.453 49.7463 143.927 48.019C144.375 49.7817 142.832 51.5445 141.113 51.9881C139.393 52.4317 137.59 51.9467 135.864 51.509C131.482 50.4028 127.014 49.6398 122.522 49.2198C120.718 49.0542 118.763 48.9773 117.238 49.9829C116.082 50.7459 115.361 52.0236 114.683 53.2539C113.309 55.7383 112.268 58.9324 110.44 61.0501C105.603 66.6517 96.8799 65.9537 89.9729 63.5581C83.0659 61.1565 76.0923 57.4714 68.8826 58.6249C65.1294 59.2282 61.7153 61.1033 58.2648 62.7359C49.4449 66.912 39.7533 69.6211 30.0617 68.8935C20.3701 68.166 10.6906 63.6764 4.94583 55.6377C-0.798904 47.5991 -1.87643 35.8753 3.54749 27.6059C8.96533 19.3306 21.1328 16.1246 29.1173 21.7973C32.5497 24.2402 35.1103 28.4932 34.3415 32.7048C33.5727 36.9163 28.4938 40.0691 24.9284 37.8391C22.2225 35.8634 24.3412 30.4333 27.6282 30.9184C25.8485 30.6522 23.5784 30.4984 22.3011 32.06C21.5626 32.9591 21.2297 34.1421 21.0239 35.3074C20.1764 40.0987 21.496 47.3625 27.6645 43.2869C29.3232 42.1926 30.6913 40.6488 32.4407 39.6964C34.0691 38.8151 35.9275 38.5016 37.7617 38.2886C39.7594 38.052 42.0173 37.9929 43.5065 39.377C45.1772 40.9209 45.1712 43.5709 45.044 45.8718C45.0198 46.3451 44.9774 46.8538 44.6808 47.2146C44.3963 47.5577 43.9423 47.6937 43.5125 47.8061C42.5621 48.0604 41.5451 48.3089 40.6189 47.9895C39.6867 47.67 38.9542 46.5343 39.4022 45.6412C39.8259 45.5465 40.2436 45.4459 40.6674 45.3513C39.5656 44.5705 37.7799 45.375 37.5862 46.7295C37.4348 47.8061 38.1431 48.8294 38.9664 49.5096C41.6783 51.7515 45.9339 51.4676 48.5914 49.1547C51.2488 46.8478 52.2598 42.8729 51.4304 39.4066C49.7294 32.2966 41.5693 29.1261 39.154 22.7259C37.6225 18.6741 38.1128 13.6166 40.5342 10.038C44.814 3.7147 52.738 1.22443 60.1838 0.307588L60.1656 0.289842Z" fill="#A7271D"/>
</g>
<defs>
<filter id="filter0_n_183_6965" x="0" y="0" width="144" height="69" filterUnits="userSpaceOnUse" color-interpolation-filters="sRGB">
<feFlood flood-opacity="0" result="BackgroundImageFix"/>
<feBlend mode="normal" in="SourceGraphic" in2="BackgroundImageFix" result="shape"/>
<feTurbulence type="fractalNoise" baseFrequency="0.66666668653488159 0.66666668653488159" stitchTiles="stitch" numOctaves="3" result="noise" seed="7254" />
<feColorMatrix in="noise" type="luminanceToAlpha" result="alphaNoise" />
<feComponentTransfer in="alphaNoise" result="coloredNoise1">
<feFuncA type="discrete" tableValues="0 0 0 0 0 0 0 0 0 0 0 0 0 0 1 1 1 1 1 1 1 1 1 1 1 1 1 1 1 1 1 1 1 1 1 0 0 0 0 0 0 0 0 0 0 0 0 0 0 0 0 0 0 0 0 0 0 0 0 0 0 0 0 0 0 0 0 0 0 0 0 0 0 0 0 0 0 0 0 0 0 0 0 0 0 0 0 0 0 0 0 0 0 0 0 0 0 0 0 0 "/>
</feComponentTransfer>
<feComposite operator="in" in2="shape" in="coloredNoise1" result="noise1Clipped" />
<feFlood flood-color="rgba(197, 117, 100, 0.4)" result="color1Flood" />
<feComposite operator="in" in2="noise1Clipped" in="color1Flood" result="color1" />
<feMerge result="effect1_noise_183_6965">
<feMergeNode in="shape" />
<feMergeNode in="color1" />
</feMerge>
</filter>
<clipPath id="clip0_183_6965">
<rect width="144" height="69" fill="white" transform="matrix(-1 0 0 1 144 0)"/>
</clipPath>
</defs>
</svg>
