<svg width="151" height="83" viewBox="0 0 151 83" fill="none" xmlns="http://www.w3.org/2000/svg">
<g clip-path="url(#clip0_183_6964)" filter="url(#filter0_ign_183_6964)">
<path d="M36.7736 72.7413C44.3166 79.3806 54.6073 83.4581 64.5179 81.5133C73.2813 79.7964 93.6626 60.0862 76.9161 56.4916C74.9486 56.0691 72.8611 55.8142 70.927 56.4312C68.993 57.0482 67.2523 58.7382 67.1256 60.777C67.0122 62.6146 68.3527 64.4119 70.1267 64.7874C71.8941 65.163 73.8815 64.0833 74.5618 62.3664C74.0216 61.85 73.4747 61.3336 72.9345 60.8105C74.9286 60.9245 76.1091 63.5199 75.2621 65.3642C74.4151 67.2085 72.1609 68.1004 70.1934 67.7986C68.226 67.4968 66.532 66.236 65.1715 64.774C64.5179 64.0699 63.9043 63.2718 63.6642 62.3262C63.4108 61.3068 63.6242 60.2137 63.9843 59.2144C66.4053 52.6086 73.1613 50.2747 79.5971 50.9387C87.887 51.7904 87.1134 59.2278 91.942 64.6734C94.9898 68.1138 99.8584 69.0997 104.374 69.9044C105.634 70.1258 106.921 70.3538 108.202 70.2129C111.97 69.7971 114.698 66.4372 116.925 63.312C118.833 60.6429 120.793 57.3165 119.619 54.2852C117.912 49.8522 110.996 49.7516 108.995 45.4461C108.175 43.6756 108.415 41.543 109.149 39.7121C110.443 36.4796 113.404 33.8507 116.812 33.4349C120.22 33.0191 123.854 35.1316 124.795 38.4513C125.295 40.2151 124.955 42.3343 123.561 43.5348C122.167 44.7419 119.693 44.5408 118.873 42.9111C118.052 41.2814 119.893 38.9141 121.56 39.6249C120.246 37.5258 116.585 38.6257 115.731 40.9863C114.884 43.347 116.058 45.9558 117.659 47.8336C126.375 58.0743 138.687 55.7405 145.356 45.0035C147.637 41.3284 149.518 37.0698 148.871 32.8179C147.717 25.2263 136.873 15.9982 129.55 15.2806C124.948 14.8313 120.16 16.461 116.718 19.6465C118.386 16.9103 117.759 13.2218 115.905 10.6666C114.051 8.11146 111.183 6.51534 108.275 5.31489C106.201 4.45646 104.027 3.7657 101.779 3.62487C97.3841 3.36332 92.8823 5.40878 90.1146 8.92294C88.1271 11.4513 87.2601 14.4557 87.1001 17.6212C87.0734 18.104 86.98 23.9185 86.9667 23.9051C82.1715 13.9662 79.2503 4.63083 66.9722 2.411C57.4151 0.687454 46.4574 4.43634 40.6952 12.6852C36.4535 18.7479 35.6399 27.3723 39.6014 33.502C42.1424 37.4319 48.9317 43.7024 54.0738 43.6823C63.7776 43.6354 64.8246 26.6346 55.6544 30.4103C54.0071 31.0877 53.0267 33.4684 54.2205 34.7762C51.6662 33.6428 48.745 32.0266 48.4782 29.1965C48.2515 26.7956 50.2856 24.569 52.6065 23.9654C54.9274 23.3619 57.3817 24.0526 59.4959 25.1391C61.7968 26.3194 63.9176 28.043 65.0647 30.3902C68.8062 38.0355 59.5693 49.1615 52.3731 50.885C47.6646 52.0117 42.9094 50.1473 38.9878 47.5519C31.5116 42.6026 24.949 34.8567 15.9655 34.4878C10.51 34.2665 4.98117 37.1838 2 41.8649C4.46763 39.806 8.1891 40.0206 10.9769 41.5162C19.2734 45.9759 21.5143 52.7628 26.3229 60.2472C29.2707 64.8344 32.6654 69.1332 36.7536 72.7278L36.7736 72.7413Z" fill="#A7271D"/>
</g>
<defs>
<filter id="filter0_ign_183_6964" x="0" y="0" width="151" height="83" filterUnits="userSpaceOnUse" color-interpolation-filters="sRGB">
<feFlood flood-opacity="0" result="BackgroundImageFix"/>
<feBlend mode="normal" in="SourceGraphic" in2="BackgroundImageFix" result="shape"/>
<feColorMatrix in="SourceAlpha" type="matrix" values="0 0 0 0 0 0 0 0 0 0 0 0 0 0 0 0 0 0 127 0" result="hardAlpha"/>
<feOffset dx="2" dy="2"/>
<feGaussianBlur stdDeviation="2"/>
<feComposite in2="hardAlpha" operator="arithmetic" k2="-1" k3="1"/>
<feColorMatrix type="matrix" values="0 0 0 0 0 0 0 0 0 0 0 0 0 0 0 0 0 0 0.25 0"/>
<feBlend mode="normal" in2="shape" result="effect1_innerShadow_183_6964"/>
<feTurbulence type="fractalNoise" baseFrequency="0.3333333432674408 0.3333333432674408" numOctaves="3" seed="1056" />
<feDisplacementMap in="effect1_innerShadow_183_6964" scale="4" xChannelSelector="R" yChannelSelector="G" result="displacedImage" width="100%" height="100%" />
<feMerge result="effect2_texture_183_6964">
<feMergeNode in="displacedImage"/>
</feMerge>
<feTurbulence type="fractalNoise" baseFrequency="1 1" stitchTiles="stitch" numOctaves="3" result="noise" seed="7254" />
<feColorMatrix in="noise" type="luminanceToAlpha" result="alphaNoise" />
<feComponentTransfer in="alphaNoise" result="coloredNoise1">
<feFuncA type="discrete" tableValues="0 0 0 0 0 0 0 0 0 0 0 0 0 0 1 1 1 1 1 1 1 1 1 1 1 1 1 1 1 1 1 1 1 1 1 0 0 0 0 0 0 0 0 0 0 0 0 0 0 0 0 0 0 0 0 0 0 0 0 0 0 0 0 0 0 0 0 0 0 0 0 0 0 0 0 0 0 0 0 0 0 0 0 0 0 0 0 0 0 0 0 0 0 0 0 0 0 0 0 0 "/>
</feComponentTransfer>
<feComposite operator="in" in2="effect2_texture_183_6964" in="coloredNoise1" result="noise1Clipped" />
<feFlood flood-color="rgba(197, 117, 100, 0.4)" result="color1Flood" />
<feComposite operator="in" in2="noise1Clipped" in="color1Flood" result="color1" />
<feMerge result="effect3_noise_183_6964">
<feMergeNode in="effect2_texture_183_6964" />
<feMergeNode in="color1" />
</feMerge>
</filter>
<clipPath id="clip0_183_6964">
<rect width="147" height="79" fill="white" transform="translate(2 2)"/>
</clipPath>
</defs>
</svg>
