<svg width="147" height="79" viewBox="0 0 147 79" fill="none" xmlns="http://www.w3.org/2000/svg">
<g clip-path="url(#clip0_183_6964)" filter="url(#filter0_n_183_6964)">
<path d="M34.7736 70.7413C42.3166 77.3806 52.6073 81.4581 62.5179 79.5133C71.2813 77.7964 91.6626 58.0862 74.9161 54.4916C72.9486 54.0691 70.8611 53.8142 68.927 54.4312C66.993 55.0482 65.2523 56.7382 65.1256 58.777C65.0122 60.6146 66.3527 62.4119 68.1267 62.7874C69.8941 63.163 71.8815 62.0833 72.5618 60.3664C72.0216 59.85 71.4747 59.3336 70.9345 58.8105C72.9286 58.9245 74.1091 61.5199 73.2621 63.3642C72.4151 65.2085 70.1609 66.1004 68.1934 65.7986C66.226 65.4968 64.532 64.236 63.1715 62.774C62.5179 62.0699 61.9043 61.2718 61.6642 60.3262C61.4108 59.3068 61.6242 58.2137 61.9843 57.2144C64.4053 50.6086 71.1613 48.2747 77.5971 48.9387C85.887 49.7904 85.1134 57.2278 89.942 62.6734C92.9898 66.1138 97.8584 67.0997 102.374 67.9044C103.634 68.1258 104.921 68.3538 106.202 68.2129C109.97 67.7971 112.698 64.4372 114.925 61.312C116.833 58.6429 118.793 55.3165 117.619 52.2852C115.912 47.8522 108.996 47.7516 106.995 43.4461C106.175 41.6756 106.415 39.543 107.149 37.7121C108.443 34.4796 111.404 31.8507 114.812 31.4349C118.22 31.0191 121.854 33.1316 122.795 36.4513C123.295 38.2151 122.955 40.3343 121.561 41.5348C120.167 42.7419 117.693 42.5408 116.873 40.9111C116.052 39.2814 117.893 36.9141 119.56 37.6249C118.246 35.5258 114.585 36.6257 113.731 38.9863C112.884 41.347 114.058 43.9558 115.659 45.8336C124.375 56.0743 136.687 53.7405 143.356 43.0035C145.637 39.3284 147.518 35.0698 146.871 30.8179C145.717 23.2263 134.873 13.9982 127.55 13.2806C122.948 12.8313 118.16 14.461 114.718 17.6465C116.386 14.9103 115.759 11.2218 113.905 8.66661C112.051 6.11146 109.183 4.51534 106.275 3.31489C104.201 2.45646 102.027 1.7657 99.7792 1.62487C95.3841 1.36332 90.8823 3.40878 88.1146 6.92294C86.1271 9.45126 85.2601 12.4557 85.1001 15.6212C85.0734 16.104 84.98 21.9185 84.9667 21.9051C80.1715 11.9662 77.2503 2.63083 64.9722 0.411005C55.4151 -1.31255 44.4574 2.43634 38.6952 10.6852C34.4535 16.7479 33.6399 25.3723 37.6014 31.502C40.1424 35.4319 46.9317 41.7024 52.0738 41.6823C61.7776 41.6354 62.8246 24.6346 53.6544 28.4103C52.0071 29.0877 51.0267 31.4684 52.2205 32.7762C49.6662 31.6428 46.745 30.0266 46.4782 27.1965C46.2515 24.7956 48.2856 22.569 50.6065 21.9654C52.9274 21.3619 55.3817 22.0526 57.4959 23.1391C59.7968 24.3194 61.9176 26.043 63.0647 28.3902C66.8062 36.0355 57.5693 47.1615 50.3731 48.885C45.6646 50.0117 40.9094 48.1473 36.9878 45.5519C29.5116 40.6026 22.949 32.8567 13.9655 32.4878C8.51001 32.2665 2.98117 35.1838 0 39.8649C2.46763 37.806 6.1891 38.0206 8.97686 39.5162C17.2734 43.9759 19.5143 50.7628 24.3229 58.2472C27.2707 62.8344 30.6654 67.1332 34.7536 70.7278L34.7736 70.7413Z" fill="#A7271D"/>
</g>
<defs>
<filter id="filter0_n_183_6964" x="0" y="0" width="147" height="79" filterUnits="userSpaceOnUse" color-interpolation-filters="sRGB">
<feFlood flood-opacity="0" result="BackgroundImageFix"/>
<feBlend mode="normal" in="SourceGraphic" in2="BackgroundImageFix" result="shape"/>
<feTurbulence type="fractalNoise" baseFrequency="1 1" stitchTiles="stitch" numOctaves="3" result="noise" seed="7254" />
<feColorMatrix in="noise" type="luminanceToAlpha" result="alphaNoise" />
<feComponentTransfer in="alphaNoise" result="coloredNoise1">
<feFuncA type="discrete" tableValues="0 0 0 0 0 0 0 0 0 0 0 0 0 0 1 1 1 1 1 1 1 1 1 1 1 1 1 1 1 1 1 1 1 1 1 0 0 0 0 0 0 0 0 0 0 0 0 0 0 0 0 0 0 0 0 0 0 0 0 0 0 0 0 0 0 0 0 0 0 0 0 0 0 0 0 0 0 0 0 0 0 0 0 0 0 0 0 0 0 0 0 0 0 0 0 0 0 0 0 0 "/>
</feComponentTransfer>
<feComposite operator="in" in2="shape" in="coloredNoise1" result="noise1Clipped" />
<feFlood flood-color="rgba(197, 117, 100, 0.4)" result="color1Flood" />
<feComposite operator="in" in2="noise1Clipped" in="color1Flood" result="color1" />
<feMerge result="effect1_noise_183_6964">
<feMergeNode in="shape" />
<feMergeNode in="color1" />
</feMerge>
</filter>
<clipPath id="clip0_183_6964">
<rect width="147" height="79" fill="white"/>
</clipPath>
</defs>
</svg>
