<svg width="74" height="40" viewBox="0 0 74 40" fill="none" xmlns="http://www.w3.org/2000/svg">
<g clip-path="url(#clip0_2614_1456)" filter="url(#filter0_n_2614_1456)">
<path d="M17.3868 35.3706C21.1583 38.6903 26.3037 40.7291 31.2589 39.7566C35.6407 38.8982 45.8313 29.0431 37.458 27.2458C36.4743 27.0345 35.4306 26.9071 34.4635 27.2156C33.4965 27.5241 32.6261 28.3691 32.5628 29.3885C32.5061 30.3073 33.1763 31.2059 34.0634 31.3937C34.947 31.5815 35.9408 31.0416 36.2809 30.1832C36.0108 29.925 35.7374 29.6668 35.4673 29.4053C36.4643 29.4623 37.0545 30.76 36.631 31.6821C36.2075 32.6042 35.0804 33.0502 34.0967 32.8993C33.113 32.7484 32.266 32.118 31.5857 31.387C31.2589 31.0349 30.9521 30.6359 30.8321 30.1631C30.7054 29.6534 30.8121 29.1068 30.9922 28.6072C32.2026 25.3043 35.5806 24.1374 38.7986 24.4693C42.9435 24.8952 42.5567 28.6139 44.971 31.3367C46.4949 33.0569 48.9292 33.5498 51.1868 33.9522C51.817 34.0629 52.4606 34.1769 53.1008 34.1065C54.9849 33.8986 56.3488 32.2186 57.4625 30.656C58.4163 29.3214 59.3966 27.6582 58.8097 26.1426C57.9561 23.9261 54.498 23.8758 53.4977 21.7231C53.0875 20.8378 53.2075 19.7715 53.5744 18.8561C54.2213 17.2398 55.7019 15.9254 57.4059 15.7175C59.1099 15.5096 60.9272 16.5658 61.3974 18.2257C61.6475 19.1076 61.4775 20.1672 60.7805 20.7674C60.0836 21.371 58.8464 21.2704 58.4363 20.4555C58.0261 19.6407 58.9465 18.457 59.7801 18.8125C59.1232 17.7629 57.2925 18.3128 56.8656 19.4932C56.4421 20.6735 57.029 21.9779 57.8294 22.9168C62.1877 28.0372 68.3435 26.8702 71.6781 21.5017C72.8186 19.6642 73.7589 17.5349 73.4355 15.409C72.8586 11.6131 67.4365 6.99911 63.775 6.64032C61.4741 6.41565 59.0798 7.23048 57.3592 8.82326C58.1928 7.45515 57.8794 5.61088 56.9523 4.33331C56.0253 3.05573 54.5914 2.25767 53.1375 1.65744C52.1004 1.22823 51.0134 0.882851 49.8896 0.812434C47.692 0.681659 45.4412 1.70439 44.0573 3.46147C43.0636 4.72563 42.6301 6.22787 42.55 7.81059C42.5367 8.05202 42.49 10.9593 42.4833 10.9525C40.0857 5.98309 38.6252 1.31542 32.4861 0.205502C27.7075 -0.656273 22.2287 1.21817 19.3476 5.34262C17.2268 8.37393 16.8199 12.6862 18.8007 15.751C20.0712 17.716 23.4659 20.8512 26.0369 20.8412C30.8888 20.8177 31.4123 12.3173 26.8272 14.2052C26.0035 14.5438 25.5133 15.7342 26.1102 16.3881C24.8331 15.8214 23.3725 15.0133 23.2391 13.5982C23.1257 12.3978 24.1428 11.2845 25.3033 10.9827C26.4637 10.6809 27.6909 11.0263 28.7479 11.5695C29.8984 12.1597 30.9588 13.0215 31.5324 14.1951C33.4031 18.0178 28.7846 23.5807 25.1865 24.4425C22.8323 25.0059 20.4547 24.0737 18.4939 22.776C14.7558 20.3013 11.4745 16.4283 6.98274 16.2439C4.255 16.1333 1.49058 17.5919 0 19.9324C1.23382 18.903 3.09455 19.0103 4.48843 19.7581C8.63672 21.988 9.75716 25.3814 12.1614 29.1236C13.6353 31.4172 15.3327 33.5666 17.3768 35.3639L17.3868 35.3706Z" fill="#F4D590"/>
</g>
<defs>
<filter id="filter0_n_2614_1456" x="0" y="0" width="73.5" height="39.5" filterUnits="userSpaceOnUse" color-interpolation-filters="sRGB">
<feFlood flood-opacity="0" result="BackgroundImageFix"/>
<feBlend mode="normal" in="SourceGraphic" in2="BackgroundImageFix" result="shape"/>
<feTurbulence type="fractalNoise" baseFrequency="2 2" stitchTiles="stitch" numOctaves="3" result="noise" seed="7254" />
<feColorMatrix in="noise" type="luminanceToAlpha" result="alphaNoise" />
<feComponentTransfer in="alphaNoise" result="coloredNoise1">
<feFuncA type="discrete" tableValues="0 0 0 0 0 0 0 0 0 0 0 0 0 0 1 1 1 1 1 1 1 1 1 1 1 1 1 1 1 1 1 1 1 1 1 0 0 0 0 0 0 0 0 0 0 0 0 0 0 0 0 0 0 0 0 0 0 0 0 0 0 0 0 0 0 0 0 0 0 0 0 0 0 0 0 0 0 0 0 0 0 0 0 0 0 0 0 0 0 0 0 0 0 0 0 0 0 0 0 0 "/>
</feComponentTransfer>
<feComposite operator="in" in2="shape" in="coloredNoise1" result="noise1Clipped" />
<feFlood flood-color="rgba(197, 117, 100, 0.4)" result="color1Flood" />
<feComposite operator="in" in2="noise1Clipped" in="color1Flood" result="color1" />
<feMerge result="effect1_noise_2614_1456">
<feMergeNode in="shape" />
<feMergeNode in="color1" />
</feMerge>
</filter>
<clipPath id="clip0_2614_1456">
<rect width="73.5" height="39.5" fill="white"/>
</clipPath>
</defs>
</svg>
