<svg width="49" height="27" viewBox="0 0 49 27" fill="none" xmlns="http://www.w3.org/2000/svg">
<g clip-path="url(#clip0_1186_2594)" filter="url(#filter0_n_1186_2594)">
<path d="M20.617 0.608649C23.0377 0.271486 26.6121 0.604213 28.0998 3.20613C29.3526 5.39547 28.1989 9.92942 26.2964 11.2492C24.9625 12.1742 23.2624 12.2097 21.8719 11.4777C21.295 11.1738 20.7364 10.7501 20.4207 10.1157C20.1049 9.48356 20.0968 8.60739 20.534 8.08168C20.8194 7.73786 21.2849 8.28797 21.6654 7.78444C22.4406 6.75299 21.5723 5.37994 20.6231 5.62394C17.8846 6.33154 18.9755 10.078 20.2689 11.5487C21.4023 12.8374 23.4385 14.0752 25.0961 13.6471C26.8874 13.1857 27.9844 11.1782 30.0732 10.9675C31.658 10.8078 33.3217 11.4577 34.3843 12.8219C34.7992 13.3543 35.1271 14.0242 35.1129 14.7384C35.0988 15.4527 34.6474 16.1825 34.0301 16.249C33.4128 16.3155 32.8157 15.4859 33.1072 14.856C33.35 14.7673 33.5929 14.6785 33.8378 14.592C33.3581 14.1306 32.5344 14.4168 32.2631 15.0667C31.9919 15.7144 32.2267 16.5462 32.7145 16.9987C33.2003 17.4512 33.8783 17.5622 34.4936 17.4313C35.6878 17.1762 36.0541 16.2246 36.8455 15.375C37.7219 14.4345 38.7035 14.0929 39.8775 13.6914C40.9016 13.341 41.9764 13.0526 43.0288 13.2589C44.0813 13.463 45.1095 14.2726 45.3727 15.4615C45.4739 15.9185 45.4597 16.3998 45.5589 16.8568C45.8706 18.2986 47.4614 19.1548 48.6232 18.5071C48.773 19.1681 48.2569 19.8291 47.682 19.9955C47.1072 20.1619 46.5041 19.98 45.9272 19.8158C44.4618 19.401 42.9681 19.1149 41.4663 18.9574C40.8632 18.8953 40.2094 18.8664 39.6994 19.2435C39.3128 19.5297 39.0719 20.0088 38.8452 20.4702C38.3858 21.4018 38.0376 22.5996 37.4264 23.3937C35.8092 25.4943 32.8926 25.2326 30.5832 24.3342C28.2738 23.4337 25.9422 22.0517 23.5316 22.4843C22.2767 22.7105 21.1351 23.4137 19.9814 24.0259C17.0325 25.5919 13.792 26.6079 10.5516 26.335C7.31115 26.0622 4.07476 24.3786 2.15397 21.3641C0.233187 18.3496 -0.127087 13.9532 1.68643 10.8522C3.49791 7.74895 7.56618 6.5467 10.2358 8.67393C11.3835 9.59004 12.2396 11.1849 11.9826 12.7642C11.7255 14.3436 10.0274 15.5259 8.83523 14.6896C7.9305 13.9487 8.6389 11.9125 9.73794 12.0944C9.14288 11.9945 8.38388 11.9369 7.95681 12.5225C7.70988 12.8596 7.59856 13.3033 7.52974 13.7402C7.24638 15.537 7.68762 18.2609 9.75008 16.7326C10.3047 16.3222 10.7621 15.7433 11.347 15.3861C11.8915 15.0556 12.5129 14.9381 13.1261 14.8582C13.7941 14.7695 14.549 14.7473 15.0469 15.2663C15.6055 15.8453 15.6035 16.839 15.561 17.7019C15.5529 17.8794 15.5387 18.0701 15.4396 18.2054C15.3444 18.3341 15.1926 18.3851 15.0489 18.4272C14.7312 18.5226 14.3911 18.6158 14.0815 18.496C13.7698 18.3762 13.5249 17.9503 13.6746 17.6154C13.8163 17.5799 13.956 17.5422 14.0977 17.5067C13.7293 17.2139 13.1322 17.5156 13.0674 18.0235C13.0168 18.4272 13.2536 18.811 13.5289 19.0661C14.4357 19.9068 15.8585 19.8003 16.7471 18.933C17.6356 18.0679 17.9736 16.5773 17.6963 15.2774C17.1276 12.6112 14.3992 11.4222 13.5917 9.02218C13.0796 7.50273 13.2435 5.6062 14.0531 4.2642C15.4841 1.89297 18.1335 0.95912 20.6231 0.615303L20.617 0.608649Z" fill="#F4D590"/>
</g>
<defs>
<filter id="filter0_n_1186_2594" x="0.500488" y="0.5" width="48.147" height="25.875" filterUnits="userSpaceOnUse" color-interpolation-filters="sRGB">
<feFlood flood-opacity="0" result="BackgroundImageFix"/>
<feBlend mode="normal" in="SourceGraphic" in2="BackgroundImageFix" result="shape"/>
<feTurbulence type="fractalNoise" baseFrequency="1.7777777910232544 1.7777777910232544" stitchTiles="stitch" numOctaves="3" result="noise" seed="7254" />
<feColorMatrix in="noise" type="luminanceToAlpha" result="alphaNoise" />
<feComponentTransfer in="alphaNoise" result="coloredNoise1">
<feFuncA type="discrete" tableValues="0 0 0 0 0 0 0 0 0 0 0 0 0 0 1 1 1 1 1 1 1 1 1 1 1 1 1 1 1 1 1 1 1 1 1 0 0 0 0 0 0 0 0 0 0 0 0 0 0 0 0 0 0 0 0 0 0 0 0 0 0 0 0 0 0 0 0 0 0 0 0 0 0 0 0 0 0 0 0 0 0 0 0 0 0 0 0 0 0 0 0 0 0 0 0 0 0 0 0 0 "/>
</feComponentTransfer>
<feComposite operator="in" in2="shape" in="coloredNoise1" result="noise1Clipped" />
<feFlood flood-color="rgba(197, 117, 100, 0.4)" result="color1Flood" />
<feComposite operator="in" in2="noise1Clipped" in="color1Flood" result="color1" />
<feMerge result="effect1_noise_1186_2594">
<feMergeNode in="shape" />
<feMergeNode in="color1" />
</feMerge>
</filter>
<clipPath id="clip0_1186_2594">
<rect width="48.1471" height="25.875" fill="white" transform="matrix(-1 0 0 1 48.6475 0.5)"/>
</clipPath>
</defs>
</svg>
