<svg width="56" height="27" viewBox="0 0 56 27" fill="none" xmlns="http://www.w3.org/2000/svg">
<g clip-path="url(#clip0_2614_1454)" filter="url(#filter0_n_2614_1454)">
<path d="M23.3979 0.113424C26.2134 -0.238397 30.3708 0.108795 32.1011 2.82384C33.5583 5.10837 32.2165 9.83944 30.0036 11.2166C28.4522 12.1818 26.4747 12.2189 24.8575 11.455C24.1865 11.1379 23.5368 10.6959 23.1695 10.0339C22.8023 9.3742 22.7929 8.45993 23.3014 7.91137C23.6333 7.5526 24.1748 8.12663 24.6173 7.60121C25.519 6.52491 24.509 5.09216 23.405 5.34677C20.2198 6.08513 21.4887 9.99452 22.993 11.5291C24.3113 12.8739 26.6796 14.1655 28.6076 13.7187C30.691 13.2373 31.9669 11.1426 34.3964 10.9227C36.2397 10.756 38.1748 11.4342 39.4107 12.8577C39.8933 13.4132 40.2746 14.1122 40.2582 14.8575C40.2417 15.6028 39.7167 16.3643 38.9987 16.4338C38.2807 16.5032 37.5862 15.6376 37.9252 14.9802C38.2077 14.8876 38.4902 14.795 38.7751 14.7048C38.2171 14.2233 37.259 14.5219 36.9435 15.2001C36.6281 15.876 36.9012 16.7439 37.4685 17.2161C38.0335 17.6883 38.8221 17.804 39.5378 17.6675C40.9267 17.4013 41.3528 16.4083 42.2733 15.5218C43.2926 14.5404 44.4344 14.184 45.7998 13.765C46.991 13.3993 48.241 13.0984 49.4652 13.3137C50.6893 13.5266 51.8852 14.3715 52.1912 15.6121C52.3089 16.0889 52.2925 16.5912 52.4078 17.068C52.7703 18.5725 54.6207 19.4659 55.972 18.7901C56.1462 19.4798 55.5459 20.1696 54.8773 20.3432C54.2087 20.5168 53.5072 20.327 52.8363 20.1557C51.1319 19.7229 49.3945 19.4243 47.6478 19.2599C46.9462 19.1951 46.1859 19.165 45.5926 19.5585C45.143 19.8571 44.8628 20.3571 44.5992 20.8385C44.0648 21.8106 43.6599 23.0605 42.9489 23.8892C41.068 26.0811 37.6757 25.808 34.9896 24.8706C32.3036 23.9308 29.5916 22.4888 26.7878 22.9402C25.3283 23.1763 24.0006 23.91 22.6587 24.5488C19.2287 26.1829 15.4598 27.243 11.6908 26.9583C7.92186 26.6736 4.15761 24.9169 1.92354 21.7713C-0.310524 18.6257 -0.729557 14.0382 1.37974 10.8023C3.48669 7.56417 8.21848 6.30965 11.3236 8.52937C12.6584 9.48531 13.6542 11.1495 13.3552 12.7975C13.0562 14.4455 11.0811 15.6792 9.69452 14.8066C8.64223 14.0335 9.46617 11.9087 10.7445 12.0985C10.0523 11.9944 9.16955 11.9342 8.67283 12.5452C8.38563 12.8971 8.25615 13.36 8.17611 13.816C7.84653 15.6908 8.35973 18.5331 10.7586 16.9384C11.4036 16.5102 11.9357 15.9061 12.616 15.5334C13.2493 15.1885 13.972 15.0658 14.6853 14.9825C15.4621 14.8899 16.3402 14.8668 16.9193 15.4084C17.5691 16.0125 17.5667 17.0495 17.5173 17.9499C17.5079 18.135 17.4914 18.3341 17.376 18.4753C17.2654 18.6095 17.0888 18.6628 16.9217 18.7067C16.5521 18.8063 16.1566 18.9035 15.7964 18.7785C15.4339 18.6535 15.149 18.2091 15.3232 17.8596C15.488 17.8226 15.6505 17.7832 15.8153 17.7462C15.3868 17.4406 14.6923 17.7554 14.617 18.2855C14.5582 18.7067 14.8336 19.1072 15.1537 19.3733C16.2084 20.2506 17.8633 20.1395 18.8968 19.2345C19.9303 18.3318 20.3234 16.7764 20.0009 15.42C19.3394 12.6378 16.166 11.3972 15.2267 8.89276C14.6311 7.30725 14.8218 5.32826 15.7635 3.92791C17.4278 1.45359 20.5094 0.479134 23.405 0.120368L23.3979 0.113424Z" fill="#F4D590"/>
</g>
<defs>
<filter id="filter0_n_2614_1454" x="0" y="0" width="56" height="27" filterUnits="userSpaceOnUse" color-interpolation-filters="sRGB">
<feFlood flood-opacity="0" result="BackgroundImageFix"/>
<feBlend mode="normal" in="SourceGraphic" in2="BackgroundImageFix" result="shape"/>
<feTurbulence type="fractalNoise" baseFrequency="1.3333333730697632 1.3333333730697632" stitchTiles="stitch" numOctaves="3" result="noise" seed="7254" />
<feColorMatrix in="noise" type="luminanceToAlpha" result="alphaNoise" />
<feComponentTransfer in="alphaNoise" result="coloredNoise1">
<feFuncA type="discrete" tableValues="0 0 0 0 0 0 0 0 0 0 0 0 0 0 1 1 1 1 1 1 1 1 1 1 1 1 1 1 1 1 1 1 1 1 1 0 0 0 0 0 0 0 0 0 0 0 0 0 0 0 0 0 0 0 0 0 0 0 0 0 0 0 0 0 0 0 0 0 0 0 0 0 0 0 0 0 0 0 0 0 0 0 0 0 0 0 0 0 0 0 0 0 0 0 0 0 0 0 0 0 "/>
</feComponentTransfer>
<feComposite operator="in" in2="shape" in="coloredNoise1" result="noise1Clipped" />
<feFlood flood-color="rgba(197, 117, 100, 0.4)" result="color1Flood" />
<feComposite operator="in" in2="noise1Clipped" in="color1Flood" result="color1" />
<feMerge result="effect1_noise_2614_1454">
<feMergeNode in="shape" />
<feMergeNode in="color1" />
</feMerge>
</filter>
<clipPath id="clip0_2614_1454">
<rect width="56" height="27" fill="white" transform="matrix(-1 0 0 1 56 0)"/>
</clipPath>
</defs>
</svg>
