<svg width="24" height="24" viewBox="0 0 24 24" fill="none" xmlns="http://www.w3.org/2000/svg">
<g clip-path="url(#clip0_1483_3665)">
<path d="M19 3C20.1046 3 21 3.89543 21 5V7H19V5H5V19H8V21H5C3.89543 21 3 20.1046 3 19V5C3 3.89543 3.89543 3 5 3H19Z" fill="#A7271D"/>
<path d="M12.3333 18.8958L15 17.3125L17.6875 18.8958L16.9792 15.8958L19.2917 13.9167L16.2292 13.6458L15 10.7917L13.7708 13.6458L10.7083 13.9167L13.0417 15.8958L12.3333 18.8958ZM10.0625 22L11.375 16.4583L7 12.7292L12.75 12.2292L15 7L17.25 12.25L23 12.7292L18.625 16.4583L19.9375 22L15 19.0625L10.0625 22Z" fill="#A7271D"/>
</g>
<defs>
<clipPath id="clip0_1483_3665">
<rect width="24" height="24" fill="white"/>
</clipPath>
</defs>
</svg>
