<svg width="54" height="44" viewBox="0 0 54 44" fill="none" xmlns="http://www.w3.org/2000/svg">
<g opacity="0.5">
<path d="M45.0161 2.26655C46.0398 2.26655 46.8726 3.09934 46.8726 4.12309V17.7832C46.9429 17.8111 47.0132 17.8376 47.0808 17.8376C47.0954 17.8376 47.11 17.8376 47.1233 17.8336C47.2187 17.8151 47.301 17.7594 47.3858 17.7103C47.4535 17.6692 47.5277 17.6254 47.5954 17.5843C47.6683 17.5419 47.72 17.5074 47.7784 17.4796C47.8089 17.4623 47.8354 17.4544 47.8592 17.4544C47.9189 17.4544 47.9627 17.5008 48.0131 17.5512C48.1815 17.7222 48.4905 18.0219 48.6509 18.1917C48.7146 18.2567 48.7172 18.3084 48.6814 18.3787C48.6523 18.4383 48.6191 18.4887 48.578 18.5603C48.5276 18.6426 48.4719 18.7367 48.4215 18.8203C48.3831 18.8879 48.3446 18.9515 48.3287 19.0258C48.3022 19.1372 48.3658 19.2605 48.4109 19.3693C48.452 19.4687 48.4918 19.5642 48.5899 19.6172C48.639 19.6451 48.704 19.665 48.7835 19.6849C48.9082 19.7167 49.0501 19.7512 49.1747 19.783C49.3087 19.8215 49.3922 19.8228 49.3869 20.0005C49.3896 20.2524 49.3869 20.5322 49.3882 20.7829C49.3856 20.8638 49.3975 21.003 49.3538 21.0415H49.3524C49.3272 21.0773 49.2238 21.1025 49.1509 21.121C49.0355 21.1502 48.9042 21.1834 48.7875 21.2125C48.6058 21.2563 48.4984 21.3027 48.4268 21.491C48.3791 21.6117 48.2995 21.7509 48.3287 21.8743C48.3552 21.9817 48.4202 22.0732 48.4759 22.1687C48.5435 22.284 48.639 22.4312 48.6907 22.54C48.7278 22.6142 48.6894 22.6673 48.6337 22.7256C48.5846 22.7773 48.509 22.8503 48.4268 22.9338C48.2995 23.0624 48.1417 23.2176 48.0224 23.3383C47.9693 23.3913 47.9202 23.443 47.8579 23.443C47.8394 23.443 47.8195 23.4377 47.7969 23.4271C47.594 23.3303 47.3911 23.1672 47.1776 23.0797C47.1445 23.0664 47.1127 23.0611 47.0808 23.0611C46.9787 23.0611 46.8779 23.1142 46.7811 23.1526C46.6604 23.2017 46.5756 23.2468 46.5278 23.3568C46.5013 23.4258 46.4775 23.5054 46.4576 23.5863V25.8141C46.4761 25.8035 46.4973 25.7916 46.5146 25.781C46.5636 25.7544 46.5981 25.7398 46.6286 25.7398C46.6604 25.7398 46.687 25.7544 46.7201 25.7836C46.8992 25.9533 47.5503 26.6111 47.7611 26.8219C47.8447 26.8909 47.8407 26.9718 47.7876 27.054C47.6855 27.2463 47.423 27.6335 47.3209 27.8643C47.2572 28.038 47.411 28.2236 47.5237 28.3403C47.5768 28.3867 47.6431 28.4 47.7134 28.4C47.7333 28.4 47.7532 28.4 47.773 28.3973C47.9919 28.3708 48.3976 28.3032 48.5833 28.2793C48.6072 28.2753 48.6297 28.2727 48.6509 28.2727C48.7186 28.2727 48.7729 28.2966 48.8021 28.3748C48.9718 28.7726 49.1575 29.2288 49.3259 29.6359C49.4134 29.8375 49.4148 29.8561 49.2185 29.9993C49.0315 30.1425 48.7756 30.3202 48.6032 30.4621C48.4494 30.5854 48.4759 30.73 48.513 30.8917C48.5369 31.0151 48.5939 31.1198 48.7199 31.1596C48.9705 31.2392 49.4201 31.3347 49.6004 31.3904C49.6601 31.4102 49.6946 31.4235 49.7158 31.4765C49.7489 31.7285 49.7158 32.3703 49.7277 32.8066C49.7251 32.987 49.7383 33.0864 49.6985 33.1302L49.6919 33.1382C49.4837 33.2456 49.0143 33.3079 48.7424 33.4007C48.6098 33.4365 48.5329 33.5453 48.513 33.6765C48.4812 33.8198 48.4573 33.9603 48.5541 34.0585C48.696 34.203 49.0063 34.4019 49.1734 34.5359C49.3153 34.6406 49.4386 34.7029 49.3511 34.8714C49.2039 35.1923 48.9042 36.0171 48.7636 36.2571C48.7411 36.285 48.7106 36.2956 48.6629 36.2956C48.6244 36.2956 48.5753 36.289 48.5104 36.2797C48.3884 36.2611 48.2213 36.2373 48.0847 36.216C47.9454 36.1908 47.834 36.1709 47.7412 36.1709C47.5476 36.1709 47.4349 36.2545 47.3155 36.5383C47.2797 36.643 47.3288 36.7505 47.4322 36.9162C47.545 37.1072 47.6961 37.3525 47.7969 37.5315C47.8486 37.6297 47.8367 37.6681 47.7611 37.7463C47.5503 37.9585 46.8992 38.6149 46.7201 38.7847C46.687 38.8139 46.6551 38.8245 46.622 38.8245C46.5225 38.8245 46.4178 38.7184 46.3024 38.6627C46.0863 38.5566 45.8197 38.3099 45.5969 38.3099C45.5372 38.3099 45.4815 38.3272 45.4298 38.3683C45.2402 38.481 45.1248 38.5752 45.1819 38.8563C45.2137 39.0645 45.2495 39.3085 45.28 39.5114C45.2999 39.6546 45.3078 39.7222 45.2574 39.7647C45.2177 39.7978 45.1381 39.8257 45.024 39.8747C44.6779 40.0166 44.2841 40.1824 43.934 40.3256C43.8531 40.3614 43.8014 40.3826 43.7589 40.3826C43.6966 40.3826 43.6555 40.3362 43.5693 40.2195C43.4248 40.0299 43.2524 39.7806 43.1065 39.6029C43.0349 39.5127 42.954 39.4835 42.8665 39.4835C42.7989 39.4835 42.7286 39.4995 42.6556 39.518C42.5283 39.5432 42.4355 39.6162 42.401 39.7421C42.3307 39.9742 42.2246 40.4635 42.1729 40.6187C42.1517 40.7009 42.0881 40.7274 42.0085 40.7274C42.0058 40.7274 42.0045 40.7274 42.0019 40.7274C41.909 40.7274 41.7539 40.7274 41.5788 40.7274C41.2274 40.7274 40.7885 40.7274 40.5869 40.7274C40.5763 40.7274 40.5657 40.7287 40.5564 40.7287C40.4079 40.7287 40.388 40.616 40.3522 40.4622C40.2978 40.2633 40.2249 39.9145 40.1599 39.7196C40.1161 39.6016 40.0472 39.5538 39.9345 39.5233C39.8602 39.5061 39.7793 39.4849 39.7011 39.4849C39.6507 39.4849 39.6029 39.4942 39.5579 39.518C39.3377 39.6984 39.0805 40.1413 38.928 40.3097C38.8948 40.3574 38.8537 40.3813 38.806 40.3813C38.7834 40.3813 38.7595 40.376 38.733 40.3654C38.4917 40.2686 37.6947 39.9357 37.4096 39.8177C37.2505 39.7687 37.2637 39.6652 37.2902 39.5114C37.3154 39.3045 37.3857 38.9279 37.4003 38.7237C37.4096 38.5738 37.3274 38.4903 37.2146 38.4174C37.1205 38.3511 37.0369 38.3046 36.9494 38.3046C36.9083 38.3046 36.8672 38.3153 36.8234 38.3378C36.6113 38.4426 36.224 38.7011 36.0198 38.8059C35.9933 38.8205 35.9681 38.8271 35.9456 38.8271C35.8594 38.8271 35.797 38.7343 35.7228 38.664C35.5968 38.5354 35.4257 38.3696 35.2878 38.2277L34.8688 37.8087C34.7256 37.6668 34.7017 37.6442 34.8025 37.4758C34.8237 37.4413 34.8462 37.4029 34.8674 37.3671C34.7826 37.4082 34.6884 37.4334 34.589 37.4334H29.0193C28.6533 37.4334 28.3563 37.1363 28.3563 36.7703V23.1115H26.8976V36.7703C26.8976 37.1363 26.6005 37.4334 26.2345 37.4334H24.2454C23.8794 37.4334 23.5823 37.1363 23.5823 36.7703V23.1115H22.1236V36.7703C22.1236 37.1363 21.8266 37.4334 21.4606 37.4334H19.4714C19.1054 37.4334 18.8084 37.1363 18.8084 36.7703V27.8855H18.5432V36.7703C18.5432 37.1363 18.2461 37.4334 17.8801 37.4334H15.891C15.525 37.4334 15.2279 37.1363 15.2279 36.7703V36.2558C14.5715 36.9785 13.626 37.4334 12.5757 37.4334H8.33219C7.96618 37.4334 7.66914 37.1363 7.66914 36.7703L7.7129 20.828C7.45033 21.0786 7.08698 21.2245 6.70241 21.2245C6.43852 21.2245 6.18391 21.1542 5.9651 21.0229C5.40018 20.6808 5.13496 19.9938 5.32327 19.352C5.3909 19.1213 5.47046 18.9011 5.54738 18.689C5.58053 18.5961 5.61501 18.5033 5.64684 18.4092C5.7264 18.1784 5.80995 17.949 5.89482 17.7196C5.72905 17.5803 5.60705 17.392 5.55799 17.1746C5.4466 16.6958 5.64418 16.2357 6.05925 16.0023C6.10567 15.9771 6.1733 15.9386 6.26347 15.9095C6.42791 15.8445 6.57643 15.7861 6.72893 15.7304C6.81115 15.5488 6.90133 15.3591 7.00211 15.1536C6.48891 15.1363 6.0818 14.7597 6.00223 14.228C5.92797 13.7373 6.22369 13.2586 6.70506 13.0915L7.06178 12.9655C7.28324 12.8873 7.50868 12.8077 7.73544 12.7308L7.75268 5.80193V2.9296C7.75268 2.56227 8.04973 2.26655 8.41573 2.26655H10.4049C10.4752 2.26655 10.5401 2.27981 10.6038 2.2997C10.6675 2.27981 10.7324 2.26655 10.8027 2.26655H12.6261C12.8661 2.26655 13.0863 2.39518 13.2043 2.60338L14.9136 5.63882V2.9296C14.9136 2.56227 15.2107 2.26655 15.5767 2.26655H17.5658C17.6361 2.26655 17.7011 2.27981 17.7647 2.2997C17.8284 2.27981 17.8934 2.26655 17.9637 2.26655H24.7268C24.9641 2.26655 25.171 2.3912 25.2877 2.57951C25.5834 2.38192 25.9375 2.26655 26.3181 2.26655H29.5007C29.8813 2.26655 30.2354 2.38192 30.5311 2.57951C30.6478 2.3912 30.8547 2.26655 31.092 2.26655H32.9154C33.1555 2.26655 33.3756 2.39518 33.4936 2.60338L35.0332 5.33779L35.2029 5.33514V2.9296C35.2029 2.56227 35.5 2.26655 35.866 2.26655H37.8551C37.9254 2.26655 37.9904 2.27981 38.0541 2.2997C38.1177 2.27981 38.1827 2.26655 38.253 2.26655H40.2421C40.4795 2.26655 40.6864 2.3912 40.8031 2.57951C41.0988 2.38192 41.4529 2.26655 41.8334 2.26655H45.0161ZM10.9844 34.1181H12.5757C12.7216 34.1181 12.8409 33.9988 12.8409 33.8529V23.1115H10.9844V34.1181ZM31.6715 34.1181H33.9577C34.146 33.9524 34.0917 33.7521 34.0108 33.5413C33.9577 33.4233 33.8079 33.3901 33.5652 33.3318C33.3849 33.2867 33.1528 33.2297 32.987 33.1846C32.8796 33.1527 32.8504 33.1249 32.8438 33.0374C32.8359 32.6979 32.8438 31.8001 32.8438 31.5322C32.8412 31.4421 32.9088 31.4036 32.987 31.3837C33.2111 31.3121 33.6965 31.2339 33.9259 31.1212C34.0797 31.0164 34.15 30.6172 34.0002 30.4939C33.8503 30.3547 33.5599 30.1637 33.3955 30.0338C33.2536 29.929 33.1303 29.8667 33.2178 29.6982C33.3358 29.4118 33.6647 28.6135 33.7668 28.3748C33.7907 28.3045 33.8437 28.2727 33.91 28.2727C33.9206 28.2727 33.9325 28.2727 33.9432 28.2753C34.1248 28.2926 34.6221 28.3828 34.8462 28.4C34.8555 28.4 34.8635 28.4 34.8714 28.4C34.9311 28.4 34.9828 28.3801 35.0279 28.3483C34.8436 28.2568 34.7057 28.0844 34.6672 27.8762C34.6407 27.8788 34.6155 27.8841 34.589 27.8841H31.6715V34.1168M41.8334 2.00133C41.4926 2.00133 41.1611 2.08222 40.8601 2.2387C40.693 2.08752 40.4742 2.00133 40.2421 2.00133H38.253C38.188 2.00133 38.1217 2.00928 38.0541 2.0252C37.9864 2.00928 37.9201 2.00133 37.8551 2.00133H35.866C35.3541 2.00133 34.9377 2.41772 34.9377 2.9296V4.627L33.7243 2.47209C33.5599 2.18035 33.2496 2 32.9154 2H31.092C30.8586 2 30.6412 2.0862 30.4741 2.23737C30.1744 2.08222 29.8415 2 29.5007 2H26.3181C25.9773 2 25.6457 2.08089 25.3447 2.23737C25.1776 2.0862 24.9588 2 24.7268 2H17.9637C17.8987 2 17.8324 2.00796 17.7647 2.02387C17.6971 2.00796 17.6308 2 17.5658 2H15.5767C15.0648 2 14.6484 2.4164 14.6484 2.92827V4.62568L13.435 2.47342C13.2693 2.18168 12.9603 2.00133 12.6261 2.00133H10.8027C10.7377 2.00133 10.6714 2.00928 10.6038 2.0252C10.5362 2.00928 10.4699 2.00133 10.4049 2.00133H8.41573C7.90386 2.00133 7.48746 2.41772 7.48746 2.9296V5.80325L7.47155 12.5425C7.30446 12.6008 7.1387 12.6592 6.97426 12.7162L6.61754 12.8422C6.01682 13.0517 5.64816 13.6511 5.74099 14.2691C5.81923 14.7889 6.15871 15.1934 6.61356 15.3498C6.58571 15.4082 6.55919 15.4652 6.534 15.5209C6.40802 15.5687 6.28734 15.6164 6.1733 15.6615C6.06456 15.6986 5.98234 15.7437 5.93327 15.7715C5.40946 16.0659 5.16281 16.6401 5.30072 17.2369C5.34846 17.4438 5.4466 17.6321 5.58849 17.7912C5.52749 17.9596 5.46118 18.1426 5.39753 18.3243C5.3657 18.4158 5.33255 18.5073 5.2994 18.5988C5.21983 18.8176 5.13894 19.0404 5.06998 19.2791C4.84985 20.0363 5.16148 20.8465 5.82984 21.251C6.08975 21.4088 6.3921 21.491 6.70506 21.491C6.96365 21.491 7.21959 21.4327 7.44901 21.3266L7.40657 36.7717C7.40657 37.2849 7.82297 37.7013 8.33484 37.7013H12.5784C13.4496 37.7013 14.293 37.4016 14.9693 36.8645C15.0157 37.3339 15.4122 37.7013 15.8936 37.7013H17.8828C18.2196 37.7013 18.5153 37.5209 18.6784 37.2504C18.8415 37.5196 19.1372 37.7013 19.4741 37.7013H21.4632C21.9751 37.7013 22.3915 37.2849 22.3915 36.773V23.3794H23.3198V36.773C23.3198 37.2849 23.7362 37.7013 24.248 37.7013H26.2372C26.7491 37.7013 27.1655 37.2849 27.1655 36.773V23.3794H28.0937V36.773C28.0937 37.2849 28.5101 37.7013 29.022 37.7013H34.4869C34.5094 37.814 34.5876 37.9042 34.6831 37.9983L35.1035 38.4187C35.1764 38.4943 35.2613 38.5791 35.3448 38.6614C35.4138 38.729 35.4801 38.7953 35.5371 38.8536L35.5451 38.8616C35.5583 38.8749 35.5716 38.8881 35.5849 38.9027C35.6538 38.9756 35.7705 39.0976 35.9509 39.0976C36.0185 39.0976 36.0848 39.0804 36.1485 39.0459C36.2532 38.9916 36.3911 38.908 36.537 38.8192C36.6882 38.7263 36.8447 38.6322 36.9454 38.5818C36.9561 38.5765 36.9587 38.5752 36.9587 38.5752C36.9587 38.5752 36.9866 38.5831 37.0661 38.6401L37.0741 38.6454C37.1298 38.6813 37.1391 38.6985 37.1391 38.6985C37.1391 38.6985 37.1391 38.7038 37.1391 38.7131C37.1311 38.8245 37.1019 39.0114 37.0754 39.1759C37.0582 39.2873 37.0409 39.3934 37.0303 39.4782C37.0051 39.6254 36.9547 39.9517 37.3207 40.0723L37.6483 40.2089C38.009 40.3588 38.4572 40.5457 38.6336 40.616C38.6906 40.6399 38.7503 40.6532 38.8073 40.6532C38.9372 40.6532 39.0539 40.5922 39.1362 40.4821C39.2011 40.4078 39.2727 40.307 39.355 40.1917C39.4624 40.0405 39.5923 39.8549 39.6984 39.7554C39.6984 39.7554 39.7011 39.7554 39.7037 39.7554C39.7409 39.7554 39.7952 39.7687 39.8483 39.7806L39.8722 39.7859C39.8934 39.7925 39.9026 39.7965 39.9066 39.7978C39.9066 39.7978 39.9093 39.8031 39.9133 39.8137C39.9504 39.9251 39.9928 40.1028 40.03 40.2593C40.0538 40.3614 40.0777 40.4569 40.0976 40.5338L40.1002 40.5471C40.1347 40.6943 40.205 41.0006 40.5577 41.0006C40.571 41.0006 40.5843 41.0006 40.5989 40.9993H41.5802C41.7565 40.9993 41.9117 40.9993 42.0045 40.9993C42.2207 40.9993 42.3771 40.8879 42.4289 40.7009C42.458 40.6107 42.4965 40.4556 42.5403 40.2766C42.5814 40.1081 42.6238 39.9344 42.657 39.8257V39.8217L42.6596 39.8177C42.6636 39.8031 42.6662 39.7925 42.71 39.7832H42.7153L42.7206 39.7806C42.7763 39.7673 42.8333 39.7541 42.8705 39.7541C42.8824 39.7541 42.8864 39.7554 42.8864 39.7554C42.8864 39.7554 42.8917 39.7594 42.9036 39.7726C42.9925 39.88 43.0906 40.0153 43.1861 40.1466C43.2471 40.2301 43.3067 40.3124 43.3624 40.3853C43.4486 40.502 43.5587 40.6518 43.7629 40.6518C43.8624 40.6518 43.9512 40.6134 44.0441 40.5736C44.2204 40.502 44.414 40.4211 44.6076 40.3402C44.7853 40.2659 44.963 40.193 45.1301 40.1241C45.1606 40.1108 45.1845 40.1015 45.207 40.0909C45.2985 40.0524 45.3715 40.0219 45.4325 39.9715C45.5969 39.8323 45.5704 39.644 45.5479 39.4782L45.5107 39.2303C45.4895 39.0923 45.4683 38.9491 45.4497 38.8205V38.8139L45.4471 38.8072C45.4312 38.7277 45.4723 38.6587 45.5704 38.6004L45.5863 38.5911L45.6009 38.5791C45.6712 38.5791 45.829 38.6826 45.9338 38.7515C46.0173 38.8059 46.1035 38.8629 46.1897 38.9054C46.2149 38.9173 46.2454 38.9385 46.2785 38.9597C46.3687 39.0194 46.4814 39.095 46.626 39.095C46.7254 39.095 46.8209 39.0579 46.8992 38.9889L46.9071 38.9809C47.0742 38.8218 47.6298 38.2635 47.8964 37.9957L47.9547 37.9373C48.0648 37.8246 48.1696 37.6641 48.0369 37.4122V37.4095L48.033 37.4069C47.9667 37.2888 47.8791 37.1443 47.7956 37.0051C47.7505 36.9295 47.7054 36.8552 47.6656 36.7876C47.602 36.6868 47.5821 36.6417 47.5768 36.6205C47.655 36.4415 47.6908 36.4415 47.7479 36.4415C47.8181 36.4415 47.9189 36.4587 48.0422 36.4826H48.0502C48.1298 36.4945 48.2186 36.5078 48.3048 36.521C48.3658 36.5303 48.4255 36.5383 48.4772 36.5462C48.5594 36.5582 48.6151 36.5648 48.6695 36.5648C48.7995 36.5648 48.9029 36.5197 48.9758 36.4295L48.9891 36.4136L48.9997 36.3964C49.0952 36.2346 49.2384 35.8739 49.3776 35.5251C49.4625 35.3143 49.5421 35.114 49.5964 34.992C49.7741 34.6406 49.497 34.4417 49.3776 34.3555C49.3657 34.3476 49.3538 34.3383 49.3418 34.3303C49.2769 34.2786 49.196 34.2202 49.1111 34.1592C48.9811 34.0651 48.8326 33.959 48.757 33.8834C48.7544 33.8489 48.7716 33.7667 48.7782 33.7376V33.7283L48.7809 33.719C48.7888 33.6673 48.8101 33.662 48.8167 33.6593L48.8326 33.654C48.9334 33.6195 49.0779 33.5877 49.2172 33.5559C49.4479 33.5042 49.6667 33.4551 49.8179 33.3769L49.8656 33.353L49.9001 33.3119L49.9041 33.3066C49.9996 33.1978 49.9982 33.0639 49.9969 32.9233C49.9969 32.8915 49.9969 32.8544 49.9969 32.8133V32.8026C49.9916 32.6289 49.9943 32.4194 49.9969 32.2152C50.0009 31.8916 50.0049 31.6131 49.9823 31.4447L49.9784 31.4116L49.9664 31.3811C49.8988 31.2113 49.7622 31.1662 49.6879 31.1424C49.5951 31.1132 49.4625 31.0814 49.31 31.0442C49.135 31.0018 48.936 30.9527 48.8048 30.9116C48.8008 30.9103 48.7875 30.8957 48.7782 30.8467V30.8427L48.7769 30.8387C48.769 30.8055 48.7491 30.7154 48.7557 30.6928C48.7557 30.6928 48.7597 30.6862 48.7743 30.6743C48.8764 30.5894 49.0116 30.4913 49.1416 30.3958C49.2278 30.3334 49.3113 30.2711 49.3856 30.2154C49.6734 30.0059 49.7158 29.8587 49.5752 29.5365L49.44 29.2076C49.3113 28.896 49.1787 28.575 49.0554 28.282C48.9917 28.1136 48.8432 28.0128 48.6589 28.0128C48.6257 28.0128 48.5913 28.0154 48.5528 28.0221C48.4679 28.0327 48.3406 28.0526 48.2067 28.0725C48.0409 28.0976 47.8699 28.1242 47.7532 28.1388C47.7425 28.1388 47.7306 28.1401 47.72 28.1401C47.7107 28.1401 47.7054 28.1401 47.7001 28.1401C47.5967 28.0287 47.5808 27.9743 47.5781 27.9597C47.6365 27.8351 47.7479 27.6521 47.8473 27.4903C47.9149 27.3789 47.9799 27.2741 48.0237 27.1932C48.1444 26.997 48.1152 26.7795 47.9481 26.6336C47.8964 26.5819 47.8221 26.5077 47.7359 26.4201C47.4455 26.1284 47.0477 25.7279 46.9098 25.5979L46.8992 25.59C46.8753 25.5701 46.8169 25.5197 46.7294 25.4958V23.6274C46.7453 23.5677 46.7626 23.512 46.7798 23.4669C46.7851 23.4563 46.7984 23.443 46.8885 23.4059C46.9071 23.3993 46.9296 23.39 46.9509 23.3807C46.9986 23.3608 47.0596 23.3356 47.0875 23.3356C47.1816 23.3741 47.2837 23.4364 47.3911 23.504C47.4866 23.5637 47.5861 23.626 47.6895 23.6751C47.7439 23.7016 47.8036 23.7162 47.8646 23.7162C48.0343 23.7162 48.1457 23.6061 48.2107 23.5398L48.216 23.5345C48.277 23.4735 48.3459 23.4046 48.4149 23.3356C48.4852 23.2653 48.5568 23.1937 48.6204 23.1301C48.6562 23.0929 48.6907 23.0598 48.7225 23.028C48.765 22.9855 48.8034 22.9484 48.8313 22.9179C48.9811 22.7601 49.0156 22.597 48.9334 22.4312C48.8936 22.3463 48.8326 22.2456 48.7729 22.1488C48.7504 22.113 48.7292 22.0772 48.7106 22.044C48.6987 22.0241 48.6867 22.0042 48.6748 21.9843C48.639 21.926 48.6058 21.8716 48.5926 21.8252C48.5926 21.796 48.6257 21.7204 48.6456 21.6753C48.6576 21.6488 48.6682 21.6223 48.6788 21.5971C48.7066 21.5242 48.7106 21.5136 48.8551 21.4791C48.9745 21.4499 49.1058 21.4154 49.2212 21.3863L49.2291 21.3836C49.3418 21.3544 49.4678 21.3226 49.55 21.2324C49.6574 21.1224 49.6574 20.9632 49.6574 20.8465C49.6574 20.8293 49.6574 20.8134 49.6574 20.8001V20.7895C49.6574 20.6821 49.6574 20.5694 49.6574 20.4567C49.6574 20.3055 49.6574 20.1543 49.6574 20.0111C49.6654 19.6477 49.4028 19.5775 49.2901 19.547L49.2543 19.5363H49.2503L49.2463 19.5337C49.1827 19.5178 49.1151 19.5005 49.0474 19.4833C48.9811 19.4674 48.9161 19.4501 48.8538 19.4356C48.7875 19.4196 48.7451 19.4051 48.7252 19.3945C48.7053 19.3838 48.6788 19.3189 48.6602 19.2764L48.6416 19.2313C48.6231 19.1876 48.5926 19.116 48.5926 19.0894C48.5992 19.0616 48.6218 19.0218 48.6483 18.9754L48.6549 18.9635L48.7106 18.872C48.7438 18.8163 48.7769 18.7606 48.8087 18.7089V18.7062L48.8127 18.7036C48.826 18.681 48.8379 18.6611 48.8485 18.6426C48.875 18.5988 48.9002 18.5564 48.9241 18.5073C49.0116 18.3349 48.9838 18.1599 48.8445 18.018C48.7464 17.9132 48.5926 17.762 48.4441 17.6148C48.3552 17.526 48.2703 17.4424 48.2067 17.3775L48.1947 17.3655C48.1324 17.3045 48.029 17.2024 47.8632 17.2024C47.7956 17.2024 47.7266 17.221 47.6603 17.2568C47.6126 17.2806 47.5702 17.3058 47.5264 17.3324C47.5078 17.343 47.4879 17.3549 47.4667 17.3682C47.4283 17.3907 47.3925 17.4119 47.358 17.4332C47.3222 17.4544 47.2877 17.4756 47.2532 17.4955L47.2161 17.5167C47.1909 17.5313 47.1657 17.5472 47.1418 17.5591V4.12309C47.1418 2.95347 46.1897 2.00133 45.0201 2.00133H41.8334ZM11.2496 23.3767H12.5757V33.8529H11.2496V23.3767ZM31.9368 28.1507H33.5931C33.5626 28.1878 33.5374 28.2303 33.5201 28.278C33.4167 28.5193 33.1143 29.254 32.9844 29.5709L32.9778 29.5882C32.8054 29.9356 33.0812 30.1345 33.1992 30.2194C33.2111 30.2274 33.2231 30.2366 33.235 30.2459C33.3 30.2976 33.3809 30.3547 33.4658 30.417C33.5904 30.5072 33.7323 30.6093 33.8158 30.6849C33.8304 30.7353 33.8092 30.8506 33.7774 30.8997C33.6514 30.9527 33.4313 31.0031 33.2523 31.0442C33.125 31.0734 33.0056 31.1013 32.9141 31.1304C32.6025 31.214 32.5786 31.4553 32.5786 31.5362C32.5786 31.6078 32.5786 31.7245 32.5786 31.8638C32.5773 32.2563 32.5746 32.7934 32.5799 33.0453V33.0586C32.6011 33.3477 32.8279 33.4153 32.9128 33.4405C33.0586 33.4803 33.2416 33.5254 33.4048 33.5665L33.5029 33.5904L33.5241 33.5957C33.6183 33.6182 33.7323 33.646 33.7761 33.6673C33.8119 33.7641 33.8225 33.8198 33.8212 33.8542H31.9381V28.152L31.9368 28.1507Z" fill="white"/>
<path d="M9.35989 12.1234C9.43946 12.1234 9.52035 12.1313 9.60124 12.1486C9.67551 12.126 9.98581 12.0372 10.0667 12.0133C10.1502 11.9894 10.2669 11.9603 10.4049 11.9284V2.92818H8.41571V12.5093C8.46212 12.4947 8.50854 12.4801 8.55363 12.4655C8.77508 12.244 9.05754 12.122 9.35989 12.122V12.1234Z" fill="white"/>
<path d="M12.5756 11.5214C12.5624 11.4538 12.5531 11.3822 12.5478 11.3066C12.5319 11.0268 12.6247 10.7722 12.7905 10.5839V7.27525L15.5753 10.495V10.9021C15.9134 11.0387 16.1627 11.3344 16.241 11.6938C16.3179 12.0519 16.2158 12.4205 15.9651 12.6831C15.8378 12.8157 15.7066 12.9297 15.5753 13.0372V13.4151L15.8922 13.9349C15.8922 13.9349 15.928 13.9588 15.9426 13.9694C16.2808 13.7877 16.6176 13.6246 16.9319 13.4734C17.1387 13.374 17.3496 13.2812 17.5631 13.1923V2.92829H15.5739V8.16506L12.626 2.92829H10.8026V11.8423C11.3503 11.7296 12.0001 11.6129 12.2521 11.5692C12.3595 11.5387 12.4682 11.5227 12.5756 11.5201V11.5214Z" fill="white"/>
<path d="M20.7802 12.329C20.9486 12.329 21.1024 12.3489 21.251 12.3887C21.6488 12.4961 21.9644 12.7719 22.1169 13.1446C22.2429 13.4535 22.2416 13.789 22.1209 14.0954C22.1434 14.0702 22.1673 14.0437 22.1885 14.0211C22.2376 13.9667 22.2893 13.911 22.341 13.854V4.91744H24.728V2.92829H17.9649V4.91744H20.3519V12.3648C20.389 12.3595 20.4261 12.3529 20.4633 12.3489C20.5813 12.3356 20.6821 12.329 20.7802 12.329Z" fill="white"/>
<path d="M32.5666 12.4855C32.0773 12.703 31.5773 12.9046 31.0907 13.0995V18.868H33.0798V12.0996C32.9432 12.2614 32.7682 12.3953 32.5666 12.4855Z" fill="white"/>
<path d="M35.866 8.16639L32.9154 2.92962H31.092V10.0614L31.2605 9.9964C31.4726 9.91551 31.7299 9.83197 32.0322 9.83197C32.0535 9.83197 32.076 9.83197 32.0972 9.83197C32.4924 9.84788 32.8425 10.0269 33.0812 10.3067V7.27392L35.866 10.4937V18.8654H37.8551V2.92829H35.866V8.16639Z" fill="white"/>
<path d="M40.2421 2.92829H38.2529V18.8667H40.2421V2.92829Z" fill="white"/>
<path d="M26.1271 10.6051C26.2411 10.5719 26.3592 10.556 26.4772 10.556C26.7013 10.556 26.9201 10.6183 27.1137 10.7297V9.69273H28.705V11.0188C28.8655 10.9485 29.0312 10.8769 29.2036 10.8027C29.6505 10.6104 30.1014 10.438 30.5205 10.2802C30.5788 10.259 30.6358 10.2364 30.6942 10.2139V4.12178C30.6942 3.46404 30.1584 2.92829 29.5007 2.92829H26.318C25.6603 2.92829 25.1246 3.46404 25.1246 4.12178V11.235C25.3129 11.0838 25.4826 10.9525 25.6497 10.8318C25.7889 10.7311 25.9454 10.6568 26.1271 10.6051ZM27.1137 4.91744H28.705V7.70225H27.1137V4.91744Z" fill="white"/>
<path d="M30.3348 13.4072C30.3348 13.4072 30.3229 13.4125 30.3176 13.4151C30.1545 13.9654 30.0218 14.4694 29.9158 14.9507C29.7699 15.6045 29.6691 16.2729 29.5988 16.7834C29.5604 17.0566 29.5299 17.3404 29.4994 17.6149L29.4543 18.018C29.4264 18.2567 29.4012 18.4835 29.384 18.7102C29.38 18.7633 29.3774 18.8163 29.3734 18.868H30.6942V13.26C30.6398 13.2825 30.5841 13.3037 30.5297 13.3263C30.4648 13.3528 30.3998 13.3806 30.3361 13.4072H30.3348Z" fill="white"/>
<path d="M45.016 2.92829H41.8333C41.1756 2.92829 40.6399 3.46404 40.6399 4.12178V18.8667H42.629V9.6914H44.2203V18.8667H46.2095V4.12178C46.2095 3.46404 45.6737 2.92829 45.016 2.92829ZM44.2203 7.70225H42.629V4.91744H44.2203V7.70225Z" fill="white"/>
<path d="M39.3629 20.4619H35.3183V21.788H38.6998C38.8099 21.788 38.8987 21.8769 38.8987 21.9869V22.65C38.8987 22.7601 38.8099 22.8489 38.6998 22.8489H36.1802C35.7055 22.8489 35.3183 23.2361 35.3183 23.7109V27.7555H40.2248V26.4294H36.6444V24.3739C36.6444 24.2638 36.7332 24.175 36.8433 24.175H39.3629C39.8376 24.175 40.2248 23.7878 40.2248 23.313V21.3239C40.2248 20.8491 39.8376 20.4619 39.3629 20.4619Z" fill="white"/>
<path d="M40.888 21.3239V26.8935C40.888 27.3682 41.2752 27.7555 41.75 27.7555H44.9326C45.4074 27.7555 45.7946 27.3682 45.7946 26.8935V20.4619H41.75C41.2752 20.4619 40.888 20.8491 40.888 21.3239ZM42.2141 26.2305V21.9869C42.2141 21.8769 42.303 21.788 42.413 21.788H44.4685V26.2305C44.4685 26.3405 44.3796 26.4294 44.2696 26.4294H42.413C42.303 26.4294 42.2141 26.3405 42.2141 26.2305Z" fill="white"/>
<path d="M39.3629 29.4224H35.3183V30.7485H38.6998C38.8099 30.7485 38.8987 30.8373 38.8987 30.9474V31.6105C38.8987 31.7205 38.8099 31.8094 38.6998 31.8094H36.1802C35.7055 31.8094 35.3183 32.1966 35.3183 32.6713V36.7159H40.2248V35.3898H36.6444V33.3344C36.6444 33.2243 36.7332 33.1355 36.8433 33.1355H39.3629C39.8376 33.1355 40.2248 32.7483 40.2248 32.2735V30.2844C40.2248 29.8096 39.8376 29.4224 39.3629 29.4224Z" fill="white"/>
<path d="M41.2857 30.2844V32.2735C41.2857 32.7483 41.6425 33.1355 42.0814 33.1355H44.3915C44.4896 33.1355 44.5678 33.2243 44.5678 33.3344V35.3898H41.2857V36.7159H45.7945V32.6713C45.7945 32.1966 45.4378 31.8094 44.9988 31.8094H42.6888C42.5906 31.8094 42.5124 31.7205 42.5124 31.6105V30.9474C42.5124 30.8373 42.5919 30.7485 42.6888 30.7485H45.7945V29.4224H42.0814C41.6425 29.4224 41.2857 29.8096 41.2857 30.2844Z" fill="white"/>
<path d="M13.4882 14.2692C13.3198 14.2599 13.1965 14.3341 13.1289 14.4986C13.0546 14.6816 12.9697 14.858 12.8729 15.029C12.7748 15.2041 12.6899 15.3857 12.5971 15.5634C12.5719 15.6098 12.5454 15.6616 12.5666 15.712C12.613 15.8207 12.5759 15.9149 12.5348 16.0117C12.5016 16.0886 12.4751 16.1695 12.4446 16.2477C12.2019 16.8776 11.9898 17.5168 11.8333 18.1732C11.7338 18.5869 11.6582 19.0047 11.6649 19.5046C11.6635 19.5815 11.6649 19.7287 11.6887 19.8759C11.7259 20.1093 11.7922 20.3308 11.9301 20.5244C12.0375 20.6756 12.19 20.7564 12.3796 20.7697C12.6382 20.7869 12.8265 20.6689 12.975 20.47C13.1461 20.2393 13.2323 19.9727 13.3079 19.7009C13.4021 19.3601 13.4657 19.0126 13.5161 18.6639C13.5386 18.514 13.5652 18.3642 13.5731 18.2117C13.5864 17.9663 13.3092 17.7369 13.1037 17.7595C13.0559 17.7648 13.0082 17.7701 12.9618 17.782C12.8862 17.7992 12.8676 17.7793 12.8822 17.7011C12.8849 17.6892 12.8889 17.6772 12.8915 17.6666C13.0135 17.2224 13.1514 16.7821 13.292 16.3432C13.4418 15.8777 13.6049 15.4162 13.7283 14.9415C13.7601 14.8182 13.7999 14.6948 13.7879 14.5636C13.7734 14.4031 13.6487 14.2798 13.4869 14.2705L13.4882 14.2692Z" stroke="white" stroke-width="0.223053" stroke-miterlimit="10"/>
<path d="M19.7858 19.1929C19.5232 18.9184 19.2222 18.6917 18.8986 18.4941C18.282 18.1201 17.6441 17.7913 16.9546 17.5698C16.936 17.5632 16.9161 17.5579 16.8975 17.5486C16.8538 17.526 16.8485 17.4982 16.8896 17.4677C16.9387 17.4319 16.9917 17.404 17.0421 17.3709C17.4134 17.1229 17.7821 16.8736 18.1454 16.6137C18.6003 16.2888 19.0458 15.9533 19.4874 15.6125C19.9993 15.2173 20.5059 14.8168 21.0138 14.4177C21.1848 14.2837 21.344 14.1392 21.4567 13.9482C21.6622 13.5995 21.5004 13.1433 21.0761 13.0292C20.8971 12.9815 20.7167 12.9881 20.5377 13.008C20.173 13.0505 19.8189 13.1393 19.4649 13.2374C18.6918 13.4509 17.9412 13.7268 17.2185 14.0729C16.8525 14.2479 16.4878 14.4269 16.1324 14.6232C16.0369 14.6763 15.9428 14.7306 15.8473 14.7837C15.7624 14.6696 15.655 14.5755 15.5317 14.4946C15.4561 14.4442 15.3911 14.3898 15.3447 14.3129C15.159 14.0079 14.972 13.7029 14.7864 13.3979C14.7254 13.2984 14.6657 13.199 14.606 13.0982C14.5583 13.0173 14.5596 13.0027 14.6286 12.947C14.7121 12.8794 14.7983 12.8131 14.8832 12.7441C15.0887 12.577 15.3009 12.4179 15.4839 12.2256C15.6961 12.0042 15.6099 11.6315 15.3261 11.5175C15.1736 11.4565 15.0384 11.479 14.9031 11.5665C14.6737 11.7151 14.4588 11.8835 14.2387 12.0453C14.1764 12.0917 14.1631 12.0877 14.1313 12.0201C14.1114 11.9763 14.0955 11.9299 14.0796 11.8848C13.9921 11.6395 13.9059 11.3928 13.817 11.1488C13.7587 10.9884 13.6393 10.9088 13.4881 10.9234C13.3144 10.9406 13.1977 11.0799 13.2083 11.2668C13.215 11.3796 13.2441 11.4883 13.276 11.5957C13.3582 11.8689 13.4364 12.1421 13.5266 12.4126C13.5677 12.5346 13.5399 12.6155 13.4444 12.6937C13.3356 12.7813 13.2296 12.8714 13.1235 12.9629C13.1884 12.7773 13.1606 12.5479 12.9749 12.3304C12.8052 12.1872 12.6142 12.1487 12.3994 12.2163C11.8875 12.3039 10.6132 12.5412 10.2498 12.6486C10.0642 12.703 9.8785 12.7547 9.69417 12.8104C9.63847 12.8263 9.58543 12.833 9.52841 12.8144C9.31358 12.7454 9.13058 12.8025 8.98603 12.9696C8.93299 13.0306 8.86801 13.0624 8.79375 13.0849C8.1612 13.2732 7.54191 13.5 6.91997 13.7175C6.73962 13.7798 6.62955 13.9615 6.65475 14.1299C6.68658 14.3381 6.82449 14.4906 7.03004 14.4919C7.23293 14.4919 7.59628 14.3805 7.66259 14.362C7.82039 14.3169 7.97952 14.2718 8.13866 14.228C8.16385 14.2214 8.1917 14.2042 8.2169 14.2307C8.22618 14.2585 8.20761 14.2771 8.197 14.297C8.08694 14.5012 7.97157 14.7041 7.86548 14.911C7.65463 15.3207 7.44908 15.7345 7.2621 16.1562C7.23293 16.2225 7.19182 16.2689 7.12154 16.2941C6.90538 16.3697 6.70779 16.4466 6.4797 16.5381C6.44523 16.5474 6.4134 16.5659 6.38157 16.5832C6.19592 16.6879 6.16542 16.8736 6.20122 17.0288C6.23703 17.1852 6.39483 17.3019 6.56723 17.3112C6.59507 17.3125 6.62292 17.3112 6.6521 17.3112C6.7436 17.3112 6.7489 17.3178 6.71708 17.408C6.69984 17.4571 6.67862 17.5048 6.66138 17.5539C6.53142 17.9119 6.39749 18.2687 6.27283 18.628C6.16807 18.9304 6.04872 19.2288 5.95855 19.5377C5.86174 19.8706 5.97579 20.2552 6.30731 20.4554C6.65475 20.6662 7.16132 20.5535 7.36819 20.2061C7.42124 20.1159 7.465 20.0218 7.48754 19.9183C7.5618 19.6836 7.79122 18.811 7.83365 18.6572C7.99411 18.0724 8.18507 17.4982 8.40255 16.9319C8.44498 16.8232 8.50598 16.7649 8.62136 16.7383C9.10406 16.6296 9.58676 16.5248 10.0801 16.4731C10.2418 16.4559 10.4063 16.424 10.5694 16.4851C10.6145 16.501 10.6649 16.4943 10.7126 16.4877C10.8757 16.4625 11.0362 16.4294 11.1966 16.3896C11.4022 16.3379 11.5839 16.1336 11.5799 15.883C11.5772 15.6801 11.3783 15.3937 11.0972 15.3857C11.0282 15.3844 10.9606 15.3857 10.893 15.3976C10.7232 15.4255 10.5522 15.452 10.3811 15.4759C9.97132 15.5329 9.56023 15.5846 9.15843 15.6854C9.08151 15.704 9.00327 15.7159 8.90779 15.7358C8.93166 15.6722 8.94625 15.6271 8.96482 15.5846C9.04173 15.4122 9.1213 15.2412 9.19688 15.0688C9.3706 14.6723 9.56421 14.2837 9.72334 13.8806C9.75252 13.805 9.80424 13.7692 9.87982 13.748C10.1238 13.6803 10.3625 13.6339 10.6092 13.5743C11.186 13.435 11.5825 13.3873 12.3689 13.3395C12.4737 13.3369 12.5798 13.3475 12.6832 13.3329C12.6262 13.378 12.5652 13.4204 12.4936 13.4483C12.3344 13.5093 12.2522 13.6498 12.2071 13.8024C12.1634 13.9509 12.1925 14.0967 12.3132 14.2121C12.4763 14.3686 12.7071 14.3845 12.9245 14.2492C13.0784 14.1538 13.2216 14.045 13.3648 13.9336C13.5332 13.8024 13.7043 13.6764 13.8727 13.5464C13.9112 13.5159 13.9377 13.5239 13.9589 13.565C13.9669 13.5796 13.9735 13.5928 13.9801 13.6074C14.1737 14.0318 14.3395 14.4654 14.4111 14.9309C14.4283 15.0423 14.4588 15.1497 14.4602 15.2637C14.4615 15.3804 14.4933 15.4891 14.5437 15.5873C14.5291 15.6005 14.5145 15.6151 14.5013 15.6297C14.4045 15.7398 14.3501 15.8697 14.362 16.0143C14.3806 16.2291 14.5318 16.4081 14.7373 16.4492C14.984 16.4983 15.159 16.4665 15.3009 16.2583C15.3327 16.2105 15.3725 16.1734 15.4229 16.1442C15.5661 16.0634 15.7067 15.9758 15.8526 15.8989C15.9428 15.8512 16.0236 15.7796 16.143 15.757C16.1483 15.818 16.1244 15.8565 16.1098 15.8976C16.0263 16.119 15.9388 16.3392 15.8619 16.5633C15.8247 16.6694 15.7624 16.7397 15.6616 16.7887C15.4601 16.8882 15.2598 16.9929 15.0622 17.099C14.9455 17.1627 14.8302 17.2277 14.7214 17.3046C14.4403 17.5022 14.3501 17.7992 14.4695 18.1215C14.5464 18.331 14.7068 18.4596 14.9137 18.5339C14.9787 18.5564 15.0437 18.5776 15.1073 18.6002C15.1537 18.6161 15.1696 18.6479 15.1537 18.6943C15.1484 18.7089 15.1444 18.7248 15.1391 18.7407C15.0304 19.0816 14.9031 19.4144 14.7811 19.7499C14.7307 19.8891 14.6723 20.0257 14.6578 20.1756C14.6246 20.5283 14.9614 20.832 15.3089 20.763C15.5104 20.7233 15.651 20.6105 15.7279 20.4209C15.8048 20.2313 15.9839 19.5948 16.1987 18.9715C16.2106 18.9211 16.2451 18.9105 16.2915 18.9291C16.3101 18.937 16.3286 18.945 16.3472 18.9516C16.6854 19.0816 17.0063 19.2473 17.3232 19.4237C17.6402 19.6001 17.9478 19.7897 18.2369 20.0058C18.4106 20.1358 18.5711 20.2817 18.7395 20.4183C19.0273 20.6503 19.4463 20.6808 19.7367 20.4594C19.9794 20.2737 20.0921 20.031 20.0497 19.7247C20.0218 19.5192 19.9264 19.3454 19.7831 19.1969L19.7858 19.1929ZM17.3975 15.1921C17.4214 15.1125 17.4664 15.0674 17.5447 15.033C17.9916 14.8327 18.4438 14.6458 18.9106 14.4946C18.9663 14.476 19.022 14.4535 19.0922 14.4588C19.0777 14.5105 19.0458 14.5237 19.0206 14.5423C18.473 14.9547 17.2675 15.83 17.2291 15.8021C17.1774 15.7637 17.3511 15.3512 17.3975 15.1934V15.1921Z" stroke="white" stroke-width="0.223053" stroke-miterlimit="10"/>
<path d="M25.0053 16.5089C24.7321 16.501 24.4695 16.5606 24.2123 16.6415C23.6885 16.8046 23.1951 17.0394 22.7018 17.2741C22.4366 17.4001 22.1767 17.5353 21.9141 17.6653C21.885 17.6799 21.8571 17.6945 21.8266 17.7077C21.808 17.7157 21.7868 17.725 21.7722 17.7037C21.7616 17.6891 21.7696 17.6732 21.7762 17.6573C21.7828 17.6427 21.7895 17.6281 21.7974 17.6149C21.9433 17.3656 22.0985 17.1216 22.2709 16.8895C22.5918 16.4585 22.922 16.0355 23.2827 15.635C23.5346 15.3552 23.78 15.0688 24.0478 14.8036C24.085 14.7664 24.1155 14.724 24.1499 14.6855C24.1977 14.6338 24.2388 14.5755 24.3117 14.5383C24.3382 14.6139 24.3237 14.6816 24.329 14.7479C24.3449 14.9534 24.512 15.1457 24.7056 15.1828C24.9323 15.2253 25.1538 15.1284 25.24 14.9282C25.3368 14.7041 25.4787 14.5105 25.6232 14.3182C26.0555 13.7453 26.4878 13.1711 26.8432 12.5439C26.9427 12.3688 27.0355 12.1911 27.0833 11.9935C27.1986 11.5241 26.757 11.1157 26.3102 11.2443C26.212 11.2721 26.1205 11.3119 26.0383 11.3716C25.7651 11.5692 25.5026 11.7814 25.2453 11.9989C25.0915 12.1275 24.9443 12.2641 24.7918 12.394C24.5411 12.6075 24.3024 12.8343 24.0637 13.0597C23.7256 13.3806 23.4007 13.7135 23.0731 14.045C22.9379 14.1816 22.8079 14.3235 22.678 14.4667C22.4194 14.7518 22.1634 15.0396 21.9194 15.3366C21.6184 15.7026 21.324 16.0726 21.0548 16.4625C20.832 16.7821 20.6384 17.1203 20.4435 17.4571C20.2751 17.7488 20.1146 18.0459 20.0191 18.3721C19.982 18.4967 19.9568 18.6201 19.9608 18.75C19.978 19.2314 20.348 19.4887 20.775 19.49C20.9063 19.49 21.0376 19.4582 21.1636 19.4144C21.3466 19.3521 21.5256 19.2805 21.698 19.1943C22.2788 18.9078 22.8543 18.6134 23.4405 18.3389C23.5532 18.2859 23.6659 18.2342 23.78 18.1825C23.7985 18.1745 23.8171 18.1665 23.837 18.1639C23.8608 18.1612 23.8754 18.1758 23.8675 18.201C23.8622 18.2156 23.8502 18.2275 23.8396 18.2395C23.6513 18.4517 23.4643 18.6678 23.2707 18.876C23.0387 19.1253 22.8079 19.3759 22.5705 19.6213C22.235 19.9674 21.9102 20.3215 21.6144 20.702C21.4659 20.893 21.3399 21.0972 21.2856 21.3386C21.2219 21.6171 21.2909 21.8624 21.5017 22.0494C21.7152 22.2363 21.9672 22.3159 22.251 22.2204C22.4724 22.1462 22.6567 21.9168 22.6607 21.69C22.6634 21.5905 22.6952 21.511 22.7589 21.4407C22.983 21.19 23.2031 20.9341 23.4365 20.6914C23.5916 20.5297 23.7415 20.3612 23.8966 20.1981C23.9815 20.108 24.0677 20.0178 24.1486 19.9223C24.2812 19.7671 24.4165 19.6133 24.5491 19.4582C24.7029 19.2778 24.8594 19.1014 25.0066 18.9158C25.1631 18.7169 25.3156 18.5153 25.4588 18.3071C25.6047 18.0949 25.7333 17.8735 25.8076 17.6242C25.8818 17.3722 25.8712 17.1295 25.728 16.9067C25.5622 16.6482 25.3169 16.5209 25.0092 16.5116L25.0053 16.5089Z" stroke="white" stroke-width="0.223053" stroke-miterlimit="10"/>
<path d="M32.0709 10.4963C31.868 10.4884 31.6823 10.5454 31.4967 10.6157C31.2487 10.7099 31.002 10.8067 30.7527 10.8995C30.3204 11.0626 29.8881 11.2284 29.4637 11.41C29.1017 11.5652 28.741 11.7243 28.383 11.8861C27.9759 12.0691 27.5754 12.2614 27.2094 12.5213C27.0237 12.6526 26.9137 12.8197 26.8911 13.0345C26.8778 13.1605 26.8195 13.2281 26.7253 13.2904C26.5437 13.4111 26.3673 13.5371 26.2639 13.7387C26.0066 14.4362 26.9574 14.5343 27.1656 14.224C27.1961 14.1696 27.2425 14.1338 27.2956 14.1033C27.4879 13.9946 27.6775 13.8819 27.8711 13.7731C28.0422 13.6777 28.2172 13.5848 28.3909 13.4933C28.4241 13.4761 28.4599 13.4522 28.5116 13.4655C28.497 13.5132 28.4864 13.5543 28.4718 13.5954C28.31 14.0662 28.1655 14.5423 28.0395 15.0223C27.8552 15.7291 27.7067 16.4439 27.582 17.1627C27.5741 17.2117 27.5621 17.2568 27.5316 17.2966C27.4176 17.4438 27.3725 17.6175 27.3354 17.7952C27.2598 18.1559 27.1988 18.5206 27.1484 18.8853C27.0967 19.2539 27.0396 19.6226 27.0489 19.9965C27.0569 20.3121 27.2385 20.5893 27.5303 20.71C27.8539 20.8439 28.2291 20.7299 28.4228 20.4408C28.4838 20.3493 28.5235 20.2498 28.5527 20.1451C28.6442 19.8069 28.6601 19.4568 28.6906 19.1107C28.7039 18.9595 28.7105 18.807 28.7211 18.6558C28.7423 18.3681 28.7781 18.083 28.81 17.7965C28.8511 17.4265 28.8882 17.0552 28.9399 16.6866C29.0288 16.0554 29.1282 15.4255 29.2662 14.8035C29.4001 14.2001 29.5632 13.6047 29.7436 13.0133C29.7621 12.951 29.7953 12.9085 29.8576 12.8847C29.9995 12.8276 30.1387 12.764 30.2793 12.707C30.9543 12.4351 31.6319 12.1712 32.2963 11.8755C32.5867 11.7469 32.7604 11.4631 32.7472 11.174C32.7299 10.8053 32.4369 10.507 32.0682 10.4924L32.0709 10.4963Z" stroke="white" stroke-width="0.223053" stroke-miterlimit="10"/>
<path d="M29.0197 36.769H34.5893V34.7799H31.0088V27.2211H34.5893V25.232H31.0088V22.4472H34.5893V20.458H29.0197V36.769Z" fill="white"/>
<path d="M21.8588 22.4472H24.2458V36.769H26.2349V22.4472H28.6219V20.458H21.8588V22.4472Z" fill="white"/>
<path d="M20.2674 20.458H17.0848C16.4271 20.458 15.8913 20.9938 15.8913 21.6515V36.769H17.8805V27.2211H19.4718V36.769H21.4609V21.6515C21.4609 20.9938 20.9252 20.458 20.2674 20.458ZM19.4718 22.4472V25.232H17.8805V22.4472H19.4718Z" fill="white"/>
<path d="M14.6978 21.6515H14.3V21.2537C14.3 20.8147 13.9432 20.458 13.5043 20.458H8.33252V36.769H12.576C14.1846 36.769 15.4935 35.4602 15.4935 33.8516V22.4472C15.4935 22.0082 15.1367 21.6515 14.6978 21.6515ZM13.5043 33.8516C13.5043 34.3635 13.0879 34.7799 12.576 34.7799H10.3217V22.4472H13.5043V33.8516Z" fill="white"/>
</g>
</svg>
