<svg width="254" height="220" viewBox="0 0 254 220" fill="none" xmlns="http://www.w3.org/2000/svg">
<g clip-path="url(#clip0_447_4417)">
<path d="M225.784 1.49643C231.56 1.49643 236.258 6.19511 236.258 11.9712V89.043C236.655 89.2001 237.052 89.3498 237.433 89.3498C237.515 89.3498 237.598 89.3498 237.673 89.3273C238.211 89.2226 238.675 88.9083 239.154 88.6315C239.536 88.3996 239.955 88.1527 240.336 87.9207C240.748 87.6813 241.039 87.4868 241.369 87.3296C241.541 87.2324 241.69 87.1875 241.825 87.1875C242.162 87.1875 242.409 87.4494 242.693 87.7337C243.643 88.6988 245.386 90.3898 246.292 91.3475C246.651 91.7141 246.666 92.0059 246.464 92.4024C246.299 92.7391 246.112 93.0234 245.88 93.4275C245.596 93.8913 245.282 94.4226 244.997 94.8939C244.78 95.2755 244.563 95.6346 244.474 96.0536C244.324 96.6821 244.683 97.3779 244.938 97.9914C245.169 98.5526 245.394 99.0913 245.948 99.3906C246.224 99.5477 246.591 99.6599 247.04 99.7722C247.743 99.9517 248.544 100.146 249.247 100.326C250.003 100.543 250.474 100.55 250.444 101.553C250.459 102.974 250.444 104.553 250.452 105.967C250.437 106.424 250.504 107.209 250.257 107.426H250.25C250.108 107.628 249.524 107.77 249.112 107.875C248.462 108.04 247.721 108.227 247.062 108.391C246.037 108.638 245.431 108.9 245.027 109.963C244.758 110.643 244.309 111.429 244.474 112.125C244.623 112.731 244.99 113.247 245.304 113.786C245.686 114.437 246.224 115.267 246.516 115.881C246.726 116.3 246.509 116.599 246.194 116.928C245.918 117.22 245.491 117.632 245.027 118.103C244.309 118.829 243.419 119.704 242.745 120.385C242.446 120.684 242.169 120.976 241.818 120.976C241.713 120.976 241.601 120.946 241.473 120.886C240.329 120.34 239.184 119.42 237.979 118.926C237.792 118.851 237.613 118.821 237.433 118.821C236.857 118.821 236.288 119.121 235.742 119.338C235.061 119.614 234.582 119.869 234.313 120.49C234.163 120.879 234.029 121.328 233.917 121.784V134.354C234.021 134.294 234.141 134.227 234.238 134.167C234.515 134.017 234.71 133.935 234.882 133.935C235.061 133.935 235.211 134.017 235.398 134.182C236.408 135.139 240.082 138.851 241.271 140.04C241.743 140.429 241.72 140.886 241.421 141.349C240.845 142.434 239.363 144.619 238.787 145.921C238.428 146.901 239.296 147.949 239.932 148.607C240.231 148.869 240.605 148.944 241.002 148.944C241.114 148.944 241.226 148.944 241.339 148.929C242.573 148.779 244.863 148.398 245.91 148.263C246.045 148.24 246.172 148.225 246.292 148.225C246.673 148.225 246.98 148.36 247.145 148.802C248.102 151.046 249.15 153.62 250.1 155.917C250.594 157.054 250.601 157.159 249.494 157.967C248.439 158.775 246.995 159.778 246.022 160.578C245.154 161.274 245.304 162.09 245.514 163.002C245.648 163.698 245.97 164.289 246.681 164.514C248.095 164.963 250.631 165.501 251.649 165.816C251.986 165.928 252.18 166.003 252.3 166.302C252.487 167.723 252.3 171.345 252.367 173.806C252.352 174.824 252.427 175.385 252.202 175.632L252.165 175.677C250.99 176.283 248.342 176.634 246.808 177.158C246.06 177.36 245.626 177.974 245.514 178.714C245.334 179.523 245.199 180.316 245.746 180.869C246.546 181.685 248.297 182.807 249.24 183.563C250.04 184.154 250.736 184.506 250.242 185.456C249.412 187.266 247.721 191.92 246.928 193.274C246.801 193.432 246.628 193.491 246.359 193.491C246.142 193.491 245.865 193.454 245.499 193.402C244.81 193.297 243.868 193.162 243.097 193.042C242.311 192.9 241.683 192.788 241.159 192.788C240.067 192.788 239.431 193.259 238.757 194.861C238.555 195.452 238.832 196.058 239.416 196.993C240.052 198.07 240.905 199.455 241.473 200.465C241.765 201.018 241.698 201.235 241.271 201.677C240.082 202.874 236.408 206.577 235.398 207.535C235.211 207.7 235.031 207.76 234.844 207.76C234.283 207.76 233.692 207.161 233.041 206.847C231.822 206.248 230.318 204.856 229.061 204.856C228.724 204.856 228.41 204.954 228.118 205.186C227.048 205.822 226.397 206.353 226.719 207.939C226.898 209.114 227.1 210.49 227.273 211.635C227.385 212.443 227.43 212.825 227.145 213.064C226.921 213.251 226.472 213.408 225.829 213.685C223.876 214.486 221.654 215.421 219.678 216.229C219.222 216.431 218.93 216.551 218.691 216.551C218.339 216.551 218.107 216.289 217.621 215.631C216.805 214.561 215.833 213.154 215.01 212.151C214.606 211.643 214.149 211.478 213.655 211.478C213.274 211.478 212.877 211.568 212.466 211.673C211.747 211.815 211.224 212.226 211.029 212.937C210.633 214.246 210.034 217.007 209.742 217.883C209.623 218.346 209.263 218.496 208.815 218.496C208.8 218.496 208.792 218.496 208.777 218.496C208.253 218.496 207.378 218.496 206.39 218.496C204.408 218.496 201.931 218.496 200.794 218.496C200.734 218.496 200.674 218.504 200.622 218.504C199.784 218.504 199.672 217.868 199.47 217C199.163 215.877 198.751 213.91 198.385 212.81C198.138 212.144 197.749 211.875 197.113 211.703C196.694 211.605 196.237 211.486 195.796 211.486C195.512 211.486 195.242 211.538 194.988 211.673C193.746 212.69 192.294 215.189 191.434 216.139C191.247 216.409 191.015 216.543 190.746 216.543C190.618 216.543 190.484 216.513 190.334 216.454C188.972 215.907 184.476 214.029 182.867 213.364C181.969 213.087 182.044 212.503 182.194 211.635C182.336 210.468 182.732 208.343 182.815 207.191C182.867 206.345 182.403 205.874 181.767 205.463C181.236 205.088 180.765 204.827 180.271 204.827C180.039 204.827 179.807 204.886 179.56 205.014C178.363 205.605 176.178 207.064 175.026 207.655C174.876 207.737 174.734 207.774 174.607 207.774C174.121 207.774 173.769 207.251 173.35 206.854C172.639 206.128 171.674 205.193 170.896 204.393L168.532 202.028C167.724 201.228 167.589 201.101 168.157 200.15C168.277 199.956 168.404 199.739 168.524 199.537C168.045 199.769 167.514 199.911 166.953 199.911H135.529C133.464 199.911 131.788 198.235 131.788 196.17V119.106H123.557V196.17C123.557 198.235 121.881 199.911 119.816 199.911H108.593C106.528 199.911 104.852 198.235 104.852 196.17V119.106H96.6223V196.17C96.6223 198.235 94.9464 199.911 92.8813 199.911H81.6584C79.5933 199.911 77.9174 198.235 77.9174 196.17V146.041H76.421V196.17C76.421 198.235 74.745 199.911 72.68 199.911H61.457C59.392 199.911 57.7161 198.235 57.7161 196.17V193.267C54.0125 197.345 48.6778 199.911 42.7521 199.911H18.8098C16.7448 199.911 15.0688 198.235 15.0688 196.17L15.3157 106.222C13.8343 107.636 11.7842 108.459 9.61444 108.459C8.12552 108.459 6.68899 108.062 5.45446 107.321C2.26714 105.391 0.770743 101.515 1.83318 97.8942C2.21476 96.5923 2.66368 95.3503 3.09764 94.1532C3.28469 93.6295 3.47922 93.1057 3.65879 92.5745C4.1077 91.2726 4.57907 89.9783 5.05792 88.6839C4.12267 87.8983 3.43433 86.8358 3.15749 85.6088C2.52901 82.9078 3.64382 80.3116 5.98568 78.9947C6.24755 78.8526 6.62913 78.6356 7.1379 78.471C8.06567 78.1044 8.90365 77.7752 9.76408 77.4609C10.228 76.4359 10.7367 75.366 11.3054 74.2063C8.40984 74.109 6.11287 71.9841 5.66396 68.9838C5.24496 66.2155 6.91344 63.5145 9.6294 62.5718L11.6421 61.861C12.8915 61.4196 14.1635 60.9706 15.4429 60.5367L15.5402 21.4434V5.23742C15.5402 3.16491 17.2161 1.49643 19.2811 1.49643H30.5041C30.9007 1.49643 31.2673 1.57125 31.6264 1.68348C31.9855 1.57125 32.3522 1.49643 32.7487 1.49643H43.0364C44.3907 1.49643 45.6327 2.22218 46.2986 3.39685L55.9428 20.5231V5.23742C55.9428 3.16491 57.6188 1.49643 59.6838 1.49643H70.9068C71.3033 1.49643 71.6699 1.57125 72.0291 1.68348C72.3882 1.57125 72.7548 1.49643 73.1514 1.49643H111.309C112.649 1.49643 113.816 2.19974 114.474 3.26218C116.143 2.14736 118.14 1.49643 120.288 1.49643H138.245C140.392 1.49643 142.39 2.14736 144.058 3.26218C144.716 2.19974 145.884 1.49643 147.223 1.49643H157.511C158.865 1.49643 160.107 2.22218 160.773 3.39685L169.459 18.8247L170.417 18.8097V5.23742C170.417 3.16491 172.093 1.49643 174.158 1.49643H185.381C185.778 1.49643 186.144 1.57125 186.503 1.68348C186.862 1.57125 187.229 1.49643 187.626 1.49643H198.849C200.188 1.49643 201.355 2.19974 202.013 3.26218C203.682 2.14736 205.68 1.49643 207.827 1.49643H225.784ZM33.7737 181.206H42.7521C43.5751 181.206 44.2485 180.533 44.2485 179.71V119.106H33.7737V181.206ZM150.493 181.206H163.391C164.454 180.271 164.147 179.141 163.691 177.951C163.391 177.285 162.546 177.098 161.177 176.769C160.159 176.515 158.85 176.193 157.915 175.939C157.309 175.759 157.144 175.602 157.107 175.108C157.062 173.193 157.107 168.127 157.107 166.616C157.092 166.107 157.473 165.89 157.915 165.778C159.179 165.374 161.918 164.933 163.212 164.297C164.08 163.706 164.476 161.454 163.631 160.758C162.785 159.972 161.147 158.895 160.219 158.161C159.419 157.57 158.723 157.219 159.217 156.269C159.882 154.652 161.738 150.148 162.314 148.802C162.449 148.405 162.748 148.225 163.122 148.225C163.182 148.225 163.249 148.225 163.309 148.24C164.334 148.338 167.14 148.846 168.404 148.944C168.457 148.944 168.502 148.944 168.547 148.944C168.883 148.944 169.175 148.831 169.429 148.652C168.389 148.136 167.611 147.163 167.394 145.988C167.245 146.003 167.103 146.033 166.953 146.033H150.493V181.198M225.784 3.5685e-05H207.827C205.904 3.5685e-05 204.034 0.456436 202.335 1.33931C201.392 0.486364 200.158 3.5685e-05 198.849 3.5685e-05H187.626C187.259 3.5685e-05 186.885 0.0449275 186.503 0.134711C186.122 0.0449275 185.748 3.5685e-05 185.381 3.5685e-05H174.158C171.27 3.5685e-05 168.921 2.34938 168.921 5.23742V14.8143L162.075 2.65614C161.147 1.0101 159.396 -0.00744629 157.511 -0.00744629H147.223C145.906 -0.00744629 144.679 0.478882 143.736 1.33183C142.045 0.456436 140.167 -0.00744629 138.245 -0.00744629H120.288C118.365 -0.00744629 116.494 0.448954 114.796 1.33183C113.853 0.478882 112.619 -0.00744629 111.309 -0.00744629H73.1514C72.7848 -0.00744629 72.4107 0.0374456 72.0291 0.127229C71.6475 0.0374456 71.2734 -0.00744629 70.9068 -0.00744629H59.6838C56.7958 -0.00744629 54.4464 2.34189 54.4464 5.22994V14.8069L47.6004 2.66362C46.6652 1.01758 44.9219 3.5685e-05 43.0364 3.5685e-05H32.7487C32.3821 3.5685e-05 32.008 0.0449275 31.6264 0.134711C31.2448 0.0449275 30.8707 3.5685e-05 30.5041 3.5685e-05H19.2811C16.3931 3.5685e-05 14.0438 2.34938 14.0438 5.23742V21.4509L13.954 59.4743C13.0113 59.8035 12.076 60.1327 11.1482 60.4544L9.13559 61.1652C5.74626 62.3473 3.66627 65.7292 4.19001 69.2158C4.63144 72.1487 6.54683 74.4307 9.11315 75.3136C8.95602 75.6428 8.80638 75.9645 8.66423 76.2788C7.95344 76.5481 7.27258 76.8175 6.62913 77.0719C6.01561 77.2813 5.55173 77.5357 5.27489 77.6929C2.31951 79.3539 0.927865 82.5936 1.70599 85.9604C1.97534 87.1276 2.52901 88.1901 3.32958 89.0879C2.98541 90.0381 2.61131 91.0706 2.25217 92.0957C2.07261 92.6119 1.88556 93.1282 1.69851 93.6444C1.24959 94.879 0.793189 96.1359 0.404127 97.4827C-0.837881 101.755 0.920383 106.326 4.6913 108.608C6.15777 109.499 7.86366 109.963 9.6294 109.963C11.0884 109.963 12.5324 109.633 13.8268 109.035L13.5874 196.177C13.5874 199.073 15.9367 201.422 18.8247 201.422H42.7671C47.6827 201.422 52.4413 199.731 56.2571 196.701C56.5189 199.35 58.7561 201.422 61.472 201.422H72.695C74.5954 201.422 76.2639 200.405 77.1842 198.878C78.1044 200.397 79.7729 201.422 81.6733 201.422H92.8963C95.7843 201.422 98.1337 199.073 98.1337 196.185V120.617H103.371V196.185C103.371 199.073 105.72 201.422 108.608 201.422H119.831C122.719 201.422 125.069 199.073 125.069 196.185V120.617H130.306V196.185C130.306 199.073 132.656 201.422 135.544 201.422H166.377C166.504 202.058 166.945 202.567 167.484 203.098L169.856 205.47C170.267 205.896 170.746 206.375 171.218 206.839C171.607 207.221 171.981 207.595 172.302 207.924L172.325 207.947L172.347 207.969C172.422 208.044 172.497 208.119 172.572 208.201C172.961 208.612 173.619 209.301 174.637 209.301C175.018 209.301 175.393 209.204 175.752 209.009C176.343 208.702 177.121 208.231 177.944 207.73C178.797 207.206 179.68 206.675 180.248 206.39C180.308 206.36 180.323 206.353 180.323 206.353C180.323 206.353 180.48 206.398 180.929 206.72L180.952 206.734L180.974 206.749C181.288 206.951 181.341 207.041 181.341 207.049C181.341 207.049 181.341 207.079 181.341 207.131C181.296 207.76 181.131 208.814 180.982 209.742C180.884 210.371 180.787 210.969 180.727 211.448C180.585 212.279 180.301 214.119 182.366 214.8L184.214 215.571C186.249 216.416 188.778 217.471 189.773 217.868C190.095 218.002 190.431 218.077 190.753 218.077C191.486 218.077 192.145 217.733 192.609 217.112C192.975 216.693 193.379 216.124 193.843 215.473C194.449 214.62 195.182 213.573 195.781 213.012C195.788 213.012 195.796 213.012 195.811 213.012C196.02 213.012 196.327 213.087 196.626 213.154L196.761 213.184C196.881 213.221 196.933 213.244 196.956 213.251C196.956 213.251 196.971 213.281 196.993 213.341C197.203 213.97 197.442 214.972 197.651 215.855C197.786 216.431 197.921 216.97 198.033 217.404L198.048 217.479C198.243 218.309 198.639 220.037 200.629 220.037C200.704 220.037 200.779 220.037 200.861 220.03H202.866H206.398C207.393 220.03 208.268 220.03 208.792 220.03C210.012 220.03 210.895 219.401 211.186 218.346C211.351 217.838 211.568 216.962 211.815 215.952C212.047 215.002 212.286 214.022 212.473 213.408V213.386L212.488 213.364C212.511 213.281 212.526 213.221 212.773 213.169H212.802L212.832 213.154C213.147 213.079 213.468 213.004 213.678 213.004C213.745 213.004 213.768 213.012 213.768 213.012C213.768 213.012 213.798 213.034 213.865 213.109C214.366 213.715 214.92 214.478 215.459 215.219C215.803 215.69 216.139 216.154 216.454 216.566C216.94 217.224 217.561 218.07 218.713 218.07C219.274 218.07 219.776 217.853 220.299 217.628C221.294 217.224 222.387 216.768 223.479 216.311C224.482 215.892 225.484 215.481 226.427 215.092C226.599 215.017 226.734 214.965 226.861 214.905C227.377 214.688 227.789 214.516 228.133 214.231C229.061 213.446 228.911 212.383 228.784 211.448L228.574 210.049C228.455 209.271 228.335 208.463 228.23 207.737V207.7L228.215 207.662C228.126 207.213 228.357 206.824 228.911 206.495L229.001 206.443L229.083 206.375C229.48 206.375 230.37 206.959 230.961 207.348C231.433 207.655 231.919 207.976 232.405 208.216C232.547 208.283 232.719 208.403 232.907 208.523C233.415 208.859 234.051 209.286 234.867 209.286C235.428 209.286 235.967 209.076 236.408 208.687L236.431 208.665L236.453 208.642C237.396 207.745 240.531 204.595 242.035 203.083L242.364 202.754C242.985 202.118 243.576 201.213 242.828 199.791V199.776L242.805 199.761C242.431 199.095 241.937 198.28 241.466 197.494C241.212 197.068 240.957 196.649 240.733 196.267C240.374 195.699 240.261 195.444 240.231 195.324C240.673 194.314 240.875 194.314 241.197 194.314C241.593 194.314 242.162 194.412 242.858 194.546H242.88H242.902C243.351 194.614 243.853 194.688 244.339 194.763C244.683 194.816 245.02 194.861 245.312 194.905C245.775 194.973 246.09 195.01 246.396 195.01C247.13 195.01 247.713 194.756 248.125 194.247L248.2 194.157L248.26 194.06C248.798 193.147 249.606 191.112 250.392 189.144C250.871 187.955 251.32 186.825 251.626 186.137C252.629 184.154 251.065 183.032 250.392 182.545C250.325 182.5 250.257 182.448 250.19 182.403C249.823 182.111 249.367 181.782 248.888 181.438C248.155 180.907 247.317 180.308 246.89 179.882C246.875 179.687 246.973 179.223 247.01 179.059V179.006L247.025 178.954C247.07 178.662 247.19 178.632 247.227 178.617L247.272 178.602L247.317 178.587C247.885 178.393 248.701 178.213 249.487 178.034C250.788 177.742 252.023 177.465 252.876 177.024L253.145 176.889L253.34 176.657L253.362 176.627C253.901 176.013 253.893 175.258 253.886 174.465C253.886 174.285 253.886 174.076 253.886 173.844V173.814V173.784C253.856 172.804 253.871 171.622 253.886 170.469C253.908 168.644 253.931 167.073 253.804 166.122L253.781 165.935L253.714 165.763C253.332 164.805 252.562 164.551 252.143 164.416C251.619 164.252 250.871 164.072 250.01 163.863C249.023 163.623 247.9 163.346 247.16 163.115C247.137 163.107 247.062 163.025 247.01 162.748V162.725L247.003 162.703C246.958 162.516 246.845 162.007 246.883 161.88C246.883 161.88 246.905 161.843 246.988 161.775C247.564 161.296 248.327 160.743 249.06 160.204C249.546 159.852 250.018 159.501 250.437 159.187C252.06 158.004 252.3 157.174 251.507 155.356L250.744 153.5C250.018 151.742 249.27 149.931 248.574 148.278C248.215 147.328 247.377 146.759 246.337 146.759C246.15 146.759 245.955 146.774 245.738 146.811C245.259 146.871 244.541 146.983 243.785 147.096C242.85 147.238 241.885 147.387 241.226 147.47C241.167 147.47 241.099 147.477 241.039 147.477C240.987 147.477 240.957 147.477 240.927 147.477C240.344 146.849 240.254 146.542 240.239 146.46C240.568 145.756 241.197 144.724 241.758 143.811C242.139 143.183 242.506 142.592 242.753 142.135C243.434 141.028 243.269 139.801 242.326 138.978C242.035 138.686 241.616 138.267 241.129 137.773C239.491 136.127 237.246 133.868 236.468 133.134L236.438 133.112L236.408 133.089C236.273 132.977 235.944 132.693 235.45 132.558V122.016C235.54 121.679 235.637 121.365 235.735 121.111C235.765 121.051 235.839 120.976 236.348 120.767C236.453 120.729 236.58 120.677 236.7 120.624C236.969 120.512 237.313 120.37 237.471 120.37C238.002 120.587 238.578 120.939 239.184 121.32C239.723 121.657 240.284 122.009 240.867 122.285C241.174 122.435 241.511 122.517 241.855 122.517C242.813 122.517 243.441 121.896 243.808 121.522L243.838 121.492C244.182 121.148 244.571 120.759 244.96 120.37C245.356 119.973 245.761 119.569 246.12 119.21C246.322 119.001 246.516 118.814 246.696 118.634C246.935 118.395 247.152 118.185 247.309 118.013C248.155 117.123 248.349 116.203 247.885 115.267C247.661 114.788 247.317 114.22 246.98 113.674C246.853 113.472 246.733 113.27 246.628 113.083C246.561 112.97 246.494 112.858 246.426 112.746C246.224 112.417 246.037 112.11 245.963 111.848C245.963 111.683 246.15 111.257 246.262 111.003C246.329 110.853 246.389 110.703 246.449 110.561C246.606 110.15 246.628 110.09 247.444 109.895C248.117 109.731 248.858 109.536 249.509 109.372L249.554 109.357C250.19 109.192 250.901 109.012 251.365 108.504C251.971 107.883 251.971 106.985 251.971 106.326C251.971 106.229 251.971 106.139 251.971 106.064V106.035V106.005C251.971 105.399 251.971 104.763 251.971 104.127C251.971 103.274 251.971 102.421 251.971 101.613C252.015 99.5627 250.534 99.1661 249.898 98.994L249.696 98.9342H249.674L249.651 98.9192C249.292 98.8294 248.91 98.7322 248.529 98.6349C248.155 98.5451 247.788 98.4479 247.436 98.3655C247.062 98.2758 246.823 98.1935 246.711 98.1336C246.599 98.0738 246.449 97.7071 246.344 97.4677L246.239 97.2133C246.135 96.9664 245.963 96.5624 245.963 96.4128C246 96.2556 246.127 96.0312 246.277 95.7693L246.314 95.702L246.628 95.1857C246.815 94.8715 247.003 94.5572 247.182 94.2654V94.2505L247.205 94.2355C247.279 94.1083 247.347 93.9961 247.407 93.8913C247.556 93.6444 247.698 93.405 247.833 93.1282C248.327 92.1555 248.17 91.1679 247.384 90.3673C246.83 89.7762 245.963 88.9233 245.125 88.0928C244.623 87.5915 244.144 87.1201 243.785 86.7535L243.718 86.6862C243.366 86.342 242.783 85.7659 241.847 85.7659C241.466 85.7659 241.077 85.8707 240.703 86.0727C240.433 86.2073 240.194 86.3495 239.947 86.4991C239.842 86.559 239.73 86.6263 239.61 86.7012C239.393 86.8283 239.191 86.9481 238.997 87.0678C238.795 87.1875 238.6 87.3072 238.406 87.4194L238.196 87.5391C238.054 87.6214 237.912 87.7112 237.777 87.7786V11.9712C237.777 5.37209 232.405 3.5685e-05 225.806 3.5685e-05H225.784ZM35.2701 120.602H42.7521V179.71H35.2701V120.602ZM151.989 147.537H161.334C161.162 147.747 161.02 147.986 160.922 148.255C160.339 149.617 158.633 153.762 157.9 155.55L157.862 155.648C156.89 157.608 158.446 158.73 159.112 159.209C159.179 159.254 159.246 159.306 159.314 159.359C159.68 159.65 160.137 159.972 160.616 160.324C161.319 160.833 162.12 161.409 162.591 161.835C162.673 162.119 162.553 162.77 162.374 163.047C161.663 163.346 160.421 163.631 159.411 163.863C158.693 164.027 158.019 164.184 157.503 164.349C155.745 164.82 155.61 166.182 155.61 166.639C155.61 167.043 155.61 167.701 155.61 168.487C155.603 170.701 155.588 173.731 155.618 175.153V175.19V175.228C155.737 176.859 157.017 177.241 157.496 177.383C158.319 177.607 159.351 177.862 160.271 178.093L160.825 178.228L160.945 178.258C161.476 178.385 162.12 178.542 162.366 178.662C162.568 179.208 162.628 179.523 162.621 179.717H151.996V147.545L151.989 147.537Z" fill="black"/>
<path d="M24.6082 57.11C25.0571 57.11 25.5135 57.1548 25.9699 57.2521C26.3889 57.1249 28.1397 56.6236 28.5961 56.4889C29.0674 56.3543 29.7258 56.1897 30.504 56.0101V5.22993H19.281V59.2872C19.5429 59.2049 19.8047 59.1226 20.0591 59.0403C21.3086 57.7908 22.9023 57.1025 24.6082 57.1025V57.11Z" fill="black"/>
<path d="M42.7519 53.7131C42.6771 53.3316 42.6247 52.9275 42.5948 52.5011C42.505 50.9224 43.0288 49.4858 43.964 48.4234V29.7558L59.6762 47.9221V50.2191C61.5841 50.9897 62.9907 52.6582 63.4321 54.6858C63.8661 56.7059 63.29 58.7859 61.8759 60.2673C61.1576 61.0155 60.4169 61.659 59.6762 62.265V64.3974L61.4644 67.3303C61.4644 67.3303 61.6664 67.465 61.7487 67.5249C63.6566 66.4998 65.557 65.5795 67.3302 64.7266C68.4974 64.1655 69.687 63.6417 70.8916 63.1404V5.22993H59.6687V34.7763L43.0363 5.22993H32.7485V55.5238C35.8386 54.8878 39.5048 54.2294 40.9263 53.9825C41.5324 53.8104 42.1459 53.7206 42.7519 53.7057V53.7131Z" fill="black"/>
<path d="M89.0429 58.2697C89.9931 58.2697 90.861 58.3819 91.699 58.6063C93.9436 59.2124 95.7243 60.7686 96.5848 62.8711C97.2955 64.6144 97.2881 66.5073 96.6072 68.2356C96.7344 68.0935 96.8691 67.9439 96.9888 67.8167C97.2656 67.5099 97.5574 67.1957 97.8492 66.8739V16.4529H111.317V5.22993H73.1587V16.4529H86.6262V58.4717C86.8357 58.4417 87.0452 58.4043 87.2547 58.3819C87.9206 58.3071 88.4893 58.2697 89.0429 58.2697Z" fill="black"/>
<path d="M155.543 59.1525C152.782 60.3796 149.961 61.5168 147.215 62.6167V95.1633H158.438V56.9753C157.668 57.8881 156.68 58.6438 155.543 59.1525Z" fill="black"/>
<path d="M174.158 34.7837L157.51 5.23742H147.223V45.4755L148.173 45.1089C149.37 44.6525 150.821 44.1811 152.527 44.1811C152.647 44.1811 152.774 44.1811 152.894 44.1811C155.124 44.2709 157.099 45.2809 158.446 46.8596V29.7484L174.158 47.9146V95.1483H185.381V5.22993H174.158V34.7763V34.7837Z" fill="black"/>
<path d="M198.848 5.22993H187.625V95.1558H198.848V5.22993Z" fill="black"/>
<path d="M119.21 48.5431C119.854 48.356 120.52 48.2663 121.186 48.2663C122.45 48.2663 123.685 48.6179 124.777 49.2464V43.3955H133.755V50.8775C134.661 50.4809 135.596 50.0769 136.569 49.6579C139.09 48.573 141.634 47.6004 143.998 46.71C144.327 46.5903 144.649 46.4631 144.978 46.3359V11.9637C144.978 8.25265 141.956 5.22993 138.244 5.22993H120.288C116.577 5.22993 113.554 8.25265 113.554 11.9637V52.097C114.616 51.2441 115.574 50.5034 116.517 49.8225C117.302 49.2539 118.185 48.8349 119.21 48.5431ZM124.777 16.4529H133.755V32.165H124.777V16.4529Z" fill="black"/>
<path d="M142.951 64.3525C142.951 64.3525 142.883 64.3824 142.853 64.3974C141.933 67.5024 141.185 70.3456 140.586 73.0615C139.763 76.7501 139.195 80.521 138.798 83.4016C138.581 84.9429 138.409 86.544 138.237 88.0928L137.983 90.3673C137.825 91.7141 137.683 92.9935 137.586 94.2729C137.564 94.5722 137.549 94.8715 137.526 95.1633H144.978V63.522C144.671 63.6492 144.357 63.7689 144.05 63.8961C143.684 64.0457 143.317 64.2029 142.958 64.3525H142.951Z" fill="black"/>
<path d="M225.784 5.22993H207.827C204.116 5.22993 201.093 8.25265 201.093 11.9637V95.1558H212.316V43.388H221.294V95.1558H232.517V11.9637C232.517 8.25265 229.495 5.22993 225.784 5.22993ZM221.294 32.165H212.316V16.4529H221.294V32.165Z" fill="black"/>
<path d="M193.888 104.157H171.068V111.639H190.147C190.768 111.639 191.269 112.14 191.269 112.761V116.502C191.269 117.123 190.768 117.624 190.147 117.624H175.931C173.253 117.624 171.068 119.809 171.068 122.487V145.307H198.751V137.826H178.55V126.228C178.55 125.607 179.051 125.106 179.672 125.106H193.888C196.566 125.106 198.751 122.921 198.751 120.243V109.02C198.751 106.341 196.566 104.157 193.888 104.157Z" fill="black"/>
<path d="M202.492 109.02V140.444C202.492 143.123 204.677 145.307 207.355 145.307H225.312C227.991 145.307 230.175 143.123 230.175 140.444V104.157H207.355C204.677 104.157 202.492 106.341 202.492 109.02ZM209.974 136.703V112.761C209.974 112.14 210.475 111.639 211.096 111.639H222.694V136.703C222.694 137.324 222.192 137.826 221.571 137.826H211.096C210.475 137.826 209.974 137.324 209.974 136.703Z" fill="black"/>
<path d="M193.888 154.712H171.068V162.194H190.147C190.768 162.194 191.269 162.696 191.269 163.317V167.058C191.269 167.679 190.768 168.18 190.147 168.18H175.931C173.253 168.18 171.068 170.365 171.068 173.043V195.863H198.751V188.381H178.55V176.784C178.55 176.163 179.051 175.662 179.672 175.662H193.888C196.566 175.662 198.751 173.477 198.751 170.799V159.576C198.751 156.897 196.566 154.712 193.888 154.712Z" fill="black"/>
<path d="M204.737 159.576V170.799C204.737 173.477 206.749 175.662 209.226 175.662H222.26C222.813 175.662 223.255 176.163 223.255 176.784V188.381H204.737V195.863H230.176V173.043C230.176 170.365 228.163 168.18 225.686 168.18H212.653C212.099 168.18 211.658 167.679 211.658 167.058V163.317C211.658 162.696 212.107 162.194 212.653 162.194H230.176V154.712H209.226C206.749 154.712 204.737 156.897 204.737 159.576Z" fill="black"/>
<path d="M47.8999 69.2158C46.9496 69.1634 46.2538 69.5824 45.8722 70.5102C45.4533 71.5427 44.9744 72.5378 44.4282 73.503C43.8746 74.4906 43.3957 75.5156 42.872 76.5182C42.7298 76.7801 42.5802 77.0719 42.6999 77.3562C42.9618 77.9697 42.7523 78.5009 42.5203 79.0471C42.3333 79.4811 42.1836 79.9375 42.0116 80.3789C40.6423 83.9328 39.4452 87.5391 38.5624 91.2427C38.0012 93.5771 37.5747 95.9339 37.6121 98.7546C37.6047 99.1886 37.6121 100.019 37.7468 100.85C37.9563 102.166 38.3304 103.416 39.1085 104.508C39.7146 105.361 40.575 105.818 41.6449 105.892C43.1039 105.99 44.1664 105.324 45.0043 104.202C45.9695 102.9 46.4558 101.396 46.8823 99.862C47.4135 97.9391 47.7727 95.9788 48.057 94.011C48.1842 93.1656 48.3338 92.3201 48.3787 91.4597C48.4535 90.0755 46.8898 88.7811 45.7301 88.9083C45.4607 88.9383 45.1914 88.9682 44.9295 89.0355C44.503 89.1328 44.3983 89.0206 44.4806 88.5791C44.4956 88.5118 44.518 88.4445 44.533 88.3846C45.2213 85.8781 45.9994 83.3941 46.7925 80.9176C47.638 78.2914 48.5583 75.6877 49.2541 73.0091C49.4337 72.3133 49.6581 71.6175 49.5908 70.8768C49.5085 69.9715 48.8052 69.2756 47.8924 69.2233L47.8999 69.2158Z" stroke="black" stroke-width="2" stroke-miterlimit="10"/>
<path d="M83.4317 96.9964C81.9502 95.4476 80.2518 94.1682 78.4262 93.0534C74.9471 90.9434 71.3483 89.0879 67.4576 87.8384C67.3529 87.801 67.2407 87.7711 67.1359 87.7187C66.889 87.5915 66.8591 87.4344 67.091 87.2623C67.3679 87.0603 67.6671 86.9032 67.9515 86.7161C70.0464 85.317 72.1264 83.9104 74.1765 82.4439C76.7428 80.6108 79.2567 78.7179 81.7482 76.795C84.6363 74.5654 87.4944 72.3058 90.36 70.0538C91.3251 69.2981 92.223 68.4825 92.8589 67.4051C94.0187 65.4374 93.1059 62.8636 90.7116 62.2201C89.7016 61.9508 88.684 61.9882 87.6739 62.1004C85.6164 62.3398 83.6187 62.8411 81.621 63.3948C77.259 64.5994 73.0242 66.1557 68.9466 68.1085C66.8815 69.0961 64.824 70.1061 62.8188 71.2135C62.2801 71.5128 61.7489 71.8195 61.2102 72.1188C60.7313 71.4753 60.1253 70.9441 59.4295 70.4877C59.003 70.2034 58.6364 69.8966 58.3745 69.4627C57.327 67.7418 56.2721 66.021 55.2246 64.3001C54.8804 63.739 54.5438 63.1778 54.2071 62.6092C53.9377 62.1528 53.9452 62.0705 54.3343 61.7563C54.8056 61.3747 55.292 61.0006 55.7708 60.6115C56.9305 59.6688 58.1276 58.7709 59.1601 57.6861C60.3573 56.4366 59.8709 54.3341 58.2698 53.6907C57.4094 53.3465 56.6462 53.4737 55.883 53.9675C54.5887 54.8055 53.3766 55.7557 52.1346 56.6685C51.7829 56.9304 51.7081 56.9079 51.5285 56.5264C51.4163 56.2795 51.3265 56.0176 51.2367 55.7632C50.7429 54.379 50.2566 52.9874 49.7553 51.6107C49.4261 50.7054 48.7527 50.2565 47.8998 50.3388C46.9196 50.436 46.2612 51.2216 46.3211 52.2766C46.3585 52.9126 46.5231 53.5261 46.7026 54.1321C47.1665 55.6734 47.608 57.2147 48.1167 58.741C48.3487 59.4294 48.1916 59.8858 47.6529 60.3272C47.0393 60.821 46.4408 61.3298 45.8422 61.846C46.2088 60.7986 46.0517 59.5042 45.0042 58.2771C44.0465 57.4691 42.9691 57.2521 41.7571 57.6337C38.869 58.1275 31.6788 59.4668 29.6288 60.0728C28.5813 60.3796 27.5338 60.6714 26.4938 60.9856C26.1796 61.0754 25.8803 61.1128 25.5586 61.0081C24.3465 60.619 23.314 60.9407 22.4985 61.8834C22.1992 62.2276 21.8326 62.4072 21.4136 62.5344C17.8447 63.5968 14.3506 64.8762 10.8415 66.1033C9.824 66.4549 9.20299 67.48 9.34515 68.4302C9.52472 69.6048 10.3028 70.4653 11.4626 70.4728C12.6073 70.4728 14.6574 69.8443 15.0315 69.7395C15.9218 69.4851 16.8196 69.2307 17.7175 68.9838C17.8596 68.9464 18.0168 68.8492 18.1589 68.9988C18.2113 69.1559 18.1065 69.2607 18.0467 69.3729C17.4257 70.5251 16.7748 71.6699 16.1762 72.8371C14.9866 75.149 13.8269 77.4834 12.7719 79.8626C12.6073 80.2367 12.3754 80.4986 11.9788 80.6408C10.7592 81.0672 9.64443 81.5012 8.35753 82.0174C8.163 82.0698 7.98343 82.1746 7.80387 82.2718C6.75639 82.8629 6.5843 83.9104 6.78632 84.7858C6.98833 85.6686 7.87868 86.3271 8.85134 86.3794C9.00846 86.3869 9.16558 86.3794 9.33019 86.3794C9.84644 86.3794 9.87637 86.4168 9.6968 86.9256C9.59954 87.2025 9.47983 87.4718 9.38256 87.7486C8.64933 89.7688 7.89365 91.7814 7.19034 93.809C6.59927 95.5149 5.92589 97.1984 5.41711 98.9417C4.87093 100.82 5.51438 102.989 7.38487 104.119C9.34515 105.309 12.2033 104.673 13.3705 102.713C13.6697 102.204 13.9166 101.673 14.0438 101.089C14.4628 99.7647 15.7572 94.8415 15.9966 93.9736C16.9019 90.6741 17.9794 87.4344 19.2064 84.2396C19.4458 83.6261 19.79 83.2969 20.4409 83.1472C23.1644 82.5337 25.8878 81.9426 28.6711 81.6508C29.5839 81.5536 30.5117 81.374 31.4319 81.7182C31.6863 81.8079 31.9706 81.7705 32.24 81.7331C33.1603 81.591 34.0656 81.4039 34.9709 81.1795C36.1306 80.8877 37.1557 79.7354 37.1332 78.3213C37.1182 77.1766 35.9959 75.5605 34.4098 75.5156C34.0207 75.5081 33.6391 75.5156 33.2575 75.5829C32.2998 75.7401 31.3347 75.8897 30.3695 76.0244C28.0576 76.3461 25.7382 76.6379 23.4711 77.2065C23.0372 77.3113 22.5957 77.3786 22.057 77.4908C22.1917 77.1317 22.274 76.8773 22.3788 76.6379C22.8127 75.6652 23.2616 74.7001 23.6881 73.7274C24.6682 71.4903 25.7606 69.2981 26.6584 67.0236C26.823 66.5971 27.1148 66.3951 27.5413 66.2754C28.918 65.8938 30.2648 65.6319 31.6564 65.2952C34.9111 64.5096 37.1482 64.2403 41.585 63.9709C42.1761 63.956 42.7746 64.0158 43.3582 63.9335C43.0365 64.1879 42.6923 64.4273 42.2883 64.5844C41.3904 64.9286 40.9266 65.7217 40.6722 66.5821C40.4253 67.4201 40.5899 68.2431 41.2707 68.8941C42.191 69.7769 43.4929 69.8667 44.7199 69.1036C45.5878 68.5649 46.3959 67.9513 47.2039 67.3228C48.1542 66.5821 49.1193 65.8713 50.0695 65.1381C50.2865 64.966 50.4362 65.0109 50.5559 65.2429C50.6008 65.3252 50.6382 65.4 50.6756 65.4823C51.7679 67.8765 52.7032 70.3231 53.1072 72.9493C53.2045 73.5778 53.3766 74.1838 53.3841 74.8273C53.3915 75.4857 53.5711 76.0992 53.8554 76.6529C53.7731 76.7277 53.6908 76.81 53.616 76.8923C53.0698 77.5133 52.763 78.2465 52.8304 79.0621C52.9351 80.2741 53.7881 81.2842 54.9478 81.5161C56.3394 81.793 57.3271 81.6134 58.1276 80.4387C58.3072 80.1694 58.5317 79.9599 58.816 79.7953C59.624 79.3389 60.4171 78.8451 61.2401 78.4111C61.7489 78.1418 62.2053 77.7378 62.8787 77.6106C62.9086 77.9547 62.7739 78.1717 62.6916 78.4037C62.2203 79.6531 61.7265 80.8951 61.2925 82.1596C61.083 82.7582 60.7314 83.1547 60.1627 83.4315C59.0255 83.9927 57.8957 84.5838 56.7809 85.1823C56.1225 85.5415 55.4715 85.9081 54.858 86.342C53.2718 87.4568 52.763 89.1328 53.4364 90.9509C53.8704 92.1331 54.7757 92.8588 55.9429 93.2778C56.3095 93.405 56.6761 93.5247 57.0353 93.6519C57.2971 93.7417 57.3869 93.9213 57.2971 94.1831C57.2672 94.2654 57.2448 94.3552 57.2148 94.445C56.6013 96.3679 55.883 98.2458 55.1947 100.139C54.9104 100.924 54.5812 101.695 54.4989 102.541C54.3118 104.531 56.2122 106.244 58.1725 105.855C59.3098 105.631 60.1029 104.995 60.5368 103.925C60.9708 102.855 61.9808 99.2634 63.1929 95.7469C63.2603 95.4626 63.4548 95.4027 63.7167 95.5074C63.8214 95.5523 63.9262 95.5972 64.0309 95.6346C65.9388 96.3679 67.7494 97.3031 69.5376 98.2982C71.3258 99.2933 73.0616 100.363 74.6927 101.583C75.6729 102.316 76.5782 103.139 77.5284 103.91C79.152 105.219 81.5163 105.391 83.1548 104.142C84.524 103.094 85.16 101.725 84.9206 99.9966C84.7635 98.8369 84.2247 97.8568 83.4167 97.0188L83.4317 96.9964ZM69.9566 74.4232C70.0913 73.9743 70.3457 73.7199 70.7871 73.5254C73.3085 72.3956 75.8599 71.3407 78.4936 70.4877C78.8078 70.383 79.122 70.2558 79.5186 70.2857C79.4363 70.5775 79.2567 70.6523 79.1146 70.7571C76.0245 73.084 69.2234 78.0221 69.0064 77.8649C68.7146 77.648 69.6948 75.3211 69.9566 74.4307V74.4232Z" stroke="black" stroke-width="2" stroke-miterlimit="10"/>
<path d="M112.881 81.8528C111.339 81.808 109.858 82.1446 108.407 82.601C105.451 83.5213 102.668 84.8456 99.8846 86.1699C98.3882 86.8807 96.9217 87.6439 95.4403 88.3771C95.2757 88.4594 95.1185 88.5417 94.9465 88.6165C94.8417 88.6614 94.722 88.7138 94.6397 88.5941C94.5798 88.5118 94.6247 88.422 94.6621 88.3322C94.6995 88.2499 94.737 88.1676 94.7819 88.0928C95.6049 86.6862 96.4803 85.3095 97.4529 84.0002C99.2636 81.5685 101.127 79.1818 103.162 76.9222C104.583 75.3435 105.967 73.7274 107.479 72.231C107.688 72.0215 107.86 71.7821 108.055 71.5651C108.324 71.2733 108.556 70.9441 108.968 70.7346C109.117 71.1611 109.035 71.5427 109.065 71.9168C109.155 73.0765 110.097 74.1614 111.19 74.3709C112.469 74.6103 113.719 74.0641 114.205 72.9343C114.751 71.6699 115.552 70.5775 116.367 69.4926C118.806 66.2604 121.246 63.0207 123.251 59.4817C123.812 58.4941 124.336 57.4915 124.605 56.3767C125.256 53.7281 122.764 51.4236 120.243 52.1494C119.689 52.3065 119.173 52.531 118.709 52.8677C117.168 53.9825 115.686 55.1796 114.235 56.4066C113.367 57.1324 112.537 57.903 111.676 58.6363C110.262 59.8409 108.915 61.1203 107.569 62.3922C105.661 64.2029 103.828 66.0808 101.98 67.9513C101.216 68.722 100.483 69.5225 99.7499 70.3306C98.2909 71.9392 96.8469 73.5628 95.4702 75.2388C93.7718 77.3038 92.1108 79.3913 90.5919 81.591C89.335 83.3941 88.2426 85.302 87.1428 87.2025C86.1925 88.8485 85.2872 90.5244 84.7485 92.365C84.539 93.0683 84.3969 93.7641 84.4193 94.4974C84.5166 97.2133 86.6041 98.6648 89.0133 98.6723C89.754 98.6723 90.4947 98.4928 91.2055 98.2458C92.238 97.8942 93.248 97.4902 94.2207 97.0038C97.4978 95.3877 100.745 93.7267 104.052 92.178C104.688 91.8787 105.324 91.5869 105.967 91.2951C106.072 91.2502 106.177 91.2053 106.289 91.1903C106.424 91.1754 106.506 91.2577 106.461 91.3998C106.431 91.4821 106.364 91.5495 106.304 91.6168C105.242 92.8139 104.187 94.0335 103.094 95.2082C101.785 96.6148 100.483 98.0289 99.1438 99.413C97.2509 101.366 95.4178 103.364 93.7493 105.511C92.9114 106.588 92.2006 107.74 91.8938 109.102C91.5347 110.673 91.9237 112.058 93.1134 113.113C94.318 114.167 95.7396 114.616 97.3407 114.078C98.5902 113.659 99.6302 112.364 99.6526 111.085C99.6676 110.524 99.8471 110.075 100.206 109.678C101.471 108.264 102.713 106.82 104.03 105.451C104.905 104.538 105.75 103.588 106.626 102.668C107.105 102.159 107.591 101.65 108.047 101.111C108.796 100.236 109.559 99.3681 110.307 98.4928C111.175 97.4752 112.058 96.4801 112.888 95.4326C113.771 94.3103 114.632 93.1731 115.44 91.9984C116.263 90.8013 116.988 89.5518 117.407 88.1452C117.826 86.7236 117.766 85.3544 116.958 84.0974C116.023 82.6385 114.639 81.9202 112.903 81.8678L112.881 81.8528Z" stroke="black" stroke-width="2" stroke-miterlimit="10"/>
<path d="M152.745 47.9296C151.6 47.8847 150.552 48.2064 149.505 48.6029C148.106 49.1342 146.714 49.6803 145.308 50.2041C142.868 51.1244 140.429 52.0596 138.035 53.0846C135.993 53.96 133.957 54.8579 131.937 55.7707C129.64 56.8032 127.381 57.8881 125.316 59.3545C124.268 60.0953 123.647 61.038 123.52 62.2501C123.445 62.9609 123.116 63.3424 122.585 63.6941C121.56 64.3749 120.565 65.0857 119.981 66.223C118.53 70.1585 123.894 70.7122 125.069 68.9614C125.241 68.6546 125.503 68.4526 125.802 68.2805C126.887 67.667 127.957 67.031 129.049 66.4175C130.014 65.8788 131.002 65.3551 131.982 64.8388C132.169 64.7416 132.371 64.6069 132.663 64.6817C132.581 64.9511 132.521 65.183 132.439 65.4149C131.526 68.071 130.71 70.7571 129.999 73.4655C128.959 77.4534 128.121 81.4862 127.418 85.5415C127.373 85.8183 127.306 86.0727 127.134 86.2971C126.49 87.1276 126.236 88.1078 126.027 89.1104C125.6 91.1455 125.256 93.203 124.972 95.2605C124.68 97.3405 124.358 99.4205 124.41 101.53C124.455 103.311 125.48 104.875 127.126 105.556C128.952 106.311 131.069 105.668 132.162 104.037C132.506 103.521 132.73 102.959 132.895 102.368C133.411 100.461 133.501 98.4853 133.673 96.5325C133.748 95.6795 133.785 94.8191 133.845 93.9662C133.965 92.3426 134.167 90.7339 134.346 89.1178C134.578 87.0304 134.788 84.9354 135.08 82.8554C135.581 79.294 136.142 75.7401 136.92 72.231C137.676 68.8267 138.596 65.4673 139.614 62.1304C139.719 61.7787 139.906 61.5393 140.257 61.4046C141.058 61.0829 141.843 60.7237 142.637 60.402C146.445 58.8682 150.268 57.3793 154.017 55.7108C155.655 54.9851 156.635 53.3839 156.56 51.7529C156.463 49.6729 154.81 47.9894 152.73 47.9071L152.745 47.9296Z" stroke="black" stroke-width="2" stroke-miterlimit="10"/>
<path d="M135.529 196.162H166.953V184.939H146.752V142.292H166.953V131.069H146.752V115.357H166.953V104.134H135.529V196.162Z" fill="black"/>
<path d="M95.126 115.357H108.594V196.162H119.816V115.357H133.284V104.134H95.126V115.357Z" fill="black"/>
<path d="M86.1475 104.134H68.1908C64.4797 104.134 61.457 107.157 61.457 110.868V196.162H72.68V142.292H81.6584V196.162H92.8813V110.868C92.8813 107.157 89.8586 104.134 86.1475 104.134ZM81.6584 115.357V131.069H72.68V115.357H81.6584Z" fill="black"/>
<path d="M54.7233 110.868H52.4787V108.623C52.4787 106.147 50.4661 104.134 47.9895 104.134H18.8098V196.162H42.7521C51.8278 196.162 59.2125 188.778 59.2125 179.702V115.357C59.2125 112.881 57.1998 110.868 54.7233 110.868ZM47.9895 179.702C47.9895 182.59 45.6402 184.939 42.7521 184.939H30.0328V115.357H47.9895V179.702Z" fill="black"/>
</g>
<defs>
<clipPath id="clip0_447_4417">
<rect width="253.886" height="220" fill="white"/>
</clipPath>
</defs>
</svg>
