<svg width="243" height="157" viewBox="0 0 243 157" fill="none" xmlns="http://www.w3.org/2000/svg">
<g filter="url(#filter0_din_367_2203)">
<path d="M153.266 87.2415C152.946 87.1323 152.614 87.0584 152.282 87.0082C151.537 86.899 150.446 86.834 149.082 87.0407C148.928 87.0643 148.916 87.0909 148.898 87.2504C148.892 87.2946 148.898 87.3389 148.892 87.3832C148.866 87.5958 148.818 87.8025 148.67 87.956C148.593 88.0358 148.551 88.1273 148.528 88.2336C148.418 88.7385 148.338 89.2463 148.252 89.7542C148.107 90.6252 147.982 91.5051 147.772 92.3613C147.754 92.4381 147.73 92.5208 147.748 92.5976C147.807 92.6182 147.837 92.5798 147.869 92.5533C148.228 92.2905 148.587 92.0277 148.946 91.762C149.711 91.1921 150.467 90.6104 151.17 89.9609C151.647 89.518 152.095 89.0426 152.531 88.5525C152.83 88.2159 153.091 87.8497 153.349 87.4807C153.45 87.336 153.432 87.2917 153.269 87.2356L153.266 87.2415Z" fill="url(#paint0_linear_367_2203)"/>
<path d="M138.947 88.9746C138.834 89.0396 138.772 89.1164 138.745 89.2463C138.698 89.5032 138.49 90.1793 138.573 90.2325C138.636 90.2708 140.344 88.7266 141.118 88.0003C141.153 87.9678 141.201 87.9442 141.215 87.8586C141.109 87.8586 141.029 87.9028 140.946 87.9412C140.258 88.2424 139.599 88.5967 138.947 88.9746Z" fill="url(#paint1_linear_367_2203)"/>
<path d="M215.94 96.0138C214.472 93.4597 203.207 73.2904 198.928 65.7789C198.72 65.4275 198.783 65.3331 197.878 65.4895C196.615 65.6608 194.768 66.1657 193.591 66.1745C193.362 66.1391 193.255 65.9944 193.116 65.8173C191.613 63.8006 185.958 55.9703 183.467 52.6132C181.744 50.9567 168.502 41.4906 165.895 39.4533C165.524 39.1758 165.436 39.1876 164.78 39.6216C163.805 40.3125 162.74 41.0566 161.8 41.777C161.429 42.0693 161.115 42.3971 160.819 42.7632C160.312 43.3833 159.704 44.2838 159.422 44.4787C159.33 44.5495 159.214 44.5614 159.155 44.4432C158.236 42.0339 155.721 34.3866 154.443 30.8553C154.343 30.6368 154.233 30.6279 154.022 30.5925C151.051 30.2087 127.279 26.3141 124.512 26.0868C124.044 26.512 123.712 27.4893 123.308 28.2304C122.691 29.5 122.17 30.2884 122.024 31.7558C121.725 33.4654 121.375 36.3708 121.04 37.8117C120.877 38.2014 120.349 37.1178 119.726 36.3265C118.208 34.1888 115.655 30.5777 114.902 29.5236C114.792 29.3701 114.691 29.2431 114.567 29.1428C114.335 29.0187 114.184 29.1073 113.873 29.1664C108.473 30.377 99.0792 32.37 93.1102 33.7518C91.417 35.7596 83.6629 47.8358 82.4323 49.4007C82.1566 49.8052 82.032 48.9135 81.605 47.9244C80.5761 45.2257 78.3047 39.2319 77.6316 37.5253C77.51 37.2123 77.2846 37.2713 76.9911 37.3953C73.5069 38.6886 66.3518 41.4463 62.4673 42.8843C61.7645 43.15 61.2397 43.3449 60.9491 43.46C60.6437 43.584 60.5784 43.6401 60.528 43.9295C60.107 46.6902 58.2033 61.0695 57.883 63.0005C57.8119 63.3666 57.5598 63.0005 57.3967 62.8617C56.2462 61.6777 52.7028 57.9013 51.5018 56.7439L51.49 56.738C51.3892 56.6819 51.3239 56.7203 51.2468 56.7882C50.7842 57.2192 49.0733 58.8461 46.7515 61.0429C40.5126 66.9983 31.9193 75.0354 27.427 79.3521C27.1927 79.6178 27.0089 79.6326 27 79.9161C27.424 82.1748 29.5857 93.1792 30.4219 97.1594C32.1595 98.866 58.7608 120.128 67.8996 127.642C68.0449 127.757 68.0983 127.811 68.1131 127.356C68.1576 126.57 68.0835 125.127 68.122 124.22C68.1369 123.647 68.0894 123.213 68.3148 122.809C68.5016 122.555 68.807 122.493 69.1124 122.398C70.2511 122.1 72.6885 121.516 73.9695 121.179C74.3787 121.064 74.8057 120.898 75.0459 120.553C75.3632 120.069 75.4225 119.458 75.55 118.858C75.7279 118.088 75.6034 117.382 74.9213 116.921C73.8805 116.121 71.7189 114.559 70.77 113.842C70.5328 113.665 70.2956 113.481 70.177 113.233C70.0969 112.643 70.4705 112.262 70.7937 111.338C71.6566 109.277 72.6055 106.974 73.4802 104.889C73.7946 104.145 73.8746 103.634 74.7938 103.82C75.9977 103.983 77.2787 104.187 78.4915 104.361C79.731 104.494 80.923 105.007 81.6762 103.921C82.2811 103.097 83.1736 102.034 82.456 101.01C81.8037 99.8728 80.4071 97.6023 79.8051 96.5777C79.6272 96.2411 79.3396 95.872 79.5916 95.5148C80.1609 94.8445 81.3174 93.7491 82.1477 92.9165C83.4227 91.6468 84.7304 90.3388 85.9965 89.084C86.5481 88.5348 86.6934 88.455 87.3724 88.8448C87.6007 88.9688 87.8024 89.1017 88.0485 89.2434C89.282 89.9756 90.8536 90.9441 92.0427 91.6114C92.9797 92.1665 93.7447 91.5642 94.4949 91.0563C95.4082 90.5012 95.6929 89.8753 95.5061 88.9363C95.3015 87.3449 94.8537 84.8706 94.7411 83.6364C94.6788 82.8273 95.5002 82.8273 96.1614 82.4819C98.1807 81.6492 100.553 80.666 102.614 79.8157C104.265 79.1189 104.182 78.9919 105.247 80.48C106.163 81.6611 107.263 83.3057 108.197 84.3509C108.752 84.9621 109.701 84.717 110.519 84.5458C112.2 84.3037 112.132 83.1935 112.55 81.6876C112.788 80.7487 113.051 79.6887 113.253 78.8944C113.517 78.0057 113.455 77.1849 114.478 77.2764C116.34 77.2823 121.523 77.2557 123.48 77.2853C124.162 77.3325 124.124 77.6248 124.411 78.6464C124.714 79.854 125.096 81.3658 125.408 82.6177C125.6 83.5744 125.935 84.342 127 84.5015C127.993 84.7318 129.144 85.0477 129.808 84.0497C130.371 83.3322 131.285 82.0715 132.05 81.0528C132.429 80.542 132.753 80.0991 132.99 79.8009C133.405 79.2724 133.577 79.2045 134.081 79.3934C135.469 79.9515 140.453 82.0213 142.212 82.7447C142.968 83.0045 143.045 83.2879 142.965 83.9139C142.95 83.9169 142.938 83.9169 142.92 83.9198C142.262 84.0586 141.654 84.2741 141.097 84.4897C139.851 84.968 138.659 85.5526 137.559 86.2288C137.064 86.5299 136.483 86.8931 135.914 87.2888C135.128 87.832 134.493 88.3015 133.912 88.7592C133.725 88.9068 133.449 89.1223 133.218 89.4501C132.853 89.9668 132.708 90.5809 132.809 91.1803C132.818 91.2423 132.833 91.2984 132.844 91.3457C132.853 91.384 132.862 91.4254 132.871 91.4638C132.88 91.5051 132.889 91.5435 132.898 91.5848C132.907 91.6291 132.916 91.6675 132.925 91.7029C132.933 91.7443 132.942 91.7826 132.951 91.824C132.96 91.8624 132.966 91.9037 132.978 91.9421C132.984 91.9805 132.996 92.0218 133.005 92.0661C133.013 92.1045 133.022 92.1458 133.031 92.1872C133.04 92.2285 133.049 92.2669 133.058 92.3053C133.067 92.3466 133.076 92.385 133.085 92.4263C133.094 92.4677 133.102 92.506 133.111 92.5474C133.12 92.5887 133.129 92.6271 133.138 92.6684C133.147 92.7098 133.156 92.7482 133.165 92.7895C133.174 92.8279 133.183 92.8692 133.191 92.9076C133.2 92.946 133.209 92.9873 133.218 93.0257C133.218 93.0287 133.218 93.0346 133.218 93.0375C133.085 93.4834 133.082 93.9646 133.212 94.437C133.218 94.4666 133.227 94.502 133.236 94.5374C133.242 94.5699 133.251 94.6083 133.263 94.6467C133.269 94.6792 133.277 94.7176 133.289 94.7559C133.295 94.7884 133.304 94.8268 133.316 94.8652C133.322 94.8977 133.331 94.9361 133.343 94.9744C133.343 94.9862 133.349 95.001 133.352 95.0158C132.83 94.3455 132.124 93.8022 131.208 93.3771C130.205 92.9135 129.117 92.695 127.786 92.695C127.54 92.695 127.288 92.7009 127.012 92.7157C124.877 92.8308 122.688 93.3682 120.322 94.3603C118.819 94.9921 117.06 95.7982 115.394 96.997C114.943 97.3218 114.368 97.7883 113.95 98.494C113.389 99.4329 113.366 100.502 113.882 101.423C114.036 101.698 114.229 101.943 114.454 102.152C114.478 102.176 114.504 102.205 114.537 102.235C114.561 102.262 114.59 102.291 114.623 102.321C114.647 102.347 114.676 102.377 114.712 102.409C114.736 102.436 114.765 102.465 114.801 102.498C114.825 102.524 114.854 102.554 114.887 102.586C114.911 102.613 114.94 102.642 114.973 102.675C114.997 102.701 115.026 102.731 115.059 102.763C115.083 102.79 115.112 102.82 115.145 102.852C115.169 102.879 115.198 102.908 115.234 102.941C115.258 102.967 115.287 102.997 115.323 103.029C115.347 103.056 115.376 103.085 115.409 103.115C115.433 103.141 115.462 103.171 115.495 103.203C115.519 103.23 115.548 103.259 115.584 103.292C115.607 103.319 115.637 103.348 115.67 103.381C115.693 103.407 115.723 103.437 115.756 103.469C115.779 103.496 115.809 103.525 115.845 103.558C115.871 103.584 115.901 103.614 115.931 103.646C115.957 103.673 115.987 103.702 116.017 103.735C116.04 103.761 116.07 103.791 116.103 103.82C116.129 103.847 116.159 103.877 116.192 103.909C116.218 103.936 116.245 103.965 116.278 103.995C116.301 104.018 116.331 104.051 116.364 104.08C116.387 104.107 116.417 104.136 116.453 104.169C116.476 104.195 116.506 104.225 116.542 104.257C116.568 104.284 116.598 104.314 116.628 104.346C116.636 104.355 116.645 104.364 116.654 104.373C116.144 105.111 115.928 106.047 116.094 107.033C116.248 107.954 116.708 108.751 117.387 109.292C117.41 109.312 117.437 109.333 117.461 109.354C117.487 109.374 117.514 109.398 117.541 109.419C117.568 109.439 117.591 109.463 117.618 109.484C117.645 109.504 117.671 109.528 117.695 109.549C117.722 109.569 117.745 109.593 117.772 109.614C117.799 109.637 117.826 109.658 117.852 109.678C117.879 109.699 117.903 109.723 117.929 109.743C117.956 109.764 117.983 109.788 118.006 109.808C118.033 109.829 118.057 109.853 118.083 109.873C118.11 109.897 118.137 109.918 118.164 109.938C118.19 109.959 118.214 109.983 118.241 110.003C118.267 110.024 118.294 110.048 118.318 110.068C118.344 110.092 118.371 110.113 118.398 110.133C118.424 110.154 118.448 110.177 118.475 110.198C118.502 110.222 118.528 110.242 118.555 110.263C118.582 110.284 118.605 110.307 118.632 110.328C118.659 110.349 118.685 110.372 118.709 110.393C118.736 110.414 118.76 110.437 118.786 110.458C118.813 110.479 118.837 110.502 118.863 110.523C118.89 110.544 118.917 110.567 118.943 110.588C118.97 110.609 118.994 110.632 119.021 110.653C119.047 110.676 119.074 110.697 119.101 110.718C119.124 110.738 119.151 110.759 119.178 110.78C119.204 110.803 119.231 110.824 119.258 110.845C119.284 110.865 119.308 110.889 119.335 110.91C119.362 110.93 119.385 110.954 119.412 110.975C119.439 110.995 119.462 111.019 119.489 111.04C119.516 111.063 119.542 111.084 119.569 111.105C119.596 111.125 119.622 111.149 119.646 111.17C119.673 111.19 119.7 111.214 119.723 111.235C119.75 111.255 119.774 111.279 119.8 111.299C119.827 111.323 119.854 111.344 119.88 111.364C119.907 111.385 119.931 111.409 119.958 111.429C119.984 111.453 120.011 111.474 120.038 111.497C120.064 111.518 120.088 111.542 120.115 111.562C120.141 111.583 120.168 111.607 120.192 111.627C120.218 111.648 120.242 111.672 120.269 111.692C120.296 111.713 120.322 111.736 120.349 111.757C120.376 111.781 120.402 111.801 120.429 111.825C120.554 111.931 120.687 112.026 120.826 112.111C118.816 111.92 116.814 111.592 114.857 111.273C114.665 111.24 114.472 111.226 114.279 111.226C112.654 111.226 111.314 112.327 110.94 113.966C110.848 114.364 110.828 114.763 110.86 115.15C110.836 115.141 110.816 115.132 110.792 115.126C110.753 115.111 110.715 115.097 110.676 115.085C110.638 115.07 110.599 115.055 110.561 115.043C110.522 115.029 110.484 115.014 110.445 115.002C110.406 114.987 110.368 114.973 110.329 114.961C110.291 114.946 110.252 114.931 110.214 114.919C110.175 114.905 110.137 114.89 110.098 114.878C110.06 114.863 110.021 114.849 109.982 114.837C109.944 114.822 109.905 114.807 109.867 114.795C109.828 114.781 109.79 114.766 109.751 114.754C109.713 114.739 109.674 114.725 109.635 114.713C109.597 114.698 109.558 114.683 109.52 114.671C109.481 114.657 109.443 114.642 109.404 114.63C109.366 114.615 109.327 114.601 109.289 114.589C109.25 114.574 109.211 114.559 109.173 114.547C109.134 114.533 109.096 114.518 109.057 114.506C109.019 114.491 108.98 114.477 108.942 114.465C108.903 114.45 108.865 114.435 108.826 114.423C108.787 114.409 108.749 114.394 108.71 114.382C108.672 114.367 108.633 114.353 108.595 114.341C108.556 114.326 108.518 114.311 108.479 114.299C108.44 114.285 108.402 114.27 108.363 114.258C108.325 114.243 108.286 114.228 108.248 114.217C108.209 114.202 108.171 114.187 108.132 114.175C108.094 114.161 108.055 114.146 108.016 114.134C107.978 114.119 107.939 114.104 107.901 114.093C107.862 114.078 107.824 114.063 107.785 114.051C107.747 114.037 107.708 114.022 107.67 114.01C107.631 113.995 107.592 113.98 107.554 113.969C107.515 113.954 107.477 113.939 107.438 113.927C107.4 113.913 107.361 113.898 107.323 113.886C107.29 113.874 107.254 113.859 107.222 113.848C108.814 110.907 110.048 108.288 111.053 105.722C111.154 105.468 111.257 105.214 111.361 104.963C111.723 104.086 112.1 103.177 112.316 102.143C112.488 101.326 112.396 100.534 112.046 99.8551C111.859 99.489 111.607 99.1701 111.296 98.9103C111.252 98.8689 111.21 98.8335 111.174 98.804C111.133 98.7656 111.091 98.7302 111.056 98.7006C111.014 98.6623 110.973 98.6268 110.937 98.5973C110.896 98.5589 110.854 98.5235 110.819 98.494C110.777 98.4556 110.739 98.4201 110.7 98.3906C110.659 98.3522 110.617 98.3168 110.581 98.2873C110.54 98.2489 110.498 98.2135 110.463 98.1839C110.421 98.1455 110.38 98.1101 110.344 98.0806C110.303 98.0422 110.261 98.0068 110.226 97.9772C110.184 97.9389 110.143 97.9034 110.107 97.871C110.065 97.8326 110.027 97.7971 109.988 97.7676C109.947 97.7292 109.905 97.6938 109.87 97.6643C109.828 97.6259 109.79 97.5905 109.751 97.5609C109.71 97.5225 109.668 97.4871 109.633 97.4576C109.591 97.4192 109.552 97.3838 109.514 97.3542C109.472 97.3159 109.434 97.2804 109.395 97.2509C109.354 97.2125 109.315 97.1771 109.277 97.1476C109.235 97.1092 109.197 97.0737 109.158 97.0442C109.117 97.0058 109.078 96.9704 109.039 96.9409C108.998 96.9025 108.959 96.8671 108.921 96.8375C108.879 96.7992 108.841 96.7667 108.802 96.7342C108.761 96.6958 108.722 96.6604 108.684 96.6279C108.639 96.5866 108.598 96.5511 108.565 96.5246C108.524 96.4862 108.485 96.4537 108.446 96.4212C108.405 96.3828 108.363 96.3474 108.328 96.3149C108.283 96.2736 108.242 96.2382 108.209 96.2116C108.168 96.1732 108.126 96.1378 108.091 96.1082C108.049 96.0699 108.008 96.0344 107.972 96.0049C107.93 95.9665 107.889 95.9311 107.853 95.9016C107.812 95.8632 107.77 95.8277 107.735 95.7982C107.693 95.7598 107.652 95.7244 107.616 95.6949C107.572 95.6535 107.53 95.6181 107.498 95.5886C107.453 95.5472 107.412 95.5118 107.379 95.4852C107.334 95.4439 107.293 95.4085 107.26 95.3819C107.216 95.3406 107.174 95.3051 107.142 95.2785C107.1 95.2402 107.059 95.2047 107.023 95.1752C106.979 95.1339 106.937 95.0984 106.904 95.0719C106.86 95.0305 106.821 94.9951 106.786 94.9685C106.744 94.9301 106.706 94.8947 106.67 94.8681C106.101 94.3278 105.36 94.0325 104.577 94.0325C104.182 94.0325 103.788 94.1064 103.397 94.251C101.635 94.9036 100.28 96.1023 99.2986 97.0737C97.7271 98.6268 96.1762 100.493 94.4238 102.935C93.8633 103.159 93.4215 103.617 93.1724 104.257C93.0894 104.473 93.0034 104.689 92.9204 104.904C92.6476 105.601 92.3659 106.321 92.1079 107.048C91.678 108.249 92.0575 109.501 93.0746 110.234C93.2644 110.372 93.4749 110.482 93.7003 110.564C93.7507 110.588 93.804 110.609 93.8574 110.626C93.9078 110.647 93.9582 110.668 94.0116 110.688C94.062 110.712 94.1154 110.733 94.1688 110.75C94.2192 110.771 94.2725 110.792 94.3259 110.812C94.3763 110.833 94.4297 110.854 94.4831 110.874C94.5187 110.889 94.5542 110.904 94.5898 110.919C92.4104 114.618 90.6638 117.828 89.1308 120.949C88.345 122.549 88.7631 124.512 90.1242 125.614C90.6787 126.06 91.3666 126.322 92.0723 126.355C92.1257 126.361 92.182 126.364 92.2354 126.367C92.2888 126.373 92.3422 126.376 92.3985 126.379C92.4519 126.384 92.5053 126.387 92.5616 126.39C92.615 126.396 92.6713 126.399 92.7247 126.402C92.7781 126.408 92.8314 126.411 92.8878 126.414C92.9411 126.42 92.9975 126.423 93.0509 126.426C93.1042 126.432 93.1576 126.435 93.214 126.438C93.2673 126.443 93.3237 126.446 93.377 126.449C93.4304 126.455 93.4838 126.458 93.5401 126.461C93.5935 126.467 93.6498 126.47 93.7032 126.473C93.7566 126.479 93.81 126.482 93.8663 126.485C93.9197 126.491 93.976 126.494 94.0294 126.497C94.0828 126.503 94.1391 126.506 94.1925 126.508C94.2459 126.514 94.3022 126.517 94.3556 126.52C94.4089 126.526 94.4623 126.529 94.5187 126.532C94.5869 126.538 94.658 126.544 94.7262 126.544C94.7707 126.547 94.8092 126.547 94.8419 126.55C94.8952 126.556 94.9457 126.559 94.9901 126.559C95.0494 126.565 95.1058 126.567 95.1532 126.57C95.2125 126.576 95.2689 126.579 95.3163 126.582C95.3756 126.588 95.432 126.591 95.4794 126.594C95.5387 126.6 95.595 126.603 95.6425 126.606C95.7018 126.612 95.7581 126.615 95.8056 126.618C95.8649 126.624 95.9212 126.627 95.9687 126.63C96.028 126.635 96.0843 126.638 96.1318 126.641C96.1911 126.647 96.2474 126.65 96.2948 126.653C96.3541 126.659 96.4105 126.662 96.4579 126.665C96.5202 126.671 96.5736 126.674 96.621 126.677C96.6803 126.683 96.7367 126.686 96.7841 126.689C96.8434 126.694 96.8998 126.697 96.9472 126.7C97.0095 126.706 97.0628 126.709 97.1103 126.712C97.1696 126.718 97.2259 126.721 97.2734 126.724C97.3327 126.73 97.389 126.733 97.4365 126.736C97.4987 126.742 97.5521 126.745 97.5995 126.748C97.6589 126.754 97.7152 126.756 97.7626 126.759C97.8219 126.765 97.8783 126.768 97.9257 126.771C97.988 126.777 98.0414 126.78 98.0888 126.783C98.1481 126.789 98.2045 126.792 98.2519 126.795C98.3023 126.801 98.3557 126.804 98.412 126.807C98.5158 126.818 98.6226 126.821 98.7263 126.821C99.7049 126.821 100.591 126.37 101.161 125.578C101.285 125.404 101.454 125.257 101.757 125.05C102.996 124.205 104.44 123.532 106.175 122.989C107.791 122.481 109.312 122.003 111.023 121.92C112.589 121.843 113.828 120.526 113.905 118.855C113.908 118.787 113.905 118.719 113.905 118.654H113.914V118.657L113.938 118.666L114.003 118.693L114.024 118.702L114.11 118.737L114.122 118.743L114.202 118.773H114.211L114.279 118.802L114.3 118.811L114.368 118.838L114.389 118.846L114.463 118.876L114.584 118.923H114.59L114.653 118.95L114.676 118.959L114.739 118.982L114.759 118.991L114.831 119.018L114.854 119.027L114.925 119.053L114.949 119.062L115.014 119.089L115.038 119.097L115.121 119.13L115.136 119.136L115.198 119.159L115.222 119.168C115.249 119.177 115.272 119.189 115.299 119.198L115.317 119.204L115.385 119.23L115.409 119.239L115.477 119.266L115.501 119.275L115.569 119.301L115.593 119.31L115.661 119.337L115.685 119.345L115.753 119.372L115.774 119.381L115.845 119.41L115.868 119.419L115.937 119.446L115.963 119.455L116.043 119.487L116.055 119.493L116.12 119.52L116.141 119.528L116.212 119.558L116.236 119.567L116.301 119.593L116.325 119.602C116.349 119.611 116.375 119.623 116.399 119.632L116.411 119.638L116.497 119.67H116.506C116.53 119.685 116.553 119.694 116.58 119.703L116.595 119.709L116.663 119.735L116.687 119.744L116.758 119.771L116.782 119.779L116.85 119.806L116.874 119.815L116.957 119.847H116.966L117.031 119.877L117.049 119.886C117.075 119.898 117.102 119.906 117.132 119.918L117.143 119.924L117.215 119.951C117.39 120.019 117.624 120.107 117.882 120.181C120.936 121.028 123.649 121.439 126.176 121.439C126.543 121.439 126.917 121.43 127.279 121.412C129.046 121.327 131.685 121.076 134.223 119.859C136.023 118.997 137.295 117.825 138.108 116.275C138.547 115.439 138.766 114.618 138.772 113.768C138.778 113.086 138.683 112.421 138.487 111.796C138.478 111.766 138.467 111.736 138.458 111.707C138.452 111.686 138.446 111.669 138.437 111.648C138.431 111.627 138.422 111.607 138.416 111.586C138.41 111.565 138.401 111.545 138.395 111.527C138.389 111.506 138.384 111.488 138.375 111.468C138.369 111.447 138.363 111.429 138.354 111.409C138.348 111.388 138.339 111.367 138.333 111.35C138.327 111.332 138.321 111.314 138.315 111.294C138.309 111.276 138.301 111.252 138.295 111.232C138.289 111.214 138.283 111.193 138.274 111.175C138.268 111.158 138.259 111.134 138.253 111.113C138.247 111.096 138.241 111.075 138.232 111.057C138.226 111.04 138.218 111.019 138.212 110.995C138.206 110.975 138.197 110.954 138.191 110.933C138.185 110.913 138.179 110.895 138.17 110.874C138.164 110.854 138.155 110.833 138.149 110.815C138.143 110.795 138.137 110.777 138.129 110.756C138.123 110.736 138.117 110.718 138.108 110.697C138.102 110.676 138.093 110.656 138.087 110.635C138.081 110.617 138.075 110.6 138.069 110.582C138.063 110.561 138.054 110.541 138.048 110.52C138.043 110.502 138.037 110.482 138.031 110.464C138.025 110.446 138.016 110.423 138.01 110.402C138.004 110.381 137.995 110.364 137.989 110.343C137.983 110.322 137.977 110.304 137.968 110.284C137.962 110.263 137.954 110.242 137.948 110.225C137.942 110.207 137.936 110.186 137.927 110.169C137.921 110.148 137.912 110.127 137.906 110.107C137.9 110.089 137.894 110.068 137.888 110.051C137.882 110.033 137.874 110.009 137.868 109.989C137.862 109.968 137.853 109.947 137.847 109.929C137.841 109.909 137.832 109.891 137.826 109.87C137.82 109.85 137.814 109.832 137.805 109.811C137.799 109.791 137.791 109.77 137.785 109.749C137.779 109.729 137.773 109.711 137.764 109.69C137.758 109.67 137.749 109.649 137.743 109.631C137.737 109.611 137.728 109.593 137.722 109.572C137.716 109.552 137.71 109.534 137.702 109.513C137.696 109.495 137.69 109.481 137.684 109.463C137.358 108.388 136.756 107.405 135.893 106.555C135.504 106.171 135.092 105.816 134.656 105.489C134.905 105.064 135.119 104.621 135.294 104.157C135.409 103.853 135.498 103.549 135.561 103.248C135.952 103.584 136.456 103.788 136.993 103.788C137.2 103.788 137.405 103.758 137.604 103.699C138.348 103.478 138.897 102.923 139.116 102.179C139.155 102.049 139.19 101.887 139.243 101.636C139.596 101.81 139.887 101.972 140.148 102.143C140.261 102.217 140.385 102.309 140.516 102.406C140.616 102.48 140.714 102.554 140.815 102.625C141.26 102.938 141.782 103.106 142.318 103.106C142.671 103.106 143.009 103.035 143.324 102.896C143.62 103.071 143.955 103.165 144.305 103.165C144.96 103.165 145.559 102.837 145.948 102.264C145.978 102.223 146.013 102.17 146.049 102.108C146.452 101.777 146.873 101.458 147.235 101.19C147.837 100.741 148.436 100.286 149.035 99.8344L149.542 99.4506C150.277 98.8955 150.909 98.3729 151.475 97.8562C152.21 97.183 152.875 96.4685 153.447 95.7362C153.803 95.2786 154.085 94.8445 154.304 94.4016C154.458 94.0975 154.571 93.8081 154.654 93.5158C154.669 93.4715 154.681 93.4273 154.692 93.383C154.707 93.3387 154.719 93.2973 154.731 93.2531C154.746 93.2088 154.758 93.1674 154.77 93.1231C154.784 93.0788 154.796 93.0346 154.808 92.9932C154.823 92.9489 154.835 92.9076 154.847 92.8633C154.861 92.819 154.873 92.7777 154.885 92.7334C154.9 92.6891 154.912 92.6478 154.924 92.6035C154.939 92.5592 154.95 92.5179 154.962 92.4736C154.968 92.4499 154.977 92.4293 154.983 92.4057C156.228 93.6458 157.435 94.8504 157.957 95.3789C158.455 95.81 158.171 96.2441 157.901 96.7106C157.311 97.7056 156.036 99.7961 155.357 100.948C154.592 102.058 155.238 102.893 155.932 103.853C156.762 105.129 157.812 104.615 159.238 104.452C160.599 104.275 162.061 103.986 163.259 103.885C163.748 103.844 163.891 104.145 164.063 104.538C164.73 106.129 166.802 111.111 167.44 112.652C167.535 112.885 167.603 113.086 167.559 113.307C167.458 113.57 167.2 113.759 166.957 113.939C166.008 114.657 163.846 116.219 162.805 117.019C162.174 117.47 161.993 118.123 162.165 118.873C162.283 119.461 162.352 120.113 162.654 120.609C162.879 120.966 163.292 121.141 163.698 121.259C164.946 121.592 167.387 122.177 168.561 122.481C169.628 122.682 169.602 123.243 169.602 124.253C169.634 125.153 169.557 126.615 169.611 127.424C169.625 127.905 169.679 127.876 169.833 127.79C172.866 125.891 210.913 104.384 212.859 102.846C213.597 101.535 214.878 98.5707 215.679 97.118C215.889 96.684 215.987 96.4626 215.999 96.3208C216.005 96.2382 215.987 96.1791 215.951 96.1053L215.94 96.0138ZM70.8738 81.103C70.8501 81.3333 70.7997 81.6935 70.7403 82.1748C70.1592 86.6864 69.4594 92.2403 68.8604 96.8789C68.7744 97.5727 68.7655 97.4842 67.9619 97.5403C67.0842 97.5875 66.2569 97.6377 65.3347 97.6879C60.6348 97.9625 54.2981 98.305 49.9036 98.5619L30.4812 79.5824C32.9364 77.2764 36.4977 73.7982 39.0063 71.5129C39.2227 71.3771 39.3295 71.4981 39.5015 71.6576C43.6528 75.9891 50.5441 83.2584 54.6391 87.5338C54.9949 87.9324 55.3626 88.1804 55.8607 87.8055C56.4093 87.4393 57.2485 86.7455 57.803 86.3114C58.4464 85.7947 58.9001 85.4493 58.2567 84.8381C57.4264 83.9493 55.3833 81.8175 54.2565 80.6276C51.9526 78.1592 44.836 70.819 42.5913 68.3182C42.5438 68.2266 42.5527 68.1469 42.6209 68.0465C42.7217 67.9018 42.953 67.6892 43.297 67.3615C43.9078 66.7798 44.8537 65.8822 45.8738 64.9108C47.5017 63.3577 49.4469 61.5124 50.8228 60.2191C51.1075 59.9209 51.3358 60.1453 51.5671 60.3845C54.218 63.1894 59.2026 68.3536 61.6667 70.9814C64.4184 73.8868 69.4119 79.0805 70.7255 80.5036C70.8916 80.7074 70.9005 80.8137 70.8738 81.1001V81.103ZM88.5555 75.2509C86.892 75.8857 79.7428 78.5697 77.8807 79.2724C77.3291 79.5086 77.2016 79.4259 77.0148 78.9122C76.2913 77.0195 74.0674 71.2265 73.3765 69.4106L73.3705 69.3959C71.5083 64.5063 64.6794 46.7168 64.03 44.9836C63.9766 44.8241 63.9559 44.7415 64.1367 44.6499C64.2969 44.5673 64.6379 44.4462 65.1509 44.2513C67.7662 43.2947 72.9346 41.2692 75.6627 40.3243C75.7487 40.3155 75.7902 40.345 75.8287 40.4129C75.9592 40.7082 76.3417 41.7475 76.9318 43.2711C81.2106 54.4881 86.21 67.4353 88.769 74.2086C88.9262 74.6427 89.1278 75.0797 88.5526 75.248L88.5555 75.2509ZM116.287 64.7632C115.916 65.3301 115.498 65.9738 115.136 66.523C114.863 66.9098 114.736 67.1342 114.383 67.3113C112.565 67.828 108.687 68.5573 106.415 69.0976C103.524 69.7443 97.4157 71.0464 94.5958 71.6782C94.3585 71.7225 94.1688 71.7255 94.0264 71.504L94.0086 71.4775C93.6884 70.7954 93.5787 69.824 93.3711 69.0297C93.1102 67.8812 92.7484 66.1982 92.4904 65.0526C92.3778 64.3941 92.1791 64.0605 92.7721 63.9542C94.9664 63.4729 106.427 60.9691 108.464 60.5203C108.942 60.4671 108.829 60.0951 108.758 59.7349C108.485 58.5095 107.818 55.4388 107.498 54.0924C107.429 53.8533 107.376 53.5816 107.079 53.6348C106.581 53.7233 105.137 54.057 103.278 54.4556C98.8361 55.4211 92.1405 56.9033 91.0315 57.1248C90.5719 57.2133 90.5956 56.2862 90.4207 55.7282C90.0708 54.1603 89.4422 51.2904 89.0715 49.634C88.9529 48.9814 88.7839 48.7334 88.9974 48.2137C89.7209 46.6075 93.1072 39.0901 94.5542 35.9102C94.6936 35.6208 94.747 35.5588 95.0198 35.4909C96.7278 35.11 109.923 32.2282 112.218 31.7263C112.482 31.6525 112.681 31.6643 112.749 31.9655C113.12 33.6514 114.169 37.9829 114.463 39.8342C114.451 39.9759 114.365 40.0291 114.241 40.0675C113.846 40.1738 112.805 40.3863 111.426 40.6934C107.512 41.5526 100.953 42.9817 99.4766 43.3094C98.9339 43.4364 99.1533 43.8025 99.2423 44.3753C99.4054 45.1253 99.6989 46.4333 99.9095 47.3782C100.046 47.9893 100.135 48.4175 100.233 48.6212C100.289 48.7364 100.348 48.7925 100.437 48.8102C102.599 48.4824 111.575 46.3359 115.569 45.5652C115.717 45.5593 115.779 45.6745 115.818 45.8074C116.438 48.4824 117.416 52.9438 118.027 55.6957C119.308 61.5212 119.501 59.6965 116.287 64.7602V64.7632ZM106.243 119.198C104.055 119.248 102.157 119.9 100.248 120.5C98.3082 121.108 96.4461 121.914 94.7262 123.086C94.317 123.367 93.9345 123.671 93.6202 124.105C93.0123 124.949 91.844 125.059 91.0464 124.415C90.2102 123.739 89.967 122.528 90.4503 121.542C92.2858 117.807 94.3081 114.202 96.4194 110.659C97.8457 108.264 99.2008 105.816 100.425 103.283C100.529 103.068 100.651 102.843 100.42 102.648C100.185 102.45 100.013 102.645 99.8709 102.817C98.501 104.461 97.1459 106.121 95.939 107.922C95.7403 108.217 95.5476 108.515 95.3222 108.781C94.9308 109.242 94.3793 109.309 93.9315 108.985C93.469 108.651 93.2792 108.084 93.4927 107.488C93.8218 106.561 94.1866 105.651 94.5424 104.739C94.658 104.446 94.8359 104.237 95.1473 104.21C95.3371 104.195 95.4201 104.018 95.5209 103.877C96.9976 101.81 98.5544 99.8256 100.331 98.0688C101.392 97.0176 102.531 96.0905 103.901 95.5827C104.126 95.5 104.345 95.4587 104.556 95.4587C104.556 95.4587 104.559 95.4587 104.562 95.4587C104.571 95.4587 104.583 95.4587 104.592 95.4587C105.191 95.4675 105.71 95.7953 106.018 96.3917C106.261 96.8641 106.285 97.3867 106.178 97.8975C105.89 99.2557 105.303 100.475 104.808 101.739C103.21 105.822 101.226 109.667 99.0881 113.417C98.584 114.302 98.1007 115.206 97.6084 116.1C97.5076 116.286 97.4187 116.481 97.5669 116.685C97.7182 116.895 97.902 116.821 98.0888 116.756C99.9154 116.115 101.754 115.534 103.649 115.185C104.218 115.079 104.796 114.981 105.374 114.978C105.383 114.978 105.392 114.978 105.404 114.978C105.419 114.978 105.434 114.978 105.452 114.978C105.724 114.978 105.997 115.005 106.27 115.061C107.352 115.288 107.993 116.165 107.942 117.29C107.895 118.368 107.157 119.127 106.252 119.192L106.243 119.198ZM142.597 65.0407C140.462 64.6746 137.648 64.3528 136.124 64.0073C135.916 63.9217 135.937 63.7741 135.955 63.5703C136.231 61.6748 137.63 52.994 138.016 50.2983C138.054 49.8849 137.562 49.8643 137.254 49.7934C136.634 49.6871 135.531 49.5188 134.905 49.4302C134.644 49.4125 134.333 49.318 134.117 49.4627C133.512 51.689 131.685 65.832 131.134 67.6125C131.056 67.6656 130.914 67.6568 130.653 67.6213C130.229 67.5593 129.449 67.4383 128.497 67.2906C126.727 67.016 124.554 66.6854 122.846 66.4196C121.817 66.207 121.339 66.3045 120.797 66.0151L120.782 66.0003C120.556 65.6697 120.687 65.2179 120.717 64.8134C121.538 59.5695 125.6 33.4802 126.386 28.5877C126.41 28.5138 126.448 28.4784 126.555 28.4755C126.736 28.4696 127.196 28.5552 127.967 28.6703C130.33 29.0365 135.101 29.7687 136.48 29.9843C136.762 30.0315 137.076 30.0669 137.017 30.4035C136.708 32.5442 135.614 39.3884 135.122 42.586C135.033 43.1943 134.935 43.4098 135.46 43.5457C135.78 43.6313 136.118 43.6756 136.468 43.7317C137.073 43.8173 137.823 43.959 138.398 44.0092C138.674 44.0299 138.837 44.0122 138.929 43.9295C139.487 42.0339 140.602 33.1318 141.064 30.9616C141.162 30.6899 141.316 30.749 141.648 30.7815C141.998 30.8317 142.576 30.9232 143.291 31.0324C145.447 31.3631 148.928 31.9005 150.989 32.2164C151.834 32.3493 151.822 32.3345 151.763 32.7066C150.9 38.2162 147.576 59.5134 146.781 64.5299C146.674 65.5338 146.061 65.5752 145.213 65.4393C144.225 65.2888 143.727 65.2149 142.594 65.0378L142.597 65.0407ZM127.777 94.1861C127.815 94.1861 127.851 94.1861 127.89 94.1861C127.824 94.1861 127.759 94.1861 127.694 94.1861C127.721 94.1861 127.75 94.1861 127.777 94.1861ZM126.149 119.889C126.131 119.889 126.113 119.889 126.096 119.889C126.457 119.889 126.819 119.883 127.181 119.865C126.837 119.883 126.493 119.889 126.149 119.889ZM134.822 107.526C135.908 108.595 136.489 109.915 136.474 111.524C136.468 112.289 136.246 112.982 135.905 113.632C135.051 115.262 133.734 116.275 132.216 117.004C129.891 118.117 127.424 118.501 124.901 118.622C121.428 118.787 118.024 118.203 114.653 117.267C114.309 117.172 113.974 117.031 113.642 116.892C112.663 116.475 112.138 115.383 112.387 114.296C112.61 113.319 113.369 112.714 114.264 112.708C114.27 112.708 114.273 112.708 114.279 112.708C114.288 112.708 114.297 112.708 114.306 112.708C114.407 112.708 114.51 112.717 114.617 112.734C117.722 113.242 120.826 113.744 123.964 113.765C126.042 113.777 128.106 113.638 130.09 112.912C130.908 112.61 131.715 112.268 132.308 111.527C132.607 111.152 132.601 111.049 132.26 110.691C131.323 109.717 130.191 109.182 128.972 108.855C126.923 108.303 124.85 108.155 122.76 108.235C121.734 108.273 120.723 108.403 119.705 108.527C118.623 108.657 117.74 107.954 117.547 106.806C117.36 105.687 117.974 104.73 119.003 104.423C121.864 103.575 124.687 102.613 127.299 101.042C128.236 100.478 129.046 99.7311 129.598 98.6977C129.947 98.0422 129.998 97.9152 129.221 97.6023C128.204 97.1918 127.145 97.2598 126.107 97.3572C124.239 97.5344 122.466 98.1249 120.726 98.8512C119.75 99.2557 118.792 99.7045 117.876 100.254C117.734 100.339 117.63 100.425 117.576 100.623C117.44 101.14 117.111 101.461 116.628 101.482C116.046 101.506 115.504 101.334 115.166 100.729C114.887 100.233 114.943 99.7341 115.216 99.2735C115.48 98.8276 115.857 98.5058 116.254 98.2194C117.701 97.1771 119.278 96.4212 120.889 95.748C122.881 94.9124 124.933 94.3337 127.083 94.2156C128.272 94.1536 129.452 94.2186 130.576 94.7382C131.546 95.187 132.361 95.8514 132.732 97.0117C133.046 98.0009 132.954 98.9723 132.598 99.9083C131.893 101.763 130.665 103.103 129.188 104.198C129.082 104.278 128.948 104.328 128.877 104.497C129.417 104.647 129.95 104.783 130.478 104.945C132.097 105.444 133.556 106.286 134.825 107.538L134.822 107.526ZM122.41 111.078C122.41 111.078 122.436 111.078 122.451 111.078C122.445 111.078 122.439 111.078 122.436 111.078C122.428 111.078 122.419 111.078 122.41 111.078ZM136.966 102.232C136.934 102.232 136.901 102.226 136.871 102.223C136.907 102.229 136.942 102.232 136.981 102.232C136.975 102.232 136.972 102.232 136.966 102.232ZM142.292 101.547C142.265 101.547 142.238 101.544 142.209 101.541C142.241 101.541 142.274 101.547 142.307 101.547C142.301 101.547 142.295 101.547 142.289 101.547H142.292ZM144.275 101.609C144.275 101.609 144.261 101.606 144.252 101.606C144.273 101.606 144.296 101.606 144.317 101.606C144.302 101.606 144.287 101.612 144.275 101.612V101.609ZM154.485 88.5377C154.259 88.9836 153.984 89.394 153.681 89.7867C153.053 90.5927 152.356 91.3279 151.609 92.013C150.938 92.6271 150.236 93.197 149.515 93.7402C148.637 94.4046 147.76 95.0719 146.876 95.7303C146.393 96.0905 145.915 96.4507 145.453 96.8346C145.293 96.9645 145.138 97.0974 145.055 97.2981C145.046 97.3218 145.029 97.3395 145.014 97.3602C144.708 97.8178 144.213 97.7174 143.988 97.2834C143.718 96.7696 143.742 96.25 144.006 95.748C144.187 95.4055 144.486 95.1782 144.759 94.9242C145.132 94.5758 145.542 94.2747 145.948 93.9735C146.031 93.9115 146.09 93.8436 146.108 93.7314C146.921 90.5868 147.33 88.1421 147.484 87.5132C147.493 87.4807 147.505 87.4511 147.508 87.4216C147.522 87.333 147.493 87.2976 147.407 87.3183C147.078 87.3921 146.754 87.4866 146.434 87.5929C146.366 87.6165 146.324 87.6696 146.304 87.7405C146.277 87.8379 146.236 87.9324 146.185 88.0181C146.058 88.2365 145.853 88.3192 145.619 88.2365C145.509 88.1982 144.833 87.9472 144.738 87.6933C144.628 87.401 144.611 87.1146 144.688 86.837C144.545 87.1086 144.347 87.3301 144.133 87.5427C143.416 88.2425 142.701 88.9422 141.98 89.6361C141.358 90.2355 140.726 90.826 140.083 91.3988C139.567 91.8565 139.042 92.3023 138.511 92.7422C138.44 92.8013 138.363 92.8544 138.295 92.9165C138.235 92.9696 138.247 93.0139 138.315 93.0434C138.342 93.0552 138.375 93.0611 138.404 93.07C139.481 93.3328 140.495 93.7698 141.482 94.2835C142.001 94.5522 142.487 94.874 142.923 95.2756C143.161 95.4941 143.33 95.7569 143.401 96.0787C143.505 96.56 143.368 96.9586 143.027 97.2834C142.618 97.6731 141.977 97.679 141.509 97.3483C141.236 97.1535 140.972 96.9409 140.691 96.7608C140.222 96.4537 139.727 96.1939 139.223 95.9547C138.719 95.7155 138.209 95.497 137.678 95.3347C137.648 95.3258 137.619 95.314 137.589 95.3051C137.518 95.2815 137.467 95.3051 137.455 95.3848C137.215 96.4006 137.031 97.434 136.939 97.744C136.848 98.054 136.649 98.2518 136.349 98.3404C135.83 98.494 135.279 98.057 135.282 97.493C135.282 97.2539 135.353 97.0265 135.409 96.8021C135.549 96.2529 135.697 95.7096 135.813 95.1545C135.819 95.1309 135.822 95.1043 135.828 95.0807C135.845 95.004 135.816 94.9567 135.744 94.9361C135.644 94.9095 135.543 94.8829 135.442 94.8563C135.119 94.7648 134.855 94.5817 134.71 94.2599C134.484 93.7639 134.582 93.2826 134.982 92.9312C135.137 92.7954 135.303 92.6773 135.472 92.5621C135.756 92.3673 136.047 92.1753 136.338 91.9923C136.483 91.9007 136.569 91.7826 136.61 91.6084C136.696 91.2423 136.8 90.8821 136.895 90.5219C136.913 90.4569 136.942 90.392 136.928 90.2945C136.75 90.3477 136.64 90.4687 136.507 90.5573C136.296 90.699 136.094 90.8555 135.89 91.0032C135.819 91.0563 135.762 91.1183 135.721 91.201C135.534 91.5494 135.273 91.6232 134.893 91.5789C134.576 91.5405 134.321 91.2748 134.265 90.9382C134.226 90.7079 134.292 90.4953 134.422 90.3093C134.532 90.1528 134.68 90.0376 134.825 89.9225C135.454 89.4265 136.1 88.9599 136.756 88.5052C137.269 88.148 137.796 87.8173 138.33 87.4925C139.38 86.8488 140.48 86.3144 141.625 85.8744C142.146 85.6737 142.671 85.4877 143.22 85.3725C143.49 85.3164 143.763 85.2839 144.041 85.3371C144.628 85.4493 144.934 86.0191 144.806 86.5506C144.821 86.524 144.833 86.4975 144.848 86.4709C144.946 86.3114 145.109 86.2229 145.26 86.1313C145.77 85.8154 147.594 85.2131 150.301 84.9414C151.315 84.8381 152.332 84.9207 153.328 85.2012C153.705 85.3075 154.067 85.4404 154.363 85.7239C154.642 85.9896 154.799 86.3173 154.861 86.7041C154.968 87.3714 154.781 87.9649 154.491 88.5407L154.485 88.5377ZM145.379 93.4243C145.42 93.4243 145.462 93.4154 145.5 93.4036C145.462 93.4184 145.423 93.4273 145.382 93.4273L145.379 93.4243ZM168.531 84.9208C166.711 87.1205 167.419 87.6519 164.943 85.7859C162.989 84.3538 159.12 81.5046 157.91 80.6099C157.729 80.4711 157.548 80.3058 157.687 80.0932C160.119 76.7804 163.837 71.9144 166.061 68.9293C167.146 67.4826 171.182 62.1147 173.222 59.4012C173.795 58.7251 173.637 58.604 173.021 58.1257C172.345 57.6179 171.488 56.986 170.82 56.5165C170.509 56.3098 170.34 56.239 170.21 56.2951C167.173 60.0833 160.916 68.64 158.076 72.3455C156.893 73.9193 155.656 75.5668 154.479 77.1288C153.999 77.8522 153.821 77.6012 153.248 77.1908C150.959 75.5107 148.356 73.5915 146.126 71.9558L146.09 71.9292C145.168 71.3712 144.827 70.5681 145.574 69.6911C146.084 69.0061 146.47 68.5042 147.137 67.6095C151.864 61.3027 163.769 45.5062 166.109 42.3941C166.159 42.3439 166.203 42.3292 166.269 42.3587C166.373 42.4 166.556 42.5477 166.883 42.7839C167.618 43.3242 168.973 44.3222 170.568 45.4944C174.592 48.4559 180.122 52.5098 181.053 53.2037C181.211 53.3306 181.273 53.4133 181.335 53.6259C181.706 55.1672 182.154 57.234 182.551 58.979C182.916 60.603 183.277 62.2121 183.639 63.8065C183.808 64.5595 183.817 64.5831 183.387 65.1529C183.159 65.4541 182.942 65.7464 182.702 66.0653C177.632 72.8091 173.961 77.6986 168.531 84.9148V84.9208ZM184.926 110.514C183.773 111.122 182.382 112.017 181.178 112.554L181.154 112.56C181.018 112.593 180.944 112.56 180.87 112.46C178.853 108.816 171.731 96.3622 171.04 94.9301C171.298 92.1842 172.356 87.1382 172.78 84.2003C172.917 83.6305 172.84 83.1964 173.163 82.786C179.538 78.9978 186.085 75.5698 195.331 70.3082C196.642 69.5789 197.567 69.0475 197.887 68.8851C198.169 68.7729 198.169 68.9677 198.528 69.5583C198.703 69.8742 198.881 70.1783 199.061 70.509C200.455 73.0305 202.878 77.2233 204.132 79.5706C204.203 79.7596 204.102 79.8009 203.957 79.8895C201.502 81.2684 187.749 88.957 182.521 91.883C182.174 92.0809 181.667 92.3555 181.291 92.5799C180.95 92.8013 180.535 93.008 180.514 93.4332C180.514 93.693 180.653 93.9528 180.778 94.192C181.119 94.812 181.638 95.7451 181.988 96.3385C182.358 97.059 182.898 97.0856 183.532 96.7253C184.057 96.4507 184.638 96.1141 185.074 95.872C190.741 92.7157 204.153 85.1658 206.436 83.9346C206.507 83.9139 206.561 83.9287 206.62 83.9995C206.712 84.1058 206.842 84.3538 207.068 84.7524C207.527 85.5703 208.316 86.9758 209.158 88.4757C210.32 90.5366 211.705 93.0139 212.657 94.7294C211.616 96.0403 187.319 108.931 184.926 110.511V110.514Z" fill="url(#paint2_linear_367_2203)"/>
</g>
<defs>
<filter id="filter0_din_367_2203" x="0" y="0.886792" width="243" height="155.753" filterUnits="userSpaceOnUse" color-interpolation-filters="sRGB">
<feFlood flood-opacity="0" result="BackgroundImageFix"/>
<feColorMatrix in="SourceAlpha" type="matrix" values="0 0 0 0 0 0 0 0 0 0 0 0 0 0 0 0 0 0 127 0" result="hardAlpha"/>
<feOffset dy="1.8"/>
<feGaussianBlur stdDeviation="13.5"/>
<feComposite in2="hardAlpha" operator="out"/>
<feColorMatrix type="matrix" values="0 0 0 0 1 0 0 0 0 1 0 0 0 0 1 0 0 0 1 0"/>
<feBlend mode="normal" in2="BackgroundImageFix" result="effect1_dropShadow_367_2203"/>
<feBlend mode="normal" in="SourceGraphic" in2="BackgroundImageFix" result="shape"/>
<feColorMatrix in="SourceAlpha" type="matrix" values="0 0 0 0 0 0 0 0 0 0 0 0 0 0 0 0 0 0 127 0" result="hardAlpha"/>
<feOffset dx="1.8" dy="1.8"/>
<feGaussianBlur stdDeviation="1.8"/>
<feComposite in2="hardAlpha" operator="arithmetic" k2="-1" k3="1"/>
<feColorMatrix type="matrix" values="0 0 0 0 0 0 0 0 0 0 0 0 0 0 0 0 0 0 0.25 0"/>
<feBlend mode="normal" in2="shape" result="effect2_innerShadow_367_2203"/>
<feTurbulence type="fractalNoise" baseFrequency="0.37037038803100586 0.37037038803100586" stitchTiles="stitch" numOctaves="3" result="noise" seed="7918" />
<feColorMatrix in="noise" type="luminanceToAlpha" result="alphaNoise" />
<feComponentTransfer in="alphaNoise" result="coloredNoise1">
<feFuncA type="discrete" tableValues="0 0 0 0 0 0 0 0 0 0 0 0 1 1 1 1 1 1 1 1 1 1 1 1 1 1 1 1 1 1 1 1 1 1 1 1 1 1 0 0 0 0 0 0 0 0 0 0 0 0 0 0 0 0 0 0 0 0 0 0 0 0 0 0 0 0 0 0 0 0 0 0 0 0 0 0 0 0 0 0 0 0 0 0 0 0 0 0 0 0 0 0 0 0 0 0 0 0 0 0 "/>
</feComponentTransfer>
<feComposite operator="in" in2="effect2_innerShadow_367_2203" in="coloredNoise1" result="noise1Clipped" />
<feFlood flood-color="#C57564" result="color1Flood" />
<feComposite operator="in" in2="noise1Clipped" in="color1Flood" result="color1" />
<feMerge result="effect3_noise_367_2203">
<feMergeNode in="effect2_innerShadow_367_2203" />
<feMergeNode in="color1" />
</feMerge>
<feBlend mode="normal" in="effect3_noise_367_2203" in2="effect1_dropShadow_367_2203" result="effect3_noise_367_2203"/>
</filter>
<linearGradient id="paint0_linear_367_2203" x1="150.577" y1="86.9057" x2="150.577" y2="92.6034" gradientUnits="userSpaceOnUse">
<stop stop-color="#A7271D"/>
<stop offset="1" stop-color="#C57564"/>
</linearGradient>
<linearGradient id="paint1_linear_367_2203" x1="139.885" y1="87.8586" x2="139.885" y2="90.2332" gradientUnits="userSpaceOnUse">
<stop stop-color="#A7271D"/>
<stop offset="1" stop-color="#C57564"/>
</linearGradient>
<linearGradient id="paint2_linear_367_2203" x1="121.5" y1="26.0868" x2="121.5" y2="127.84" gradientUnits="userSpaceOnUse">
<stop stop-color="#A7271D"/>
<stop offset="1" stop-color="#C57564"/>
</linearGradient>
</defs>
</svg>
