<svg width="247" height="308" viewBox="0 0 247 308" fill="none" xmlns="http://www.w3.org/2000/svg">
<path d="M138.748 0.330425C138.959 0.534071 139.018 1.00049 139.064 1.2961L140.169 1.05961C141.334 1.76909 140.321 3.11578 140.597 4.17999C140.702 4.59385 141.933 4.33108 141.564 6.20988C141.472 6.70257 140.801 7.64197 140.84 8.03613C140.86 8.25291 141.452 8.22006 141.59 8.59451C141.959 9.64559 141.189 11.6098 142.031 12.7594C142.321 13.1536 142.972 13.2587 143.275 13.817C143.624 14.4608 143.459 15.3805 143.939 15.9652C144.551 16.7075 146.597 16.9637 147.387 17.6272C147.788 16.0506 149.637 16.806 150.677 17.4104C151.157 17.6863 151.637 18.5206 152.039 18.6191C152.604 18.7571 153.17 18.1527 153.677 18.2644C154.124 18.3695 154.414 18.9542 154.861 19.1053C155.243 19.2367 155.763 19.1447 156.217 19.2826C156.671 19.4206 157.151 19.933 157.625 19.9264C158.44 19.9067 158.69 18.5994 159.197 18.4286C159.789 18.225 160.704 18.7243 161.447 18.6717C162.191 18.6191 162.618 18.0476 163.434 18.1856C163.743 18.2381 165.342 19.0724 165.665 19.3023C166.053 19.5783 166.171 20.1432 166.448 20.3074C167.553 20.9709 170.27 20.4914 171.172 22.2256L171.968 20.9841L174.376 21.0695C174.764 21.306 174.284 22.4884 174.376 23.0994C174.455 23.638 174.922 24.0453 174.882 24.63C174.843 25.149 174.31 25.5497 174.369 26.1606C174.455 27.0869 175.652 28.2628 176.442 28.7095C176.837 28.9328 177.37 28.8868 177.791 29.1496C178.554 29.6292 179.534 30.7919 180.192 31.0875C181.35 31.6065 183.199 31.3569 184.6 31.797C184.995 31.9218 187.837 33.2619 188.061 33.4459C188.686 33.9517 188.535 34.6743 188.838 35.2261C189.311 36.1064 190.344 38.0115 191.121 38.5633C191.805 39.0494 192.693 39.1217 193.397 39.864C194.101 40.6063 194.502 42.2355 195.2 42.6625C195.7 42.9713 196.937 42.9647 197.095 43.2012C197.286 43.4902 197.141 44.8829 197.529 45.4478C197.792 45.8223 198.371 45.8157 198.667 46.1048C199.253 46.6829 200.871 49.593 201.042 49.7376C201.714 50.2894 204.036 50.4273 204.293 51.7215C204.661 53.6003 203.556 54.3689 203.543 55.0323C203.536 55.4462 203.997 55.8601 204.049 56.3331C204.102 56.806 203.747 57.2922 203.911 57.7126C204.161 58.3432 205.556 58.6323 206.076 59.1381C206.635 59.6834 207.161 61.1089 207.609 61.6279C207.925 61.9957 208.497 61.641 208.661 62.4424C208.938 63.7957 207.813 63.9468 207.694 64.5183C207.615 64.8731 208.036 65.392 207.655 65.9767C207.365 66.4102 206.477 66.1343 206.398 67.0934C206.345 67.7635 206.845 68.092 206.813 68.5321C206.767 69.0905 205.918 69.6095 205.905 69.8459C205.878 70.2138 207.938 72.6707 206.872 73.6889C206.089 74.4444 205.503 73.6035 205.839 75.9882C205.957 76.829 206.576 77.4531 206.602 78.0378C206.694 79.7655 206.503 79.8049 207.214 81.5523C207.609 82.518 209.043 85.5661 210.089 85.7566C210.398 85.8158 210.984 85.5136 211.556 85.5727C213.774 85.7895 214.688 87.642 215.695 87.8522C217.432 88.2069 224.492 88.6536 225.867 87.8128C226.761 87.2675 227.525 86.1376 228.9 85.7369C231.222 85.0603 233.104 86.5646 234.848 84.0158C235.295 83.3654 235.604 81.8282 236.078 81.6443C237.4 81.7362 239.618 81.0662 240.23 82.4983C242.559 80.7246 242.23 83.5362 242.901 84.4296C243.519 85.2574 245.263 85.4807 246.197 87.261C246.803 88.4106 246.441 88.542 246.559 89.4485C246.592 89.685 246.98 89.9412 247 90.2828C247.013 90.5324 246.066 92.4441 245.848 92.7003C245.362 93.2915 244.69 93.3638 244.184 93.8433C243.289 94.6908 243.046 96.7338 243.197 97.9163C243.348 99.0987 244.401 100.051 244.427 100.748C244.467 101.687 243.486 101.786 243.427 102.035C243.375 102.265 244.329 103.231 243.908 103.907C243.026 104.295 242.111 104.131 241.177 104.367C240.243 104.604 239.414 105.464 238.841 105.615C238.322 105.753 237.802 105.28 237.282 105.576C236.828 105.891 237.203 107.133 236.914 107.764C236.644 108.361 235.67 108.348 235.558 109.222C235.407 110.404 236.65 111.738 235.499 112.73C234.282 113.781 233.446 112.178 231.979 112.152C231.393 112.139 231.222 112.533 230.834 112.552C229.413 112.612 227.123 112.02 225.748 111.744C224.992 111.593 222.083 112.093 221.458 112.5C220.879 112.874 220.741 113.755 220.182 114.287C218.215 116.159 217.406 114.011 215.307 114.26C214.491 116.198 213.728 119.023 211.076 118.76C210.267 118.682 207.78 118.255 207.023 117.972C206.398 117.742 204.983 116.724 204.74 116.744C204.641 116.75 202.97 117.466 202.858 117.545C202.371 117.874 201.181 119.588 200.674 119.831C199.253 120.508 196.963 120.265 195.937 120.698C195.568 120.856 195.535 121.329 195.22 121.519C194.45 121.992 193.844 122.393 193.14 122.84C192.759 123.083 191.989 122.965 191.818 123.497C191.568 124.259 191.739 126.131 191.522 126.992C191.469 127.195 191.015 127.156 191.009 127.307C190.996 127.642 191.318 128.122 191.265 128.792C191.2 129.54 190.555 130.27 190.515 130.881C190.469 131.551 190.963 132.346 190.877 133.081C190.792 133.817 190.009 134.52 190.002 134.954C189.995 135.387 190.535 135.86 190.528 136.491C190.528 137.24 189.792 137.601 189.745 138.284C189.732 138.501 189.995 141.115 190.048 141.286C190.449 142.679 192.897 142.823 193.344 143.362C193.766 143.868 193.759 145.392 194.233 146.049C194.785 146.811 196.996 147.527 196.134 148.874C196.864 149.051 198.417 149.255 198.647 150.076C198.792 150.582 198.549 151.219 198.825 151.685C198.99 151.968 199.99 152.362 200.358 152.704C201.378 153.65 202.22 154.983 203.799 155.39C204.872 155.666 205.444 155.259 206.451 156.06C207.122 156.593 208.036 158.53 208.589 158.846C209.214 159.207 209.944 158.964 210.53 159.141C210.958 159.273 211.491 160.081 212.07 160.416C214.142 161.631 217.142 160.968 215.833 164.706C216.938 164.778 216.103 162.741 217.241 162.649C218.116 162.577 221.097 164.548 221.36 165.468C221.511 166 221.208 166.302 221.228 166.637C221.287 167.754 225.729 169.915 226.176 170.848C226.761 172.063 226.321 173.705 226.623 174.743C226.715 175.059 228.044 176.478 228.38 177.075C229.091 178.337 228.867 178.948 229.183 180.104C229.308 180.564 230.222 181.175 230.36 181.759C230.735 183.277 227.044 186.292 228.235 188.46C228.63 189.176 230.61 189.222 230.683 190.128C230.735 190.831 229.768 191.212 230.288 192.283C230.531 192.782 231.005 192.612 230.88 193.623C230.643 195.568 229.156 195.272 229.124 195.489C229.038 196.192 229.558 196.579 229.656 197.256C229.788 198.189 229.288 200.147 229.413 200.547C229.577 201.066 230.308 201.02 230.597 201.296C231.17 201.841 231.104 203.352 231.222 203.484C231.38 203.661 232.216 203.411 232.413 204.482C232.519 205.067 230.189 210.257 232.538 209.626C233.848 209.271 233.986 206.354 235.4 210.677C236.637 208.581 237.118 211.235 237.071 212.602C237.045 213.443 236.367 215.341 236.381 215.656C236.394 215.9 237.249 216.826 237.447 217.312C237.729 218.028 238.368 220.281 238.361 221.017C238.348 222.534 237.96 222.797 236.427 222.686C235.663 222.626 234.558 221.779 234.275 222.856C234.19 223.178 235.788 225.228 236.085 226.082C236.381 226.936 236.637 227.724 236.539 228.65C236.486 229.163 235.532 233.676 235.4 233.912C235.111 234.431 234.532 234.293 234.321 234.49C234.111 234.687 234.038 235.417 233.742 235.837C233.374 236.363 232.374 236.783 232.249 237.151C231.959 237.992 232.387 239.595 232.15 240.633C231.946 241.546 230.893 241.94 230.722 242.525C230.466 243.379 230.933 245.047 230.551 245.671C230.196 246.249 229.091 245.159 228.268 245.389L227.827 246.65L226.097 246.709C225.814 248.752 223.195 249.685 222.268 251.439C221.472 252.937 221.985 254.435 220.814 256.116C219.82 257.535 218.188 258.468 216.471 258.402C215.728 259.007 216.34 259.552 216.346 260.117C216.346 261.03 215.221 260.557 214.866 260.774C214.695 260.879 214.701 261.805 214.142 261.983C213.471 262.199 213.024 261.588 212.649 261.582C212.102 261.582 211.484 262.607 210.8 262.731C208.997 263.06 208.74 261.365 207.878 264.775L206.411 264.584C206.385 265.793 202.292 267.363 201.792 266.837L201.654 266.095C201.161 267.383 199.786 267.52 199.082 268.374C198.779 268.742 198.74 269.248 198.444 269.524C198.121 269.82 196.674 270.385 196.397 270.864C196.239 271.134 195.956 272.881 196.003 273.131C196.075 273.551 196.858 273.696 197.134 274.188C197.45 274.747 197.325 275.469 197.568 276.054C199.43 276.842 201.26 277.933 203.095 278.728C203.608 278.951 204.51 278.511 204.997 279.641C205.201 280.114 204.865 280.442 204.918 280.751C204.977 281.079 205.582 281.283 205.641 281.815C205.753 282.86 204.174 283.333 204.089 283.641C203.694 285.087 204.826 288.049 201.792 287.806C201.667 288.706 203.082 288.621 203.293 289.251C203.549 290.014 202.635 291.899 201.858 292.109C201.082 292.319 200.608 291.59 199.891 291.636C199.115 291.682 198.463 292.536 197.693 292.661C197.562 292.845 199.648 295.249 197.529 296.708C196.378 297.502 195.799 296.977 194.759 296.983C193.66 296.997 192.2 297.128 191.16 297.003C190.371 296.905 189.732 296.248 189.417 296.274C188.838 296.32 188.41 297.207 187.831 297.266C187.14 297.332 186.239 296.438 185.068 296.734C184.811 296.799 184.495 298.304 183.699 298.488C182.903 298.672 181.804 297.759 181.488 297.805C181.225 297.844 180.916 298.317 180.561 298.416C180.047 298.56 179.475 298.475 179.001 298.645C178.343 298.882 177.962 299.598 177.113 299.545C176.31 299.493 176.008 298.731 175.508 298.58C174.948 298.416 174.369 298.606 173.705 298.337C173.126 298.1 172.606 297.108 171.935 297.049C171.264 296.99 170.968 297.851 170.257 297.719C170.165 297.699 168.77 297.089 168.645 297.003C168.092 296.635 168 295.978 167.5 295.722C167.553 296.773 167 297.745 166.211 298.416C165.605 298.225 164.158 298.573 163.836 298.494C163.559 298.429 161.789 297.305 161.368 297.141C160.947 296.977 159.848 297.272 158.875 296.793C158.197 296.458 157.743 295.479 157.598 295.453C156.881 295.289 155.947 295.939 154.901 295.663C154.078 295.446 153.216 294.218 152.499 293.719C151.624 293.108 150.42 293.219 149.788 291.827C149.479 291.15 148.933 289.159 149.137 288.496C149.262 288.089 149.742 287.938 149.854 287.557C149.565 287.327 148.032 288.601 147.032 287.944C146.249 287.432 147.538 286.735 147.17 286.276C146.565 285.803 145.63 285.993 144.999 285.632C144.367 285.271 144.413 284.482 143.952 284.127C143.604 283.858 142.893 283.819 142.498 283.549C141.979 283.195 141.498 282.452 140.768 282.209C140.63 283.037 139.301 283.379 139.242 283.464C139.202 283.53 138.669 284.857 138.656 284.935C138.59 285.415 139.294 285.908 139.38 286.663C139.505 287.721 138.86 288.483 138.906 288.93C138.965 289.606 140.255 290.624 140.354 291.065C140.518 291.767 139.61 291.932 140.88 292.576C140.781 293.916 140.031 295.197 140.439 296.576C140.761 297.66 143.999 299.178 143.696 300.169C143.63 300.393 142.044 301.457 141.689 301.759C141.11 302.259 140.742 303.677 139.728 302.902C139.097 302.416 139.426 301.306 138.34 301.608C138.88 303.677 138.11 304.683 136.097 305.11C134.906 305.366 133.031 304.972 131.952 304.413C131.84 305.819 131.195 305.911 130.287 304.932C129.432 306.095 129.004 307.52 127.464 308L126.872 307.566C126.668 306.732 127.024 305.629 126.78 304.847C126.537 304.065 124.879 303.967 125.293 302.626C124.056 303.198 123.286 303.533 121.852 303.382C121.444 303.336 120.997 302.942 120.813 302.955C120.563 302.975 120.056 303.848 119.266 303.901C118.582 303.947 117.845 303.375 116.983 303.375C115.463 303.375 114.391 304.794 114.167 302.114C112.996 302.114 112.24 303.651 111.358 303.638C110.943 303.631 110.628 303.237 110.305 303.211C109.884 303.172 109.489 303.448 108.871 303.349C107.331 303.099 106.344 301.444 104.963 300.84L100.653 301.089C100.14 302.58 98.9819 303.388 97.5213 302.383L97.6463 301.135L96.7712 300.643L95.758 301.359C94.5803 300.242 94.0868 301.102 93.2381 301.03C92.6459 300.984 91.3564 300.215 90.626 300.091C89.8497 299.953 89.0272 300.202 88.1851 299.966C87.5337 299.782 87.5995 299.132 87.185 298.928C86.3625 298.521 85.4743 298.928 84.994 297.502C82.961 298.639 81.1319 298.067 79.0001 297.772C79.5068 295.9 78.9475 296.464 78.2303 295.604C77.0592 294.205 77.4013 292.096 76.7236 291.045C76.3552 290.48 73.4866 290.263 73.4273 289.475C73.605 288.733 74.4537 288.352 74.7695 287.793C75.013 287.366 74.9604 286.808 75.3025 286.282C75.8091 285.5 76.9539 285.579 76.5986 284.233C76.4144 283.549 75.3749 282.531 75.921 281.789C76.342 281.217 78.9738 282.393 80.2831 281.802C80.6187 281.651 82.3359 279.739 82.4609 279.365C82.7175 278.603 82.1912 278.09 82.4412 277.598L84.119 276.441L83.1847 274.917C83.3294 274.123 84.369 271.239 84.2637 270.7C83.8821 268.769 81.2832 268.841 80.6713 268.131C80.5726 268.02 79.3883 266.22 79.3489 266.108C79.1975 265.602 79.4344 265.293 79.5068 264.827C77.625 264.275 76.2368 265.477 75.0327 263.553C74.1511 264.88 73.5589 263.848 72.4075 263.618C69.8415 263.112 67.5387 263.618 65.4399 261.634C64.8148 261.05 64.2687 259.697 63.7424 259.493C62.7949 259.125 63.17 260.531 62.4791 260.688C61.0843 260.196 59.3539 260.426 58.0183 260.104C57.7748 260.045 55.6299 259.184 55.472 259.072C54.8996 258.659 54.847 257.844 54.5312 257.647C53.8995 257.253 52.5902 257.542 51.8994 257.016C51.5375 256.74 51.0506 255.597 50.8598 255.118H50.4914C49.2084 256.727 46.3332 256.103 44.8857 255.085C44.5238 254.829 44.3725 254.211 44.0632 254.139C43.754 254.067 43.379 254.467 42.7474 254.172C42.2407 253.935 41.9973 253.213 41.5302 252.819C40.7538 252.162 39.6945 251.951 39.0826 251.432C38.4707 250.913 38.372 249.974 37.9378 249.508C36.6679 248.148 33.7138 249.219 33.1085 248.759C32.944 247.32 32.9506 247.649 31.8057 246.946L31.3649 248.161C30.6017 248.969 27.5028 247.274 26.9567 246.427C26.8514 246.262 25.5684 242.906 25.5487 242.709C25.4631 242.012 25.7855 241.48 25.7987 240.817C24.5683 241.06 23.9433 240.232 23.2656 239.358L24.0025 237.874L23.1077 237.236C22.7656 238.11 22.2458 238.13 21.351 237.972C20.9365 237.821 20.9694 237.197 20.6667 236.868C20.068 236.218 18.8047 236.028 18.1534 235.292C17.3901 234.418 16.9362 232.605 15.8834 231.751L16.3309 230.601C14.3965 230.293 12.6595 227.139 12.5608 225.293C12.5279 224.715 12.8108 224.183 12.7714 223.572C12.7122 222.699 11.9687 221.496 12.1134 220.373C10.3567 218.705 7.27753 218.691 8.14602 215.525C4.40889 215.249 8.04732 211.347 7.61966 209.028C7.35648 207.57 4.40889 205.993 4.86287 204.476C5.09973 203.687 6.36299 203.654 6.09981 202.137C5.98138 201.441 5.08657 201.119 4.92209 200.475C4.81023 200.028 5.19184 199.391 5.06025 199.207C5.00104 199.122 3.8628 198.938 3.42855 198.149C2.58638 196.606 2.89561 193.584 4.54706 192.684L3.2838 188.723H4.3102C3.86937 187.829 3.90885 187.461 4.82339 187.067L4.43521 186.43C3.59962 187.284 3.43513 188.361 1.92843 187.908C0.934935 187.612 1.5534 186.857 1.36918 186.43C1.21127 186.069 0.461218 185.839 0.461218 185.274C1.28365 184.164 1.27707 182.771 1.94818 181.641C2.26399 181.109 3.39565 180.196 3.43513 179.913C3.45487 179.775 2.71139 177.345 2.63901 177.226C2.45479 176.918 1.51393 176.708 1.09284 176.221C-0.387532 174.52 1.66526 173.311 1.74421 171.978C1.79027 171.143 0.76387 170.027 1.76395 169.192C2.0337 168.969 2.69165 169.054 2.77718 168.549C1.45471 168.351 2.00739 166.972 2.52058 166.131C0.869142 165.343 0.395423 164.173 0.79019 162.341C0.90862 161.802 1.48761 161.276 1.48103 160.751C1.48103 160.153 0.869142 159.825 0.803347 159.437C0.678337 158.701 1.23101 156.836 1.20469 156.698C1.16522 156.487 0.671761 156.198 0.487536 155.62C-0.104614 153.735 0.428321 152.487 0.415162 150.989C0.415162 150.621 -0.0190853 150.385 0.000653067 150.063C0.013812 149.839 1.99423 146.246 2.14556 146.075C2.67849 145.497 4.48784 144.748 4.56679 145.931C4.61943 146.647 4.0536 147.428 4.35625 148.434C4.501 148.913 5.1721 149.189 5.43528 149.655C5.93532 150.542 6.25113 151.961 6.65906 152.769C7.02093 153.479 8.61974 154.845 8.7908 155.252C8.96187 155.66 8.51447 156.12 8.76448 156.527C9.0145 156.934 10.5541 157.263 10.9489 157.683C11.2252 157.972 11.2252 158.557 11.4555 158.708C11.5608 158.78 13.7714 159.332 13.8965 159.325C14.2386 159.312 14.5478 158.898 14.936 158.826C16.1532 158.609 18.66 160.652 19.7851 160.856C21.272 161.132 22.2721 161.079 23.3577 160.101L28.595 160.869L29.5552 160.05C30.8316 159.413 31.8913 159.884 32.036 159.851C32.2992 159.792 32.4242 159.122 32.694 158.964C33.0821 158.734 33.648 158.918 34.1151 158.596C34.9639 158.012 35.2731 154.425 36.1416 154.234C36.7074 154.169 36.7272 154.944 37.043 155.141C37.4246 155.384 38.2667 154.858 38.701 155.509C39.326 155.502 38.6615 152.874 38.8786 152.5C38.9839 152.323 41.971 150.115 42.1618 150.03C42.7803 149.754 43.6356 149.958 44.2804 149.59C45.0107 149.176 44.7672 148.355 46.241 148.21C47.2806 148.112 47.3135 149.117 48.5373 148.736C49.0768 148.565 49.2807 147.974 49.4979 147.855C50.0834 147.547 51.0506 147.488 51.5046 147.1C52.2876 146.423 51.8402 144.656 53.3337 144.328C55.4786 144.413 57.5314 143.697 59.6565 144.039C59.9987 144.091 61.7751 144.584 62.0449 144.702C62.4726 144.886 62.8213 146.299 63.6568 145.188C64.0779 144.63 63.6766 143.631 64.7819 143.756C65.7886 143.868 65.7754 145.05 66.2097 145.418C66.565 145.714 67.5124 145.714 67.8677 146.305C68.8809 144.013 70.9469 145.832 71.5983 145.694C72.6049 145.477 73.3221 143.868 74.7498 144.026C74.9011 144.045 76.796 144.61 76.9342 144.676C77.6316 145.011 78.8422 146.85 79.9344 147.041C80.3358 147.113 80.77 146.483 81.6122 146.62C82.5859 146.778 83.7045 148.164 84.7901 148.328L85.1322 148.368C85.1124 146.818 86.1191 147.474 87.1784 147.599C87.1455 146.772 87.31 145.786 88.3298 145.839C89.7246 145.911 89.6786 147.56 90.3234 148.033C90.6129 148.243 93.0275 148.913 93.4223 148.874C93.9487 148.815 94.3763 148.328 94.9816 148.342C95.5869 148.355 95.9093 148.913 96.4883 148.88C96.9686 148.854 97.3765 148.361 98.0345 148.355C98.9688 148.342 100.403 148.742 101.114 149.38C102.344 147.593 103.726 146.246 106.061 146.542C106.232 146.437 107.101 143.027 107.134 142.62C107.206 141.786 106.864 141.102 106.851 140.334C106.811 138.245 107.515 137.187 105.831 135.473C104.956 134.579 104.321 134.461 104.696 133.042C104.807 132.615 104.824 132.431 104.811 131.886C104.798 131.262 103.851 131.025 103.778 130.349C103.686 129.455 104.456 129.58 104.686 129.212C104.864 128.93 104.923 125.987 104.818 125.56C104.746 125.277 104.206 125.257 104.028 125.021C103.338 124.127 104.39 123.523 104.285 122.584C102.147 122.459 102.936 119.168 101.883 118.209C101.173 117.565 98.8175 117.762 97.5476 117.177C95.6725 116.31 95.5935 114.254 93.0539 113.492C91.4945 113.025 90.4484 113.873 90.2839 111.455C90.2576 111.088 90.5997 110.647 90.4681 110.22C90.4155 110.043 88.5206 108.519 88.2443 107.317C87.9943 106.233 88.5009 105.399 88.4548 104.834C88.4351 104.623 86.3757 104.091 88.1587 102.304C88.0798 101.477 86.4678 100.912 86.9613 99.2498C87.356 97.9228 89.468 99.0921 90.2313 98.179C89.4352 95.8404 86.2046 97.3776 84.8953 95.5973C84.0926 94.5068 84.7966 94.0864 84.7637 93.5871C84.7506 93.3901 84.3953 93.1733 84.4085 92.8645C84.4216 92.4638 84.8756 91.9842 84.8559 91.5244C84.8427 91.0317 84.2637 90.8543 84.1387 90.4602C83.7571 89.2711 84.9874 88.739 85.6256 87.9573C84.994 87.077 81.9412 84.3508 81.8293 83.5559C81.678 82.4917 83.211 81.8939 83.3163 81.5392C83.4544 81.0925 82.8952 80.718 82.8162 80.2779C82.5662 78.8523 83.7702 77.9721 83.836 77.2232C83.8887 76.632 83.3821 76.0276 83.6255 75.2459C83.7505 74.8517 84.3624 74.6415 84.3558 74.1751C84.3492 73.6824 83.4281 72.2634 83.6189 71.1664C83.7308 70.5423 84.4216 70.2138 84.5466 69.7737C84.7901 68.9394 84.4677 67.8818 84.7243 66.8832C84.9348 66.0555 85.9546 65.1292 86.0862 64.6694C86.2967 63.9402 86.0007 63.0928 86.2507 62.2848C86.4218 61.733 87.3495 61.0957 87.356 60.8987C87.356 60.7804 86.8363 60.3403 86.8757 59.6177C86.9086 59.0724 87.3429 58.7111 87.4284 58.1002C87.5403 57.3184 87.5074 55.328 87.4153 54.5134C87.3166 53.5937 86.6784 52.9039 86.6389 52.4506C86.5928 51.8397 87.3034 51.4653 87.1587 50.8149L86.1717 50.5193C86.3494 48.542 85.5599 47.6814 84.0597 46.6237C83.5071 46.2362 81.678 45.4873 81.3424 45.126C80.9213 44.6793 81.1845 43.5296 80.7832 43.2603C80.4805 43.0567 79.8291 43.2472 79.4804 43.0304C79.1054 42.7873 79.1646 41.8348 78.9278 41.664C78.737 41.5326 78.2303 41.6377 77.9606 41.4932C76.3881 40.6786 75.1051 40.1334 77.1908 38.675C75.4538 38.1757 74.8222 35.7057 76.046 34.4575C76.2631 34.2342 76.6908 34.2736 76.8487 34.1225C77.0526 33.9386 77.1118 33.597 77.3092 33.4393C77.5198 33.2685 80.895 32.178 81.1648 32.1846C81.7767 32.1977 82.1583 32.8218 82.4346 32.8415C82.9807 32.8678 84.8032 31.9021 85.3756 31.7576C85.8691 31.6328 86.2573 31.8824 86.6652 31.797C88.2443 31.4685 89.2114 30.3255 91.33 30.943C91.7314 31.0613 92.2775 31.889 92.6657 31.8496C92.8696 31.8299 93.1196 31.3043 93.4815 31.1926C94.1263 30.9956 95.4817 31.324 95.8238 31.1072C95.9554 31.0218 95.9685 30.3189 96.383 30.0036C97.0344 29.5109 98.6464 29.6883 99.1859 29.2284C99.8044 28.7029 99.5017 26.9358 99.8241 26.2854C100.021 25.8847 100.778 25.8124 100.936 25.3526C101.304 24.2752 100.614 22.0286 101.107 20.9315C101.508 20.0381 102.739 20.0644 103.416 19.6571C104.186 19.1907 104.647 18.0279 105.838 17.7192C106.877 17.4498 107.002 18.0542 107.252 18.0608C107.371 18.0608 108.417 16.9046 109.292 16.944C109.674 16.9637 110.029 17.3776 110.417 17.4564C111.7 17.706 112.667 17.3053 113.167 18.9016C114.016 19.0593 115.075 18.698 115.852 18.7702C116.358 18.8162 116.898 19.2367 117.47 19.2695C118.983 19.3483 119.28 18.6323 119.951 17.5221C120.701 16.2871 120.701 14.4543 122.438 14.7696C122.155 12.7791 124.069 12.155 124.615 11.2091C125.767 9.19231 125.609 9.56675 127.201 7.90474C127.642 7.44489 127.964 6.56462 128.359 6.25587C128.846 5.87485 129.405 5.96682 129.866 5.71719C130.425 5.415 131.8 4.24568 132.682 3.67416C133.294 3.28001 134.741 1.25669 135.577 0.691733C136.274 0.225318 138.09 -0.372482 138.774 0.304148L138.748 0.330425Z" fill="#EFEBD2"/>
</svg>
