<svg width="588" height="410" viewBox="0 0 588 410" fill="none" xmlns="http://www.w3.org/2000/svg">
<path d="M499.886 46.185C507.618 44.9645 508.105 49.9164 509.436 56.6714C511.134 65.2806 511.625 69.1262 516.352 64.9868C519.183 62.5092 522.221 64.2575 524.346 65.3589C526.681 66.5704 528.26 68.2918 529.394 71.9995C531.688 79.4233 546.501 193.107 547.204 196.158C547.906 199.2 551.187 201.55 556.579 202.252C561.971 202.955 560.329 201.376 562.201 210.765C563.913 219.347 567.126 247.322 566.97 254.821C566.814 262.319 580.064 315.622 581 317.5C581.758 319.02 586.512 383.109 588 410H352.185L353.265 395.195C353.274 395.068 354.909 372.448 355.376 366.371C355.604 363.409 359.1 359.672 363.279 354.999L361.213 355.689C364.442 320.841 377.962 180.86 387.604 171.339C387.7 171.243 387.81 171.175 387.888 171.079C389.102 169.618 390.543 168.368 392.151 167.374C394.523 159.248 396.704 152.651 397.417 152.068C399.133 150.662 400.647 141.407 402.377 134.065C404.167 126.456 411.927 96.0805 413.938 92.6616C415.949 89.2425 438.456 81.7407 443.151 86.5815C444.373 87.8409 445.354 91.1912 446.162 95.4761C447.925 94.078 449.579 92.5693 450.599 91.1675C453.725 86.8699 473.98 55.4557 476.922 52.1606C479.45 49.32 483.691 44.818 491.685 48.645C492.093 48.8377 497.651 46.5338 499.886 46.185Z" fill="#41415F"/>
<path d="M94.9033 1.58153C99.5982 -3.25951 122.107 4.24263 124.118 7.66161C126.128 11.0805 133.888 41.4556 135.678 49.0649C137.408 56.4072 138.922 65.663 140.639 67.0679C142.355 68.4721 152.57 104.697 153.488 113.271C154.088 118.873 155.702 142.108 156.751 160.021C158.31 153.241 160.181 146.341 161.898 141.547L161.969 141.35C165.885 130.416 166.931 127.495 174.229 129.67C178.144 130.836 183.32 132.745 186.464 134.791C189.217 136.581 192.563 139.147 193.729 145.92C194.802 152.171 194.826 157.852 196.423 162.327C196.969 163.85 197.542 165.158 198.689 165.337C201.902 165.842 202.857 165.195 204.706 166.713C208.455 169.76 215.013 189.833 216.578 196.396C218.143 202.958 219.703 198.742 220.327 204.198C220.95 209.647 229.52 278.538 229.542 278.716C229.557 278.949 236.568 384.474 235.074 410H0C3.48511 388.024 17.5627 294.776 23.373 291.15C23.4397 291.105 31.178 285.944 32.1973 282.169C33.221 278.372 41.1829 162.342 45.0469 142.66C45.0344 142.51 43.0617 118.745 45.0469 113.602C47.0385 108.444 51.2562 106.691 56.9785 103.41C57.0075 103.29 65.1462 69.7393 67.0977 67.6733C68.6126 66.0628 77.4861 64.237 78.3457 64.4614C79.2039 64.6863 86.8218 44.1913 87.9141 43.1723C89.0062 42.15 90.209 6.42354 94.9033 1.58153Z" fill="#41415F"/>
</svg>
