<svg width="402" height="467" viewBox="0 0 402 467" fill="none" xmlns="http://www.w3.org/2000/svg">
<g clip-path="url(#clip0_1692_13884)">
<path d="M-90 466.807C-90 466.807 -72.2676 352.294 -65.6272 348.15C-65.6272 348.15 -57.8257 342.96 -56.8023 339.169C-55.7789 335.379 -47.8168 219.343 -43.9528 199.66C-43.9528 199.66 -45.9444 175.76 -43.9528 170.602C-41.9611 165.444 -37.7437 163.691 -32.021 160.41C-32.021 160.41 -23.857 126.744 -21.902 124.674C-20.3876 123.063 -11.5123 121.237 -10.6541 121.462C-9.79594 121.687 -2.17802 101.192 -1.08581 100.173C0.00640106 99.1539 1.20876 63.423 5.90343 58.5815C10.5981 53.74 33.1077 61.2432 35.1178 64.6621C37.1278 68.081 44.888 98.4564 46.6778 106.065C48.4079 113.408 49.9223 122.664 51.6386 124.068C53.3549 125.473 63.5703 161.699 64.4881 170.272C65.406 178.844 68.7056 228.7 68.7056 237.603C68.7056 246.506 67.6914 294.784 73.2947 308.845C78.898 322.906 93.2114 332.277 93.6795 338.371C94.1476 344.465 95.7905 367.195 95.7905 367.195L103.055 466.779" fill="#41415F"/>
<path d="M271.5 420.5C271.5 420.5 287.585 239.221 298.604 228.34C298.7 228.244 298.81 228.175 298.888 228.078C300.546 226.084 302.626 224.482 304.978 223.388C304.978 223.388 310.756 213.701 312.476 213.604C314.647 213.49 319.117 210.736 320.278 209.644C321.439 208.552 328.538 206.831 332.306 207.689C336.074 208.547 336.601 200.658 336.992 196.597C337.382 192.536 345.821 160.274 349.414 157.773C349.414 157.773 358.473 152.464 361.598 148.168C364.724 143.873 384.98 112.456 387.922 109.161C390.45 106.32 394.691 101.818 402.685 105.645C403.093 105.838 408.651 103.534 410.886 103.186C418.618 101.965 419.105 106.916 420.436 113.672C422.133 122.281 422.625 126.127 427.351 121.987C430.183 119.509 433.221 121.257 435.346 122.359C437.681 123.57 439.26 125.291 440.394 128.999C442.688 136.42 457.502 250.115 458.204 253.158C458.906 256.201 462.187 258.55 467.58 259.252C472.972 259.954 471.329 258.376 473.201 267.765C474.913 276.347 478.125 304.322 477.969 311.821C477.813 319.319 480.154 329.787 481.09 331.664C482.026 333.541 481.719 338.227 481.09 343.068" fill="#41415F"/>
<path d="M45.3229 343.408C45.3229 343.408 63.2526 249.555 64.3081 245.687C65.3636 241.818 63.9548 244.283 64.3081 236.903C64.6615 229.524 69.1497 209.015 72.899 198.547C76.8731 187.451 77.8873 184.482 85.2299 186.671C89.1445 187.836 94.321 189.745 97.4645 191.792C100.218 193.582 103.563 196.147 104.729 202.921C105.803 209.171 105.826 214.852 107.423 219.327C107.969 220.85 108.543 222.158 109.69 222.337C112.902 222.842 113.857 222.195 115.706 223.714C119.456 226.761 126.013 246.834 127.578 253.396C129.143 259.959 130.704 255.742 131.328 261.198C131.952 266.654 140.543 335.716 140.543 335.716C140.543 335.716 149.372 396.136 145.132 400.005C140.891 403.874 103.674 424.938 82.2333 416.875C60.7929 408.812 43.2257 405.622 38.9991 395.081C34.7726 384.54 45.3229 343.408 45.3229 343.408Z" fill="#41415F"/>
<path d="M450.055 551.807C450.055 551.807 432.323 437.294 425.682 433.15C425.682 433.15 417.881 427.96 416.857 424.169C415.834 420.379 407.872 304.343 404.008 284.66C404.008 284.66 406 260.76 404.008 255.602C402.016 250.444 397.799 248.691 392.076 245.41C392.076 245.41 383.912 211.744 381.957 209.674C380.443 208.063 371.567 206.237 370.709 206.462C369.851 206.687 362.233 186.192 361.141 185.173C360.049 184.154 358.846 148.423 354.152 143.582C349.457 138.74 326.947 146.243 324.937 149.662C322.927 153.081 315.167 183.456 313.377 191.065C311.647 198.408 310.133 207.664 308.417 209.068C306.7 210.473 296.485 246.699 295.567 255.272C294.649 263.844 291.35 313.7 291.35 322.603C291.35 331.506 292.364 379.784 286.76 393.845C281.157 407.906 266.844 417.277 266.376 423.371C265.908 429.465 264.265 452.195 264.265 452.195L257 551.779" fill="#41415F"/>
</g>
<defs>
<clipPath id="clip0_1692_13884">
<rect width="402" height="467" fill="white"/>
</clipPath>
</defs>
</svg>
