<svg width="24" height="24" viewBox="0 0 24 24" fill="none" xmlns="http://www.w3.org/2000/svg">
<path d="M5 2C3.90694 2 3 2.90694 3 4V17.8965C3 18.6706 3.45067 19.3814 4.1543 19.709L10.3086 22.582C11.38 23.0818 12.62 23.0818 13.6914 22.582L19.8457 19.709C20.5492 19.3812 21 18.6711 21 17.8965V4C21 2.90694 20.0931 2 19 2H5ZM5 4H19V17.8965L12.8457 20.7695C12.3091 21.0198 11.6909 21.0198 11.1543 20.7695L5 17.8965V4ZM15.9629 6C15.0359 6 14.5762 6.4457 14.5762 7.3457V11.6523C14.5762 12.5523 15.0369 12.9961 15.9629 12.9961H16.5234C17.4394 12.9971 17.8906 12.5645 17.8906 11.6895V10.418H16.7852V11.457C16.7852 11.752 16.6437 11.8906 16.3477 11.8906H16.1309C15.8239 11.8906 15.6816 11.753 15.6816 11.457V9.31445V7.9043V7.47266C15.6816 7.26866 15.8478 7.10547 16.0508 7.10547H16.418C16.622 7.10547 16.7852 7.26966 16.7852 7.47266V7.8418V8.57617H17.8906V7.33398C17.8906 6.43398 17.4436 6 16.5156 6H15.9629ZM6.10938 6.00195V12.9961H8.31836V11.8926H7.21289V10.0508H8.31836V8.94531H7.21289V7.10547H8.31836V6.00195H6.10938ZM9.05469 6.00195V12.9961H10.1602L10.1582 10.7871H10.7461C11.5851 10.7871 12 10.3685 12 9.51953V7.34766C12 6.44666 11.5562 6.00195 10.6602 6.00195H10.2891H9.05469ZM12.7363 6.00195V12.9961H13.8418V6.00195H12.7363ZM10.1582 7.10547H10.5273C10.7313 7.10547 10.8945 7.26966 10.8945 7.47266V9.31445C10.8945 9.51845 10.7303 9.68164 10.5273 9.68164H10.1582V7.10547ZM7.25781 14.7852L7.22656 14.7871L7.19531 14.791L7.16602 14.7949L7.13477 14.7969L7.10547 14.8027L7.07422 14.8066L7.04492 14.8125L7.01758 14.8223L6.98633 14.8281L6.95898 14.8379L6.93164 14.8438L6.9043 14.8555L6.87305 14.8633L6.84961 14.873L6.81836 14.8887L6.79297 14.9004L6.76367 14.9121L6.73633 14.9297L6.70898 14.9434L6.68164 14.959L6.6582 14.9746L6.63281 14.9883L6.60938 15.0078L6.58398 15.0234L6.56055 15.041L6.53906 15.0605L6.51562 15.0801L6.49414 15.0996L6.47266 15.1211L6.45117 15.1426L6.43164 15.1621L6.41211 15.1855L6.39258 15.207L6.375 15.2305L6.35547 15.2559L6.33789 15.2793L6.32227 15.3047L6.30664 15.3281L6.29297 15.3535L6.27734 15.3789L6.26172 15.4043L6.25 15.4336L6.23828 15.4609L6.22461 15.4883L6.21484 15.5156L6.20117 15.5469L6.19141 15.5723L6.18359 15.6035L6.17383 15.6328L6.16797 15.6621L6.1582 15.6914L6.15234 15.7207L6.14844 15.75L6.14258 15.7793L6.14062 15.8145L6.13867 15.8457V15.875L6.13477 15.9082V15.9395V15.9453V15.9766V16.0098L6.13867 16.041L6.14062 16.0703L6.14258 16.1016L6.14648 16.1289L6.15234 16.1582L6.15625 16.1875L6.16211 16.2188L6.17188 16.2441L6.17773 16.2754L6.18555 16.3027L6.19141 16.3301L6.20312 16.3574L6.21484 16.3828L6.22461 16.4102L6.23828 16.4375L6.25 16.4648L6.26172 16.4922L6.27734 16.5176L6.29297 16.5449L6.30664 16.5684L6.32227 16.5938L6.3418 16.6172L6.35547 16.6426L6.375 16.6641L6.39258 16.6875L6.41211 16.709L6.43164 16.7305L6.45312 16.7539L6.47461 16.7695L6.49609 16.793L6.51758 16.8105L6.53906 16.8281L6.56445 16.8477L6.58789 16.8652L6.61133 16.8848L6.63672 16.8984L6.66016 16.9141L6.6875 16.9297L6.71289 16.9453L6.74023 16.9609L6.76758 16.9727L6.79492 16.9844L6.82227 16.9961L6.85156 17.0098L6.88086 17.0176L6.90625 17.0293L6.93555 17.0391L6.96484 17.0449L6.99219 17.0547L7.02344 17.0605L7.05078 17.0664L7.08008 17.0723L7.11133 17.0781L7.14258 17.082L7.17188 17.0859L7.20117 17.0879L7.23633 17.0918L7.26562 17.0938H7.29688H7.33008H7.36328H7.39648L7.42969 17.0918L7.46094 17.0879L7.49414 17.0859L7.52344 17.082L7.55859 17.0781L7.58984 17.0762L7.61914 17.0703L7.64844 17.0645L7.67578 17.0586L7.70703 17.0527L7.73438 17.043L7.76562 17.0332L7.79297 17.0234L7.82031 17.0156L7.84766 17.0059L7.87305 16.9922L7.9043 16.9824L7.93164 16.9688L7.96289 16.957L7.99023 16.9414L8.01758 16.9297L8.04492 16.9141L8.07227 16.8984L8.09961 16.8848L8.12305 16.8672L8.14844 16.8535L8.17383 16.8359L8.19727 16.8184L8.2207 16.8008L8.24219 16.7852L8.26758 16.7676L8.28711 16.748V16.7188V16.6875V16.6582V16.6309V16.5996V16.5684V16.5371V16.5078V16.4766V16.4492V16.4199V16.3887V16.3574V16.3281V16.2969V16.2676V16.2383V16.207V16.1777V16.1484V16.1172V16.0859V16.0566V16.0273V15.998V15.9668V15.9375V15.9062V15.875V15.8477V15.8164V15.7871V15.7559H8.25781H8.22656H8.19727H8.16797H8.13672H8.10547H8.07422H8.04492H8.01562H7.98438H7.95312H7.92383H7.89258H7.86328H7.83203H7.80078H7.77148H7.74023H7.71094H7.67969H7.64844H7.61914H7.58984H7.55859H7.52734H7.49609H7.4668H7.43555H7.40625H7.375H7.3457H7.31445H7.2832V15.7871V15.8145V15.8457V15.875V15.9062V15.9336V15.9648V15.9941V16.0254V16.0527V16.082V16.1133V16.1445V16.1719V16.2031H7.31445H7.3418H7.37305H7.40234H7.43359H7.46094H7.49023H7.52148H7.55273H7.58008H7.60938H7.64062H7.67188H7.69727H7.72852V16.2324V16.2637V16.2949V16.3242V16.3574V16.3887V16.4199V16.4492V16.4805L7.70312 16.4961L7.68359 16.5078L7.65625 16.5215L7.63086 16.5312L7.60352 16.5449L7.57617 16.5508L7.54688 16.5605L7.51562 16.5664L7.48438 16.5723L7.45508 16.5742L7.42188 16.5781L7.38867 16.5801H7.35156H7.31836L7.2832 16.5781L7.25391 16.5742L7.22461 16.5684L7.19336 16.5625L7.16211 16.5547L7.13281 16.5449L7.10547 16.5312L7.07812 16.5215L7.05078 16.5078L7.02539 16.4922L7.00195 16.4766L6.97656 16.459L6.95312 16.4414L6.93164 16.4219L6.91211 16.4004L6.89258 16.3809L6.87305 16.3574L6.85547 16.334L6.83984 16.3086L6.82422 16.2852L6.81055 16.2578L6.79883 16.2305L6.78516 16.1992L6.77734 16.1758L6.76758 16.1484L6.76172 16.1191L6.75586 16.0918L6.74805 16.0645L6.74609 16.0332L6.74219 16.0078L6.74023 15.9766V15.9453V15.9395V15.9062L6.74219 15.875L6.74609 15.8457L6.75195 15.8105L6.75781 15.7832L6.76367 15.7539L6.77344 15.7227L6.78516 15.6953L6.79492 15.668L6.80664 15.6406L6.82227 15.6152L6.83789 15.5879L6.85156 15.5645L6.86719 15.543L6.88672 15.5176L6.90625 15.4961L6.92578 15.4746L6.94727 15.457L6.96875 15.4395L6.98828 15.4199L7.01367 15.4043L7.03711 15.3906L7.0625 15.373L7.08984 15.3613L7.11719 15.3496L7.14453 15.3418L7.17188 15.332L7.19922 15.3262L7.23047 15.3184L7.25781 15.3164L7.28711 15.3125H7.31836H7.35156L7.38477 15.3164L7.41797 15.3184L7.44922 15.3223L7.47852 15.3281L7.50977 15.3359L7.53711 15.3418L7.56445 15.3496L7.5918 15.3594L7.61523 15.3672L7.64062 15.3809L7.66406 15.3926L7.69141 15.4082L7.7168 15.4238L7.74023 15.4395L7.76562 15.4531L7.78906 15.4727L7.81445 15.4883L7.83789 15.5098L7.86328 15.5273L7.88086 15.5039L7.90234 15.4805L7.91992 15.457L7.94141 15.4336L7.95898 15.4082L7.97852 15.3867L7.99805 15.3613L8.01758 15.3379L8.03906 15.3125L8.05664 15.293L8.07422 15.2676L8.09766 15.2422L8.11523 15.2227L8.13281 15.1973L8.1543 15.1738L8.17383 15.1484L8.19336 15.127L8.21289 15.1035L8.1875 15.084L8.16406 15.0625L8.13867 15.0449L8.11523 15.0254L8.0918 15.0117L8.06641 14.9922L8.03906 14.9766L8.01562 14.9629L7.98828 14.9473L7.96289 14.9316L7.93555 14.9199L7.9082 14.9043L7.88086 14.8906L7.85352 14.8789L7.82617 14.8672L7.79883 14.8574L7.77344 14.8496L7.74609 14.8438L7.71875 14.834L7.69141 14.8281L7.66406 14.8223L7.63672 14.8145L7.60742 14.8086L7.57617 14.8027L7.54883 14.8008L7.51562 14.7949L7.48438 14.791H7.45508L7.42188 14.7871L7.38867 14.7852H7.35352H7.32031H7.29102H7.25781ZM16.8457 14.791L16.8164 14.7949L16.7852 14.7969L16.7559 14.8008L16.7246 14.8027L16.6973 14.8086L16.668 14.8145L16.6387 14.8223L16.6113 14.8281L16.5879 14.834L16.5605 14.8438L16.5293 14.8555L16.5 14.8633L16.4727 14.877L16.4453 14.8906L16.418 14.9043L16.3906 14.9199L16.3652 14.9336L16.3418 14.9531L16.3164 14.9707L16.2969 14.9863L16.2715 15.0078L16.25 15.0312L16.2285 15.0547L16.207 15.0781L16.1895 15.1035L16.1719 15.127L16.1562 15.1543L16.1406 15.1816L16.1289 15.209L16.1152 15.2363L16.1035 15.2637L16.0977 15.293L16.0898 15.3184L16.082 15.3477L16.0762 15.373L16.0742 15.4043L16.0703 15.4336L16.0684 15.4629V15.4941V15.5V15.5332L16.0703 15.5664L16.0742 15.5977L16.0762 15.6289L16.082 15.6562L16.0898 15.6855L16.0977 15.7109L16.1074 15.7383L16.1152 15.7637L16.1289 15.7832L16.1445 15.8105L16.1582 15.8359L16.1738 15.8574L16.1914 15.8789L16.2109 15.9004L16.2324 15.9219L16.2539 15.9434L16.2734 15.9609L16.2988 15.9766L16.3223 15.9941L16.3516 16.0098L16.375 16.0254L16.4043 16.041L16.4336 16.0566L16.4629 16.0684L16.4922 16.0801L16.5234 16.0918L16.5566 16.1055L16.5859 16.1133L16.6113 16.123L16.6387 16.1328L16.6699 16.1387L16.6973 16.1484L16.7285 16.1562L16.7578 16.1621L16.7891 16.1719L16.8184 16.1777L16.8516 16.1875L16.8828 16.1934L16.916 16.2031L16.9473 16.207L16.9766 16.2188L17.0039 16.2246L17.0312 16.2324L17.0566 16.2383L17.0762 16.2441L17.1133 16.2598L17.1445 16.2734L17.1719 16.2852L17.1953 16.2969L17.2207 16.3145L17.2422 16.334L17.2578 16.3555L17.2695 16.3848L17.2715 16.4219V16.4297L17.2695 16.459L17.2598 16.4863L17.248 16.5117L17.2305 16.5312L17.2051 16.5508L17.1836 16.5625L17.1602 16.5723L17.1328 16.5781L17.1055 16.584L17.0742 16.5898L17.041 16.5938H17.0039H16.9746L16.9414 16.5898H16.9102L16.8809 16.584L16.8457 16.5801L16.8164 16.5742L16.7852 16.5684L16.7559 16.5625L16.7285 16.5547L16.6973 16.5449L16.668 16.5352L16.6387 16.5234L16.6113 16.5137L16.5859 16.502L16.5566 16.4902L16.5293 16.4766L16.5059 16.4629L16.4785 16.4492L16.4531 16.4355L16.4277 16.416L16.4023 16.4004L16.375 16.3828L16.3516 16.3633L16.3223 16.3457L16.2988 16.3281L16.2793 16.3516L16.2598 16.373L16.2402 16.3984L16.2207 16.4219L16.2012 16.4434L16.1836 16.4688L16.1621 16.4922L16.1445 16.5137L16.1211 16.5371L16.1035 16.5605L16.082 16.584L16.0645 16.6094L16.0469 16.6309L16.0254 16.6543L16.0078 16.6797L15.9844 16.7012L15.9668 16.7246L15.9922 16.7461L16.0117 16.7637L16.0371 16.7832L16.0605 16.8008L16.0859 16.8184L16.1094 16.8379L16.1348 16.8535L16.1582 16.8672L16.1855 16.8848L16.2109 16.8984L16.2383 16.9141L16.2656 16.9277L16.293 16.9414L16.3203 16.9531L16.3477 16.9668L16.3789 16.9785L16.4043 16.9863L16.4355 16.9961L16.4629 17.0098L16.4922 17.0176L16.5234 17.0273L16.5508 17.0332L16.582 17.043L16.6113 17.0488L16.6426 17.0547L16.6738 17.0605L16.7031 17.0664L16.7344 17.0703L16.7637 17.0762L16.7969 17.0781L16.8281 17.082L16.8574 17.0859H16.8926L16.9219 17.0879H16.9512H16.9863H17.0195H17.0508L17.0801 17.0859L17.1133 17.082L17.1445 17.0781L17.1719 17.0762L17.2012 17.0723L17.2324 17.0664L17.2598 17.0605L17.2871 17.0547L17.3184 17.0488L17.3457 17.0391L17.377 17.0293L17.4062 17.0215L17.4355 17.0098L17.4668 16.9961L17.4941 16.9824L17.5215 16.9688L17.5488 16.9531L17.5723 16.9355L17.5977 16.9199L17.6211 16.9023L17.6426 16.8848L17.668 16.8613L17.6855 16.8438L17.707 16.8223L17.7246 16.8008L17.7402 16.7773L17.7598 16.7539L17.7734 16.7285L17.7891 16.7031L17.8027 16.6758L17.8125 16.6523L17.8262 16.623L17.8359 16.5938L17.8418 16.5664L17.8496 16.5352L17.8555 16.5059L17.8594 16.4707L17.8613 16.4414L17.8652 16.4062V16.373V16.3672V16.334L17.8613 16.3008L17.8594 16.2695L17.8535 16.2383L17.8477 16.207L17.8418 16.1816L17.832 16.1523L17.8223 16.127L17.8105 16.1016L17.7969 16.0742L17.7793 16.0508L17.7617 16.0215L17.7441 15.998L17.7227 15.9766L17.7012 15.9512L17.6777 15.9297L17.6523 15.9082L17.6289 15.8945L17.6035 15.875L17.5801 15.8594L17.5527 15.8457L17.5254 15.8281L17.4941 15.8145L17.4648 15.8027L17.4336 15.7871L17.4004 15.7754L17.373 15.7656L17.3457 15.7559L17.3145 15.7461L17.2871 15.7383L17.2578 15.7285L17.2266 15.7207L17.1953 15.7148L17.1621 15.7031L17.1328 15.6953L17.0996 15.6895L17.0645 15.6797L17.0312 15.6719L16.998 15.6621L16.9688 15.6562L16.9414 15.6465L16.9121 15.6406L16.8887 15.6328L16.8652 15.625L16.8281 15.6133L16.7949 15.6016L16.7637 15.5879L16.7402 15.5723L16.7129 15.5586L16.6914 15.5352L16.6797 15.5176L16.6641 15.4844L16.6602 15.4453V15.4395L16.6641 15.4082L16.6758 15.3809L16.6934 15.3535L16.7207 15.3281L16.7422 15.3164L16.7676 15.3047L16.7949 15.2988L16.8242 15.293L16.8574 15.2852H16.8945H16.9258L16.9512 15.2891L16.9824 15.293L17.0137 15.2949L17.0449 15.3008L17.0742 15.3086L17.1055 15.3125L17.1348 15.3223L17.166 15.332L17.1992 15.3418L17.2227 15.3535L17.252 15.3613L17.2754 15.373L17.3027 15.3867L17.3262 15.3984L17.3535 15.4102L17.3789 15.4277L17.4062 15.4395L17.4297 15.457L17.4551 15.4727L17.4824 15.4883L17.5059 15.5059L17.5254 15.4805L17.5391 15.457L17.5586 15.4336L17.5762 15.4082L17.5957 15.3809L17.6094 15.3555L17.6289 15.332L17.6465 15.3086L17.6621 15.2832L17.6797 15.2578L17.6973 15.2344L17.7129 15.209L17.7305 15.1816L17.75 15.1562L17.7676 15.1328L17.7832 15.1094L17.8027 15.084L17.7773 15.0664L17.7539 15.0488L17.7285 15.0293L17.7031 15.0137L17.6777 14.9961L17.6523 14.9805L17.625 14.9648L17.5977 14.9492L17.5723 14.9375L17.5469 14.9219L17.5156 14.9102L17.4883 14.8984L17.4609 14.8848L17.4336 14.877L17.4023 14.8633L17.377 14.8574L17.3477 14.8496L17.3184 14.8398L17.2891 14.834L17.2598 14.8281L17.2305 14.8223L17.2012 14.8145L17.1719 14.8086L17.1387 14.8066L17.1074 14.8008L17.0742 14.7969H17.0449L17.0117 14.7949L16.9766 14.791H16.9434H16.9102H16.877H16.8457ZM9.45703 14.8105L9.44531 14.8398L9.43359 14.8672L9.41992 14.9004L9.41016 14.9316L9.39844 14.959L9.38672 14.9863L9.375 15.0156L9.36328 15.043L9.34961 15.0684L9.33789 15.0996L9.32617 15.127L9.31641 15.1543L9.30469 15.1836L9.29297 15.2109L9.2793 15.2363L9.26758 15.2676L9.25586 15.2969L9.24414 15.3242L9.23047 15.3496L9.22266 15.3789L9.21094 15.4043L9.19727 15.4355L9.18555 15.4648L9.17383 15.4922L9.16211 15.5195L9.15039 15.5488L9.13867 15.5762L9.12891 15.6074L9.11719 15.6348L9.10547 15.6621L9.08984 15.6875L9.07812 15.7148L9.06641 15.7422L9.05469 15.7734L9.04102 15.8008L9.03125 15.8281L9.01953 15.8555L9.00781 15.8828L8.99414 15.9102L8.98242 15.9375L8.9707 15.9688L8.95898 15.9961L8.94727 16.0254L8.9375 16.0527L8.92578 16.0801L8.91406 16.1094L8.90234 16.1406L8.89062 16.168L8.87891 16.1953L8.86523 16.2246L8.85352 16.252L8.8457 16.2793L8.83008 16.3047L8.81836 16.332L8.80664 16.3594L8.79492 16.3887L8.78125 16.416L8.76953 16.4434L8.75781 16.4746L8.74414 16.5L8.73242 16.5273L8.7207 16.5566L8.70703 16.584L8.69531 16.6094L8.68359 16.6406L8.67969 16.6602L8.66602 16.6875L8.65625 16.7168L8.64453 16.7441L8.63281 16.7695L8.61914 16.8008L8.60742 16.8281L8.5957 16.8574L8.58398 16.8848L8.57227 16.9121L8.5625 16.9414L8.55078 16.9688L8.53711 16.9961L8.52539 17.0254L8.51367 17.0527H8.54492H8.57422H8.60547H8.63672H8.66992H8.69922H8.73047H8.76172H8.79297H8.82227H8.85156H8.88086H8.91016H8.94141H8.97461H9.00586H9.03516H9.06641H9.0957H9.12695L9.13867 17.0254L9.14648 16.9961L9.1582 16.9688L9.17188 16.9375L9.17969 16.9102L9.19141 16.8828L9.20312 16.8535L9.21289 16.8262L9.22461 16.7988L9.23633 16.7695L9.24609 16.7422L9.25781 16.7109L9.26953 16.6836L9.2793 16.6543L9.29102 16.627H9.32031H9.35156H9.38281H9.41211H9.44141H9.4707H9.50195H9.53125H9.5625H9.59375H9.62305H9.65234H9.68359H9.71484H9.74219H9.77344H9.80469H9.83398H9.86523H9.89648H9.92773H9.95703H9.98828H10.0195H10.0469H10.0762H10.1074H10.1367H10.168L10.1797 16.6543L10.1875 16.6836L10.1992 16.7109L10.2129 16.7422L10.2207 16.7695L10.2324 16.7988L10.2441 16.8262L10.2539 16.8535L10.2656 16.8828L10.2773 16.9102L10.2871 16.9375L10.2988 16.9688L10.3105 16.9961L10.3203 17.0254L10.332 17.0527H10.3633H10.3926H10.4219H10.4512H10.4824H10.5137H10.543H10.5703H10.5996H10.6309H10.6602H10.6914H10.7227H10.75H10.7812H10.8105H10.8418H10.8711H10.9004H10.9316H10.9609L10.9492 17.0254L10.9375 16.9961L10.9258 16.9688L10.918 16.9375L10.9043 16.9102L10.8926 16.8828L10.8809 16.8535L10.8691 16.8262L10.8574 16.7988L10.8457 16.7676L10.832 16.7383L10.8242 16.7109L10.8125 16.6836L10.8008 16.6543L10.7871 16.627L10.7754 16.5957L10.7637 16.5664L10.752 16.5391L10.7383 16.5117L10.7305 16.4824L10.7188 16.4551L10.7051 16.4238L10.6934 16.3965L10.6816 16.3672L10.6699 16.3398L10.6582 16.3125L10.6465 16.2832L10.6367 16.2539L10.625 16.2246L10.6133 16.1973L10.6016 16.1699L10.5898 16.1406L10.5762 16.1133L10.5645 16.082L10.5527 16.0547L10.5449 16.0254L10.5312 15.998L10.5195 15.9707L10.5 15.957L10.4883 15.9277L10.4805 15.9043L10.4688 15.877L10.4551 15.8496L10.4473 15.8203L10.4355 15.793L10.4238 15.7656L10.4102 15.7344L10.3984 15.7051L10.3867 15.6777L10.375 15.6504L10.3633 15.6211L10.3535 15.5938L10.3418 15.5625L10.3301 15.5352L10.3184 15.5078L10.3066 15.4785L10.2949 15.4512L10.2812 15.4238L10.2656 15.4004L10.2578 15.3711L10.2441 15.3438L10.2324 15.3164L10.2207 15.2891L10.207 15.2617L10.1953 15.2305L10.1836 15.2031L10.1719 15.1758L10.1621 15.1465L10.1504 15.1191L10.1387 15.0918L10.127 15.0605L10.1152 15.0312L10.1035 15.0039L10.0918 14.9766L10.0781 14.9473L10.0742 14.9258L10.0625 14.8945L10.0508 14.8672L10.0371 14.8398L10.0254 14.8105H9.99219H9.96484H9.92969H9.90039H9.86914H9.84375H9.8125H9.78125H9.75195H9.72461H9.69336H9.66211H9.63281H9.60547H9.57422H9.54492H9.51562H9.48633H9.45703ZM11.209 14.8281V14.8574V14.8887V14.9199V14.9492V14.9805V15.0117V15.041V15.0723V15.1035V15.1328V15.1621V15.1934V15.2246V15.2559V15.2852V15.3164V15.3477V15.3789V15.4043V15.4355V15.4668V15.4961V15.5273V15.5586V15.5879V15.6191V15.6484V15.6797V15.7109V15.7402V15.7715V15.8027V15.832V15.8633V15.8945V15.9238V15.9551V15.9863V16.0156V16.0469V16.0762V16.1074V16.1387V16.1699V16.1992V16.2305V16.2598V16.291V16.3223V16.3516V16.3828V16.4121V16.4434V16.4746V16.502V16.5312V16.5625V16.5938V16.623V16.6543V16.6855V16.7168V16.7461V16.7773V16.8086V16.8379V16.8672V16.8984V16.9297V16.9609V16.9902V17.0215V17.0527H11.2402H11.2715H11.3008H11.3301H11.3613H11.3926H11.4238H11.4531H11.4824H11.5137H11.5449H11.5742H11.6055H11.6367H11.666H11.6973H11.7266H11.7578H11.7871V17.0215V16.9902V16.9609V16.9297V16.8984V16.8672V16.8379V16.8066V16.7773V16.7461V16.7188V16.6875V16.6562V16.627V16.5957V16.5645V16.5352V16.5039V16.4746V16.4434V16.4121V16.3828V16.3516V16.3203V16.2891V16.2598V16.2285V16.1973V16.168V16.1367V16.1055V16.0762V16.0488V16.0176V15.9863V15.9551V15.9258V15.8945V15.8652V15.834V15.8047V15.7734V15.7422L11.8066 15.7676L11.8203 15.7949L11.8398 15.8184L11.8555 15.8477L11.8711 15.8711L11.8887 15.8984L11.9062 15.9238L11.9219 15.9512L11.9395 15.9746L11.9551 16.0039L11.9727 16.0273L11.9883 16.0547L12.0078 16.0781L12.0215 16.1074L12.0391 16.1309L12.0547 16.1582L12.0723 16.1836L12.0918 16.2109L12.1074 16.2344L12.125 16.2637L12.1406 16.2871L12.1582 16.3145L12.1738 16.3398L12.1914 16.3672L12.207 16.3906L12.2266 16.4199L12.2402 16.4434L12.2598 16.4707L12.2734 16.4961L12.293 16.5234L12.3086 16.5488L12.3262 16.5742L12.3418 16.5996L12.3594 16.627H12.3711L12.3867 16.6035L12.4043 16.5742L12.4199 16.5508L12.4395 16.5254L12.4531 16.498L12.4727 16.4746L12.4863 16.4492L12.502 16.4219L12.5215 16.3984L12.5352 16.373L12.5547 16.3496L12.5703 16.3203L12.5879 16.2969L12.6035 16.2715L12.6172 16.2441L12.6367 16.2207L12.6523 16.1953L12.6699 16.168L12.6855 16.1445L12.7031 16.1191L12.7188 16.0918L12.7344 16.0664L12.752 16.043L12.7676 16.0156L12.7852 15.9902L12.8008 15.9668L12.8184 15.9414L12.834 15.9141L12.8496 15.8906L12.8672 15.8652L12.8828 15.8379L12.9004 15.8125L12.916 15.7891L12.9336 15.7617L12.9492 15.7363V15.7676V15.7988V15.8281V15.8594V15.8906V15.9199V15.9492V15.9805V16.0117V16.043V16.0723V16.1035V16.1348V16.1641V16.1953V16.2266V16.2559V16.2871V16.3184V16.3477V16.3789V16.4082V16.4395V16.4707V16.502V16.5312V16.5625V16.5938V16.623V16.6543V16.6855V16.7148V16.7461V16.7773V16.8066V16.8379V16.8672V16.8984V16.9297V16.9609V16.9902V17.0215V17.0527H12.9805H13.0098H13.041H13.0742H13.1055H13.1348H13.1641H13.1953H13.2266H13.2598H13.2891H13.3203H13.3516H13.3828H13.4121H13.4453H13.4766H13.5059H13.5371V17.0215V16.9902V16.9609V16.9297V16.8984V16.8672V16.8379V16.8086V16.7773V16.7461V16.7168V16.6855V16.6543V16.623V16.5938V16.5625V16.5312V16.502V16.4746V16.4434V16.4121V16.3828V16.3516V16.3223V16.291V16.2598V16.2305V16.1992V16.1699V16.1387V16.1074V16.0762V16.0469V16.0156V15.9863V15.9551V15.9238V15.8945V15.8633V15.832V15.8027V15.7715V15.7402V15.7109V15.6797V15.6484V15.6191V15.5879V15.5586V15.5273V15.4961V15.4668V15.4355V15.4043V15.3789V15.3477V15.3164V15.2852V15.2559V15.2246V15.1934V15.1621V15.1328V15.1035V15.0723V15.041V15.0117V14.9805V14.9492V14.9199V14.8887V14.8574V14.8281H13.5059H13.4766H13.4492H13.418H13.3887H13.3574H13.3301H13.2988H13.2695H13.2383H13.2109H13.1816H13.1504H13.1191H13.0918H13.0625H13.0312H13.002H12.9746H12.9434H12.9121L12.8984 14.8516L12.8828 14.8789L12.8652 14.9043L12.8496 14.9316L12.834 14.9551L12.8184 14.9824L12.8008 15.0078L12.7852 15.0352L12.7695 15.0586L12.7559 15.084L12.7363 15.1113L12.7227 15.1367L12.7051 15.1621L12.6914 15.1875L12.6738 15.2148L12.6562 15.2383L12.6426 15.2637L12.627 15.291L12.6113 15.3164L12.5938 15.3438L12.5781 15.3672L12.5625 15.3945L12.5488 15.4199L12.5293 15.4473L12.5156 15.4707L12.498 15.4941L12.4844 15.5234L12.4668 15.5469L12.4512 15.5742L12.4355 15.5996L12.4199 15.627L12.4023 15.6504L12.3867 15.6777L12.3711 15.7031L12.3574 15.6777L12.3418 15.6504L12.3223 15.627L12.3086 15.5996L12.293 15.5742L12.2773 15.5469L12.2617 15.5234L12.2441 15.4941L12.2285 15.4707L12.2129 15.4473L12.1973 15.4199L12.1836 15.3945L12.1641 15.3672L12.1484 15.3438L12.1348 15.3164L12.1191 15.291L12.1035 15.2637L12.0859 15.2383L12.0703 15.2148L12.0547 15.1875L12.0391 15.1621L12.0215 15.1367L12.0078 15.1113L11.9902 15.084L11.9766 15.0586L11.9609 15.0352L11.9434 15.0078L11.9277 14.9824L11.9121 14.9551L11.8965 14.9316L11.8828 14.9043L11.8633 14.8789L11.8477 14.8516L11.832 14.8281H11.8027H11.7734H11.7441H11.7148H11.6836H11.6543H11.627H11.5957H11.5645H11.5352H11.5078H11.4766H11.4473H11.418H11.3887H11.3594H11.3281H11.2988H11.2715H11.2402H11.209ZM13.9863 14.8281V14.8574V14.8887V14.9199V14.9492V14.9805V15.0117V15.041V15.0723V15.1035V15.1328V15.1621V15.1934V15.2246V15.2559V15.2852V15.3164V15.3477V15.3789V15.4043V15.4355V15.4668V15.4961V15.5273V15.5586V15.5879V15.6191V15.6484V15.6797V15.7109V15.7402V15.7715V15.8027V15.832V15.8633V15.8945V15.9238V15.9551V15.9863V16.0156V16.0469V16.0762V16.1074V16.1387V16.1699V16.1992V16.2305V16.2598V16.291V16.3223V16.3516V16.3828V16.4121V16.4434V16.4746V16.502V16.5312V16.5625V16.5938V16.623V16.6543V16.6855V16.7168V16.7461V16.7773V16.8086V16.8379V16.8672V16.8984V16.9297V16.9609V16.9902V17.0215V17.0527H14.0156H14.0469H14.0762H14.1074H14.1387H14.1699H14.1992H14.2285H14.2598H14.293H14.3223H14.3535H14.3848H14.4141H14.4453H14.4766H14.5059H14.5352H14.5664H14.5977H14.6289H14.6582H14.6875H14.7188H14.748H14.7793H14.8105H14.8398H14.873H14.9043H14.9355H14.9648H14.9961H15.0254H15.0566H15.0879H15.1172H15.1484H15.1797H15.209H15.2383H15.2695H15.3008H15.3301H15.3613H15.3906H15.4219H15.4512H15.4863H15.5156H15.5469H15.5762H15.6074H15.6387H15.668H15.6973H15.7285H15.7598V17.0215V16.9922V16.9629V16.9316V16.9023V16.875V16.8438V16.8145V16.7852V16.7559V16.7246V16.6973V16.668V16.6367V16.6055V16.5781V16.5488H15.7285H15.6973H15.668H15.6387H15.6074H15.5762H15.5469H15.5156H15.4863H15.4512H15.4219H15.3906H15.3613H15.3301H15.3008H15.2695H15.2383H15.209H15.1797H15.1484H15.1172H15.0879H15.0566H15.0254H14.9961H14.9648H14.9355H14.9043H14.873H14.8398H14.8105H14.7793H14.748H14.7188H14.6875H14.6582H14.6289H14.5977H14.5664V16.5176V16.4824V16.4531V16.4219V16.3887V16.3574V16.3281V16.2949V16.2637V16.2324V16.1992V16.1699H14.5977H14.6289H14.6582H14.6875H14.7188H14.748H14.7793H14.8105H14.8379H14.8672H14.8984H14.9297H14.959H14.9902H15.0195H15.0508H15.0801H15.1113H15.1426H15.1719H15.2031H15.2324H15.2637H15.2949H15.3242H15.3555H15.3828H15.4121H15.4434H15.4727H15.5039H15.5332H15.5645H15.5957H15.625V16.1387V16.1113V16.0801V16.0508V16.0215V15.9922V15.9609V15.9297V15.9023V15.8711V15.8418V15.8145V15.7832V15.7539V15.7266V15.6953H15.5957H15.5645H15.5332H15.5039H15.4727H15.4434H15.4121H15.3828H15.3555H15.3242H15.2949H15.2637H15.2324H15.2031H15.1719H15.1426H15.1113H15.0801H15.0508H15.0195H14.9902H14.959H14.9297H14.8984H14.8672H14.8379H14.8105H14.7793H14.748H14.7188H14.6875H14.6582H14.6289H14.5977H14.5664V15.6641V15.6348V15.6035V15.5723V15.543V15.5117V15.4844V15.4531V15.4238V15.3926V15.3613V15.332H14.5977H14.6289H14.6582H14.6875H14.7188H14.748H14.7773H14.8066H14.8379H14.8672H14.8984H14.9297H14.959H14.9902H15.0195H15.0508H15.0801H15.1113H15.1426H15.1699H15.1992H15.2305H15.2617H15.291H15.3203H15.3516H15.3828H15.4121H15.4434H15.4727H15.5039H15.5332H15.5625H15.5918H15.6211H15.6523H15.6836H15.7148H15.7441V15.3008V15.2734V15.2422V15.2129V15.1816V15.1543V15.123V15.0938V15.0664V15.0352V15.0059V14.9766V14.9473V14.916V14.8848V14.8574V14.8281H15.7148H15.6836H15.6523H15.6211H15.5918H15.5625H15.5312H15.502H15.4707H15.4395H15.4102H15.3789H15.3477H15.3184H15.291H15.2617H15.2305H15.1992H15.1699H15.1387H15.1074H15.0781H15.0469H15.0176H14.9863H14.9551H14.9258H14.8945H14.8652H14.8359H14.8047H14.7734H14.7422H14.7129H14.6816H14.6523H14.6211H14.5918H14.5605H14.5293H14.5H14.4707H14.4395H14.4102H14.3809H14.3516H14.3203H14.2891H14.2598H14.2285H14.1992H14.1699H14.1387H14.1074H14.0762H14.0469H14.0156H13.9863ZM9.73242 15.5117L9.74414 15.5391L9.75391 15.5684L9.76562 15.5996L9.77734 15.627L9.78711 15.6543L9.79883 15.6836L9.81055 15.7148L9.82031 15.7422L9.83203 15.7695L9.84375 15.7988L9.85352 15.8262L9.86523 15.8555L9.875 15.8848L9.88672 15.9121L9.89844 15.9395L9.9082 15.9688L9.91992 15.998L9.93164 16.0273L9.94141 16.0547L9.95312 16.082L9.96484 16.1133L9.97461 16.1426L9.98633 16.1699L9.95703 16.1621H9.92773H9.89844H9.86719H9.83789H9.80664H9.77539H9.74609H9.71875H9.6875H9.65625H9.62695H9.59766H9.56641H9.53516H9.50586H9.47461L9.48633 16.1348L9.49609 16.1055L9.50781 16.0742L9.51953 16.0469L9.5293 16.0195L9.54102 15.9902L9.55273 15.9609L9.56445 15.9316L9.57422 15.9043L9.58594 15.877L9.59961 15.8535L9.60938 15.8223L9.62109 15.7949L9.63281 15.7656L9.64258 15.7383L9.6543 15.7109L9.66602 15.6797L9.67773 15.6504L9.6875 15.623L9.69922 15.5996L9.71289 15.5684L9.7207 15.5391L9.73242 15.5117ZM9.24023 18.2617C9.17023 18.2617 9.14889 18.3558 9.21289 18.3848L11.9102 19.6133C11.9272 19.6213 11.9459 19.6203 11.9629 19.6133L14.7754 18.3867C14.8394 18.3587 14.818 18.2617 14.748 18.2617H9.24023Z" fill="black"/>
</svg>
