<svg width="40" height="40" viewBox="0 0 40 40" fill="none" xmlns="http://www.w3.org/2000/svg">
<path d="M19.1634 3.33331C9.52654 3.33331 1.67187 9.61415 1.66992 17.487C1.66992 25.1187 9.09733 31.1597 18.3301 31.5299V34.7558C18.3305 35.0261 18.3967 35.2923 18.523 35.5313C18.6492 35.7704 18.8316 35.9751 19.0546 36.1279C19.2776 36.2807 19.5344 36.377 19.8029 36.4085C20.0713 36.44 20.3434 36.4057 20.5957 36.3086L20.9993 36.1556C21.0257 36.1454 21.0517 36.1345 21.0775 36.123C23.0425 35.2484 26.0371 33.3496 29.069 30.5859C33.0451 26.9678 36.6569 22.4185 36.6569 17.487C36.6569 9.61364 28.7987 3.33331 19.1634 3.33331ZM19.1634 6.66665C27.3647 6.66665 33.3236 11.8936 33.3236 17.487C33.3236 20.6413 30.4694 24.8068 26.8262 28.1217C26.8251 28.1217 26.824 28.1217 26.8229 28.1217C24.8095 29.957 23.2006 30.8233 21.6634 31.722V30.8203C21.6635 29.439 20.5349 28.3333 19.1634 28.3333C10.9632 28.3333 5.00325 23.0806 5.00325 17.487C5.00688 11.8943 10.9618 6.66665 19.1634 6.66665ZM9.15039 13.3105C8.92938 13.3131 8.71845 13.4034 8.564 13.5615C8.40956 13.7196 8.32424 13.9326 8.32682 14.1536V20.8203C8.32684 21.0413 8.41465 21.2532 8.57092 21.4095C8.7272 21.5658 8.93915 21.6536 9.16016 21.6536H12.474C12.5844 21.6552 12.694 21.6348 12.7965 21.5936C12.899 21.5524 12.9922 21.4913 13.0709 21.4138C13.1495 21.3362 13.212 21.2438 13.2546 21.1419C13.2972 21.0401 13.3192 20.9307 13.3192 20.8203C13.3192 20.7099 13.2972 20.6005 13.2546 20.4986C13.212 20.3968 13.1495 20.3044 13.0709 20.2268C12.9922 20.1493 12.899 20.0882 12.7965 20.047C12.694 20.0058 12.5844 19.9854 12.474 19.987H9.99349V14.1536C9.99479 14.0425 9.97387 13.9323 9.93196 13.8295C9.89005 13.7266 9.82799 13.6331 9.74944 13.5546C9.67089 13.476 9.57744 13.414 9.47456 13.3721C9.37168 13.3301 9.26147 13.3092 9.15039 13.3105ZM15.8171 13.3105C15.596 13.3131 15.3851 13.4034 15.2307 13.5615C15.0762 13.7196 14.9909 13.9326 14.9935 14.1536V20.8203C14.9919 20.9307 15.0123 21.0404 15.0535 21.1428C15.0947 21.2453 15.1558 21.3386 15.2334 21.4172C15.3109 21.4959 15.4033 21.5583 15.5052 21.6009C15.607 21.6435 15.7164 21.6655 15.8268 21.6655C15.9373 21.6655 16.0466 21.6435 16.1485 21.6009C16.2504 21.5583 16.3428 21.4959 16.4203 21.4172C16.4978 21.3386 16.559 21.2453 16.6001 21.1428C16.6413 21.0404 16.6617 20.9307 16.6602 20.8203V14.1536C16.6615 14.0425 16.6405 13.9323 16.5986 13.8295C16.5567 13.7266 16.4947 13.6331 16.4161 13.5546C16.3376 13.476 16.2441 13.414 16.1412 13.3721C16.0384 13.3301 15.9281 13.3092 15.8171 13.3105ZM22.474 13.3105C22.2529 13.3131 22.042 13.4034 21.8876 13.5615C21.7331 13.7196 21.6478 13.9326 21.6504 14.1536V17.2721L19.9121 13.7825C19.8291 13.613 19.6911 13.4766 19.5205 13.3957C19.3499 13.3148 19.1569 13.2943 18.9732 13.3374C18.7894 13.3805 18.6257 13.4847 18.5088 13.633C18.392 13.7813 18.329 13.9649 18.3301 14.1536V20.8203C18.3285 20.9307 18.3489 21.0404 18.3901 21.1428C18.4313 21.2453 18.4924 21.3386 18.5699 21.4172C18.6475 21.4959 18.7399 21.5583 18.8418 21.6009C18.9436 21.6435 19.053 21.6655 19.1634 21.6655C19.2738 21.6655 19.3832 21.6435 19.4851 21.6009C19.5869 21.5583 19.6793 21.4959 19.7569 21.4172C19.8344 21.3386 19.8955 21.2453 19.9367 21.1428C19.9779 21.0404 19.9983 20.9307 19.9967 20.8203V17.6985L21.7383 21.1946C21.8223 21.3626 21.9607 21.4973 22.1309 21.5769C22.3011 21.6564 22.4931 21.6761 22.6759 21.6327C22.8587 21.5894 23.0215 21.4855 23.1379 21.3381C23.2542 21.1906 23.3174 21.0082 23.3171 20.8203V14.1536C23.3184 14.0425 23.2974 13.9323 23.2555 13.8295C23.2136 13.7266 23.1516 13.6331 23.073 13.5546C22.9945 13.476 22.901 13.414 22.7981 13.3721C22.6952 13.3301 22.585 13.3092 22.474 13.3105ZM25.8333 13.3203C25.6123 13.3203 25.4004 13.4081 25.2441 13.5644C25.0878 13.7207 25 13.9326 25 14.1536V17.4186C24.9969 17.4598 24.9969 17.5011 25 17.5423V20.8203C25 21.0413 25.0878 21.2532 25.2441 21.4095C25.4004 21.5658 25.6123 21.6536 25.8333 21.6536H29.1406C29.251 21.6552 29.3607 21.6348 29.4632 21.5936C29.5656 21.5524 29.6589 21.4913 29.7375 21.4138C29.8162 21.3362 29.8786 21.2438 29.9213 21.1419C29.9639 21.0401 29.9858 20.9307 29.9858 20.8203C29.9858 20.7099 29.9639 20.6005 29.9213 20.4986C29.8786 20.3968 29.8162 20.3044 29.7375 20.2268C29.6589 20.1493 29.5656 20.0882 29.4632 20.047C29.3607 20.0058 29.251 19.9854 29.1406 19.987H26.6667V18.3203H29.1406C29.251 18.3218 29.3607 18.3014 29.4631 18.2603C29.5656 18.2191 29.6589 18.158 29.7375 18.0804C29.8162 18.0029 29.8786 17.9105 29.9212 17.8086C29.9638 17.7067 29.9858 17.5974 29.9858 17.487C29.9858 17.3765 29.9638 17.2672 29.9212 17.1653C29.8786 17.0634 29.8162 16.971 29.7375 16.8935C29.6589 16.816 29.5656 16.7548 29.4631 16.7136C29.3607 16.6725 29.251 16.6521 29.1406 16.6536H26.6667V14.987H29.1406C29.251 14.9885 29.3607 14.9681 29.4632 14.9269C29.5656 14.8858 29.6589 14.8246 29.7375 14.7471C29.8162 14.6696 29.8786 14.5772 29.9213 14.4753C29.9639 14.3734 29.9858 14.2641 29.9858 14.1536C29.9858 14.0432 29.9639 13.9339 29.9213 13.832C29.8786 13.7301 29.8162 13.6377 29.7375 13.5602C29.6589 13.4826 29.5656 13.4215 29.4632 13.3803C29.3607 13.3391 29.251 13.3187 29.1406 13.3203H25.8333Z" fill="#41415F"/>
</svg>
